<mxfile modified="2022-09-08T08:15:37.448Z" host="app.diagrams.net" agent="5.0 (Macintosh; Intel Mac OS X 10_15_7) AppleWebKit/537.36 (KHTML, like Gecko) Chrome/104.0.0.0 Safari/537.36" etag="YEr4N24Rpgk5RpK96gQ5" version="15.5.2" type="github" pages="4">
  <diagram id="Ht1M8jgEwFfnCIfOTk4-" name="Page-1">
    <mxGraphModel dx="885" dy="531" grid="1" gridSize="10" guides="1" tooltips="1" connect="1" arrows="1" fold="1" page="1" pageScale="1" pageWidth="1169" pageHeight="827" math="0" shadow="0">
      <root>
        <mxCell id="0" />
        <mxCell id="1" parent="0" />
        <mxCell id="-QjtrjUzRDEMRZ5MF8oH-14" value="Amazon SageMaker" style="whiteSpace=wrap;html=1;fillColor=none;fontSize=14;fontColor=#000000;dashed=0;fontStyle=0;align=center;verticalAlign=top;strokeColor=#D86613;gradientColor=none;spacingLeft=0;labelPosition=center;verticalLabelPosition=bottom;" parent="1" vertex="1">
          <mxGeometry x="872.5" y="174.5" width="232" height="160" as="geometry" />
        </mxCell>
        <mxCell id="SCVMTBWpLvtzJIhz15lM-34" value="" style="whiteSpace=wrap;html=1;fillColor=none;fontSize=14;fontColor=#000000;dashed=0;fontStyle=0;align=center;verticalAlign=top;strokeColor=#CCCCCC;gradientColor=none;spacingLeft=0;labelPosition=center;verticalLabelPosition=bottom;" parent="1" vertex="1">
          <mxGeometry x="882.5" y="257.5" width="210" height="70" as="geometry" />
        </mxCell>
        <mxCell id="-QjtrjUzRDEMRZ5MF8oH-1" value="" style="outlineConnect=0;fontColor=#232F3E;gradientColor=none;fillColor=#277116;strokeColor=none;dashed=0;verticalLabelPosition=bottom;verticalAlign=top;align=center;html=1;fontSize=12;fontStyle=0;aspect=fixed;pointerEvents=1;shape=mxgraph.aws4.door_lock;" parent="1" vertex="1">
          <mxGeometry x="64.5" y="260.5" width="78" height="78" as="geometry" />
        </mxCell>
        <mxCell id="-QjtrjUzRDEMRZ5MF8oH-2" value="" style="outlineConnect=0;fontColor=#232F3E;gradientColor=none;fillColor=#277116;strokeColor=none;dashed=0;verticalLabelPosition=bottom;verticalAlign=top;align=center;html=1;fontSize=12;fontStyle=0;aspect=fixed;pointerEvents=1;shape=mxgraph.aws4.car;" parent="1" vertex="1">
          <mxGeometry x="64.5" y="356" width="78" height="78" as="geometry" />
        </mxCell>
        <mxCell id="-QjtrjUzRDEMRZ5MF8oH-3" value="" style="outlineConnect=0;fontColor=#232F3E;gradientColor=none;fillColor=#277116;strokeColor=none;dashed=0;verticalLabelPosition=bottom;verticalAlign=top;align=center;html=1;fontSize=12;fontStyle=0;aspect=fixed;pointerEvents=1;shape=mxgraph.aws4.camera;" parent="1" vertex="1">
          <mxGeometry x="64.5" y="451.5" width="78" height="78" as="geometry" />
        </mxCell>
        <mxCell id="-QjtrjUzRDEMRZ5MF8oH-4" value="" style="outlineConnect=0;fontColor=#232F3E;gradientColor=none;fillColor=#277116;strokeColor=none;dashed=0;verticalLabelPosition=bottom;verticalAlign=top;align=center;html=1;fontSize=12;fontStyle=0;aspect=fixed;pointerEvents=1;shape=mxgraph.aws4.utility;" parent="1" vertex="1">
          <mxGeometry x="165.5" y="306.5" width="78" height="78" as="geometry" />
        </mxCell>
        <mxCell id="-QjtrjUzRDEMRZ5MF8oH-5" value="" style="outlineConnect=0;fontColor=#232F3E;gradientColor=none;fillColor=#277116;strokeColor=none;dashed=0;verticalLabelPosition=bottom;verticalAlign=top;align=center;html=1;fontSize=12;fontStyle=0;aspect=fixed;pointerEvents=1;shape=mxgraph.aws4.coffee_pot;" parent="1" vertex="1">
          <mxGeometry x="166.5" y="410.5" width="78" height="78" as="geometry" />
        </mxCell>
        <mxCell id="-QjtrjUzRDEMRZ5MF8oH-6" value="" style="outlineConnect=0;fontColor=#232F3E;gradientColor=none;fillColor=#277116;strokeColor=none;dashed=0;verticalLabelPosition=bottom;verticalAlign=top;align=center;html=1;fontSize=12;fontStyle=0;aspect=fixed;pointerEvents=1;shape=mxgraph.aws4.lightbulb;" parent="1" vertex="1">
          <mxGeometry x="263.5" y="260.5" width="78" height="78" as="geometry" />
        </mxCell>
        <mxCell id="-QjtrjUzRDEMRZ5MF8oH-7" value="" style="outlineConnect=0;fontColor=#232F3E;gradientColor=none;fillColor=#277116;strokeColor=none;dashed=0;verticalLabelPosition=bottom;verticalAlign=top;align=center;html=1;fontSize=12;fontStyle=0;aspect=fixed;pointerEvents=1;shape=mxgraph.aws4.house;" parent="1" vertex="1">
          <mxGeometry x="261.5" y="356" width="78" height="78" as="geometry" />
        </mxCell>
        <mxCell id="-QjtrjUzRDEMRZ5MF8oH-8" value="" style="outlineConnect=0;fontColor=#232F3E;gradientColor=none;fillColor=#277116;strokeColor=none;dashed=0;verticalLabelPosition=bottom;verticalAlign=top;align=center;html=1;fontSize=12;fontStyle=0;aspect=fixed;pointerEvents=1;shape=mxgraph.aws4.thermostat;" parent="1" vertex="1">
          <mxGeometry x="261.5" y="451.5" width="78" height="78" as="geometry" />
        </mxCell>
        <mxCell id="-QjtrjUzRDEMRZ5MF8oH-9" value="1" style="rounded=1;whiteSpace=wrap;html=1;fillColor=#007CBD;strokeColor=none;fontColor=#FFFFFF;fontStyle=1;fontSize=22;" parent="1" vertex="1">
          <mxGeometry x="223.5" y="211.5" width="40" height="38" as="geometry" />
        </mxCell>
        <mxCell id="-QjtrjUzRDEMRZ5MF8oH-10" value="ML Model Executable" style="outlineConnect=0;fontColor=#232F3E;gradientColor=none;fillColor=#116D5B;strokeColor=none;dashed=0;verticalLabelPosition=bottom;verticalAlign=top;align=center;html=1;fontSize=12;fontStyle=0;aspect=fixed;pointerEvents=1;shape=mxgraph.aws4.sagemaker_model;" parent="1" vertex="1">
          <mxGeometry x="473.5" y="244.5" width="78" height="78" as="geometry" />
        </mxCell>
        <mxCell id="-QjtrjUzRDEMRZ5MF8oH-11" value="AWS Lambda Function" style="outlineConnect=0;fontColor=#232F3E;gradientColor=none;fillColor=#277116;strokeColor=none;dashed=0;verticalLabelPosition=bottom;verticalAlign=top;align=center;html=1;fontSize=12;fontStyle=0;aspect=fixed;pointerEvents=1;shape=mxgraph.aws4.lambda_function;" parent="1" vertex="1">
          <mxGeometry x="473.5" y="349.5" width="78" height="78" as="geometry" />
        </mxCell>
        <mxCell id="-QjtrjUzRDEMRZ5MF8oH-12" value="AWS IoT Greengrass Core" style="outlineConnect=0;fontColor=#232F3E;gradientColor=#60A337;gradientDirection=north;fillColor=#277116;strokeColor=#ffffff;dashed=0;verticalLabelPosition=bottom;verticalAlign=top;align=center;html=1;fontSize=12;fontStyle=0;aspect=fixed;shape=mxgraph.aws4.resourceIcon;resIcon=mxgraph.aws4.greengrass;" parent="1" vertex="1">
          <mxGeometry x="473.5" y="457.5" width="78" height="78" as="geometry" />
        </mxCell>
        <mxCell id="-QjtrjUzRDEMRZ5MF8oH-16" value="AWS IoT Core" style="outlineConnect=0;fontColor=#232F3E;gradientColor=#60A337;gradientDirection=north;fillColor=#277116;strokeColor=#ffffff;dashed=0;verticalLabelPosition=bottom;verticalAlign=top;align=center;html=1;fontSize=12;fontStyle=0;aspect=fixed;shape=mxgraph.aws4.resourceIcon;resIcon=mxgraph.aws4.internet_of_things;" parent="1" vertex="1">
          <mxGeometry x="745.5" y="451.5" width="78" height="78" as="geometry" />
        </mxCell>
        <mxCell id="-QjtrjUzRDEMRZ5MF8oH-17" value="AWS IoT Analytics" style="outlineConnect=0;fontColor=#232F3E;gradientColor=#60A337;gradientDirection=north;fillColor=#277116;strokeColor=#ffffff;dashed=0;verticalLabelPosition=bottom;verticalAlign=top;align=center;html=1;fontSize=12;fontStyle=0;aspect=fixed;shape=mxgraph.aws4.resourceIcon;resIcon=mxgraph.aws4.iot_analytics;" parent="1" vertex="1">
          <mxGeometry x="949.5" y="451.5" width="78" height="78" as="geometry" />
        </mxCell>
        <mxCell id="-QjtrjUzRDEMRZ5MF8oH-18" value="ML Model Executable" style="outlineConnect=0;fontColor=#232F3E;gradientColor=none;fillColor=#116D5B;strokeColor=none;dashed=0;verticalLabelPosition=bottom;verticalAlign=top;align=center;html=1;fontSize=12;fontStyle=0;aspect=fixed;pointerEvents=1;shape=mxgraph.aws4.sagemaker_model;" parent="1" vertex="1">
          <mxGeometry x="136.5" y="691.5" width="78" height="78" as="geometry" />
        </mxCell>
        <mxCell id="-QjtrjUzRDEMRZ5MF8oH-19" value="AWS IoT Greengrass Core" style="outlineConnect=0;fontColor=#232F3E;gradientColor=#60A337;gradientDirection=north;fillColor=#277116;strokeColor=#ffffff;dashed=0;verticalLabelPosition=bottom;verticalAlign=top;align=center;html=1;fontSize=12;fontStyle=0;aspect=fixed;shape=mxgraph.aws4.resourceIcon;resIcon=mxgraph.aws4.iot_core;" parent="1" vertex="1">
          <mxGeometry x="137.5" y="796" width="78" height="78" as="geometry" />
        </mxCell>
        <mxCell id="-QjtrjUzRDEMRZ5MF8oH-20" value="Video Camera" style="outlineConnect=0;fontColor=#232F3E;gradientColor=none;fillColor=#277116;strokeColor=none;dashed=0;verticalLabelPosition=bottom;verticalAlign=top;align=center;html=1;fontSize=12;fontStyle=0;aspect=fixed;pointerEvents=1;shape=mxgraph.aws4.camera;" parent="1" vertex="1">
          <mxGeometry x="137.5" y="903.5" width="78" height="78" as="geometry" />
        </mxCell>
        <mxCell id="-QjtrjUzRDEMRZ5MF8oH-21" value="AWS IoT Core" style="outlineConnect=0;fontColor=#232F3E;gradientColor=#60A337;gradientDirection=north;fillColor=#277116;strokeColor=#ffffff;dashed=0;verticalLabelPosition=bottom;verticalAlign=top;align=center;html=1;fontSize=12;fontStyle=0;aspect=fixed;shape=mxgraph.aws4.resourceIcon;resIcon=mxgraph.aws4.internet_of_things;" parent="1" vertex="1">
          <mxGeometry x="352.5" y="711.5" width="78" height="78" as="geometry" />
        </mxCell>
        <mxCell id="-QjtrjUzRDEMRZ5MF8oH-22" value="AWS IoT Analytics" style="outlineConnect=0;fontColor=#232F3E;gradientColor=#60A337;gradientDirection=north;fillColor=#277116;strokeColor=#ffffff;dashed=0;verticalLabelPosition=bottom;verticalAlign=top;align=center;html=1;fontSize=12;fontStyle=0;aspect=fixed;shape=mxgraph.aws4.resourceIcon;resIcon=mxgraph.aws4.iot_analytics;" parent="1" vertex="1">
          <mxGeometry x="532.5" y="708.5" width="78" height="78" as="geometry" />
        </mxCell>
        <mxCell id="-QjtrjUzRDEMRZ5MF8oH-23" value="AWS IoT Events" style="outlineConnect=0;fontColor=#232F3E;gradientColor=#60A337;gradientDirection=north;fillColor=#277116;strokeColor=#ffffff;dashed=0;verticalLabelPosition=bottom;verticalAlign=top;align=center;html=1;fontSize=12;fontStyle=0;aspect=fixed;shape=mxgraph.aws4.resourceIcon;resIcon=mxgraph.aws4.iot_events;" parent="1" vertex="1">
          <mxGeometry x="721.5" y="708.5" width="78" height="78" as="geometry" />
        </mxCell>
        <mxCell id="-QjtrjUzRDEMRZ5MF8oH-24" value="Amazon SNS" style="outlineConnect=0;fontColor=#232F3E;gradientColor=#F34482;gradientDirection=north;fillColor=#BC1356;strokeColor=#ffffff;dashed=0;verticalLabelPosition=bottom;verticalAlign=top;align=center;html=1;fontSize=12;fontStyle=0;aspect=fixed;shape=mxgraph.aws4.resourceIcon;resIcon=mxgraph.aws4.sns;" parent="1" vertex="1">
          <mxGeometry x="902.5" y="708.5" width="78" height="78" as="geometry" />
        </mxCell>
        <mxCell id="-QjtrjUzRDEMRZ5MF8oH-25" value="Amazon Kinesis&lt;br&gt;Video Streams&lt;br&gt;" style="outlineConnect=0;fontColor=#232F3E;gradientColor=#945DF2;gradientDirection=north;fillColor=#5A30B5;strokeColor=#ffffff;dashed=0;verticalLabelPosition=bottom;verticalAlign=top;align=center;html=1;fontSize=12;fontStyle=0;aspect=fixed;shape=mxgraph.aws4.resourceIcon;resIcon=mxgraph.aws4.kinesis_video_streams;" parent="1" vertex="1">
          <mxGeometry x="484.5" y="874.5" width="78" height="78" as="geometry" />
        </mxCell>
        <mxCell id="-QjtrjUzRDEMRZ5MF8oH-26" value="Mobile Application" style="outlineConnect=0;fontColor=#232F3E;gradientColor=#F54749;gradientDirection=north;fillColor=#C7131F;strokeColor=#ffffff;dashed=0;verticalLabelPosition=bottom;verticalAlign=top;align=center;html=1;fontSize=12;fontStyle=0;aspect=fixed;shape=mxgraph.aws4.resourceIcon;resIcon=mxgraph.aws4.mobile;" parent="1" vertex="1">
          <mxGeometry x="785.5" y="873.5" width="78" height="78" as="geometry" />
        </mxCell>
        <mxCell id="-QjtrjUzRDEMRZ5MF8oH-27" value="2" style="rounded=1;whiteSpace=wrap;html=1;fillColor=#007CBD;strokeColor=none;fontColor=#FFFFFF;fontStyle=1;fontSize=22;" parent="1" vertex="1">
          <mxGeometry x="483.5" y="164.5" width="40" height="38" as="geometry" />
        </mxCell>
        <mxCell id="-QjtrjUzRDEMRZ5MF8oH-28" value="3" style="rounded=1;whiteSpace=wrap;html=1;fillColor=#007CBD;strokeColor=none;fontColor=#FFFFFF;fontStyle=1;fontSize=22;" parent="1" vertex="1">
          <mxGeometry x="823.5" y="175.5" width="40" height="38" as="geometry" />
        </mxCell>
        <mxCell id="-QjtrjUzRDEMRZ5MF8oH-29" value="4" style="rounded=1;whiteSpace=wrap;html=1;fillColor=#007CBD;strokeColor=none;fontColor=#FFFFFF;fontStyle=1;fontSize=22;" parent="1" vertex="1">
          <mxGeometry x="633.5" y="399.5" width="40" height="38" as="geometry" />
        </mxCell>
        <mxCell id="-QjtrjUzRDEMRZ5MF8oH-30" value="5" style="rounded=1;whiteSpace=wrap;html=1;fillColor=#007CBD;strokeColor=none;fontColor=#FFFFFF;fontStyle=1;fontSize=22;" parent="1" vertex="1">
          <mxGeometry x="878.5" y="399.5" width="40" height="38" as="geometry" />
        </mxCell>
        <mxCell id="-QjtrjUzRDEMRZ5MF8oH-31" value="6" style="rounded=1;whiteSpace=wrap;html=1;fillColor=#007CBD;strokeColor=none;fontColor=#FFFFFF;fontStyle=1;fontSize=22;" parent="1" vertex="1">
          <mxGeometry x="136.5" y="608.5" width="40" height="38" as="geometry" />
        </mxCell>
        <mxCell id="-QjtrjUzRDEMRZ5MF8oH-32" value="7" style="rounded=1;whiteSpace=wrap;html=1;fillColor=#007CBD;strokeColor=none;fontColor=#FFFFFF;fontStyle=1;fontSize=22;" parent="1" vertex="1">
          <mxGeometry x="462.5" y="666.5" width="40" height="38" as="geometry" />
        </mxCell>
        <mxCell id="-QjtrjUzRDEMRZ5MF8oH-33" value="8" style="rounded=1;whiteSpace=wrap;html=1;fillColor=#007CBD;strokeColor=none;fontColor=#FFFFFF;fontStyle=1;fontSize=22;" parent="1" vertex="1">
          <mxGeometry x="832.5" y="666.5" width="40" height="38" as="geometry" />
        </mxCell>
        <mxCell id="-QjtrjUzRDEMRZ5MF8oH-34" value="9" style="rounded=1;whiteSpace=wrap;html=1;fillColor=#007CBD;strokeColor=none;fontColor=#FFFFFF;fontStyle=1;fontSize=22;" parent="1" vertex="1">
          <mxGeometry x="352.5" y="854.5" width="40" height="38" as="geometry" />
        </mxCell>
        <mxCell id="-QjtrjUzRDEMRZ5MF8oH-35" value="10" style="rounded=1;whiteSpace=wrap;html=1;fillColor=#007CBD;strokeColor=none;fontColor=#FFFFFF;fontStyle=1;fontSize=22;" parent="1" vertex="1">
          <mxGeometry x="652.5" y="854.5" width="40" height="38" as="geometry" />
        </mxCell>
        <mxCell id="-QjtrjUzRDEMRZ5MF8oH-47" value="Title text" style="text;html=1;resizable=0;points=[];autosize=1;align=left;verticalAlign=top;spacingTop=-4;fontSize=30;fontStyle=1" parent="1" vertex="1">
          <mxGeometry x="56.5" y="64.5" width="130" height="40" as="geometry" />
        </mxCell>
        <mxCell id="-QjtrjUzRDEMRZ5MF8oH-48" value="Subtitle text&lt;br style=&quot;font-size: 16px&quot;&gt;" style="text;html=1;resizable=0;points=[];autosize=1;align=left;verticalAlign=top;spacingTop=-4;fontSize=16;" parent="1" vertex="1">
          <mxGeometry x="56.5" y="114.5" width="100" height="20" as="geometry" />
        </mxCell>
        <mxCell id="-QjtrjUzRDEMRZ5MF8oH-49" value="Label" style="text;html=1;resizable=0;points=[];autosize=1;align=left;verticalAlign=top;spacingTop=-4;fontSize=16;fontStyle=1" parent="1" vertex="1">
          <mxGeometry x="84.5" y="164.5" width="50" height="20" as="geometry" />
        </mxCell>
        <mxCell id="SCVMTBWpLvtzJIhz15lM-1" value="" style="line;strokeWidth=2;html=1;fontSize=14;" parent="1" vertex="1">
          <mxGeometry x="52.5" y="139.5" width="1060" height="10" as="geometry" />
        </mxCell>
        <mxCell id="SCVMTBWpLvtzJIhz15lM-2" value="&lt;span&gt;Label&lt;/span&gt;" style="text;html=1;resizable=0;points=[];autosize=1;align=left;verticalAlign=top;spacingTop=-4;fontSize=14;fontStyle=1" parent="1" vertex="1">
          <mxGeometry x="442.5" y="216.5" width="50" height="20" as="geometry" />
        </mxCell>
        <mxCell id="SCVMTBWpLvtzJIhz15lM-3" value="" style="edgeStyle=orthogonalEdgeStyle;html=1;endArrow=open;elbow=vertical;startArrow=none;endFill=0;strokeColor=#545B64;rounded=0;fontSize=14;" parent="1" edge="1">
          <mxGeometry width="100" relative="1" as="geometry">
            <mxPoint x="354.5" y="394.5" as="sourcePoint" />
            <mxPoint x="404.5" y="394.5" as="targetPoint" />
          </mxGeometry>
        </mxCell>
        <mxCell id="SCVMTBWpLvtzJIhz15lM-5" value="" style="shape=curlyBracket;whiteSpace=wrap;html=1;rounded=1;fontSize=14;" parent="1" vertex="1">
          <mxGeometry x="415.5" y="248.5" width="20" height="290" as="geometry" />
        </mxCell>
        <mxCell id="SCVMTBWpLvtzJIhz15lM-17" value="&lt;span&gt;Label&lt;/span&gt;" style="edgeStyle=orthogonalEdgeStyle;html=1;endArrow=open;elbow=vertical;startArrow=none;endFill=0;strokeColor=#545B64;rounded=0;fontSize=14;strokeWidth=2;" parent="1" edge="1">
          <mxGeometry x="-0.037" y="20" width="100" relative="1" as="geometry">
            <mxPoint x="584.5" y="254.5" as="sourcePoint" />
            <mxPoint x="854.5" y="254.5" as="targetPoint" />
            <mxPoint as="offset" />
          </mxGeometry>
        </mxCell>
        <mxCell id="SCVMTBWpLvtzJIhz15lM-18" value="&lt;span&gt;Label&lt;/span&gt;" style="edgeStyle=orthogonalEdgeStyle;html=1;endArrow=none;elbow=vertical;startArrow=open;endFill=0;strokeColor=#545B64;rounded=0;fontSize=14;strokeWidth=2;startFill=0;" parent="1" edge="1">
          <mxGeometry x="-0.037" y="20" width="100" relative="1" as="geometry">
            <mxPoint x="582.5" y="318" as="sourcePoint" />
            <mxPoint x="852.5" y="318" as="targetPoint" />
            <mxPoint as="offset" />
          </mxGeometry>
        </mxCell>
        <mxCell id="SCVMTBWpLvtzJIhz15lM-19" value="&lt;span&gt;Label&lt;/span&gt;" style="edgeStyle=orthogonalEdgeStyle;html=1;endArrow=open;elbow=vertical;startArrow=none;endFill=0;strokeColor=#545B64;rounded=0;fontSize=14;strokeWidth=2;" parent="1" edge="1">
          <mxGeometry x="-0.037" y="20" width="100" relative="1" as="geometry">
            <mxPoint x="594.5000000000002" y="484.5" as="sourcePoint" />
            <mxPoint x="714.5" y="484.5" as="targetPoint" />
            <mxPoint as="offset" />
          </mxGeometry>
        </mxCell>
        <mxCell id="SCVMTBWpLvtzJIhz15lM-20" value="&lt;span&gt;Label&lt;/span&gt;" style="edgeStyle=orthogonalEdgeStyle;html=1;endArrow=open;elbow=vertical;startArrow=none;endFill=0;strokeColor=#545B64;rounded=0;fontSize=14;strokeWidth=2;" parent="1" edge="1">
          <mxGeometry x="-0.037" y="20" width="100" relative="1" as="geometry">
            <mxPoint x="838.5000000000002" y="487.5" as="sourcePoint" />
            <mxPoint x="924.5" y="487.5" as="targetPoint" />
            <mxPoint as="offset" />
          </mxGeometry>
        </mxCell>
        <mxCell id="SCVMTBWpLvtzJIhz15lM-21" value="Label" style="text;html=1;resizable=0;points=[];autosize=1;align=left;verticalAlign=top;spacingTop=-4;fontSize=16;fontStyle=1" parent="1" vertex="1">
          <mxGeometry x="66.5" y="576.5" width="50" height="20" as="geometry" />
        </mxCell>
        <mxCell id="SCVMTBWpLvtzJIhz15lM-22" value="&lt;span&gt;Label&lt;/span&gt;" style="text;html=1;resizable=0;points=[];autosize=1;align=left;verticalAlign=top;spacingTop=-4;fontSize=14;fontStyle=1" parent="1" vertex="1">
          <mxGeometry x="136.5" y="656.5" width="50" height="20" as="geometry" />
        </mxCell>
        <mxCell id="SCVMTBWpLvtzJIhz15lM-23" value="" style="shape=curlyBracket;whiteSpace=wrap;html=1;rounded=1;fontSize=14;" parent="1" vertex="1">
          <mxGeometry x="76.5" y="691.5" width="20" height="290" as="geometry" />
        </mxCell>
        <mxCell id="SCVMTBWpLvtzJIhz15lM-24" value="Video Events" style="edgeStyle=orthogonalEdgeStyle;html=1;endArrow=open;elbow=vertical;startArrow=none;endFill=0;strokeColor=#545B64;rounded=0;fontSize=14;strokeWidth=2;" parent="1" edge="1">
          <mxGeometry x="-0.037" y="20" width="100" relative="1" as="geometry">
            <mxPoint x="261.5" y="753.5" as="sourcePoint" />
            <mxPoint x="342.5" y="753.5" as="targetPoint" />
            <mxPoint as="offset" />
          </mxGeometry>
        </mxCell>
        <mxCell id="SCVMTBWpLvtzJIhz15lM-25" value="" style="edgeStyle=orthogonalEdgeStyle;html=1;endArrow=open;elbow=vertical;startArrow=none;endFill=0;strokeColor=#545B64;rounded=0;fontSize=14;strokeWidth=2;" parent="1" edge="1">
          <mxGeometry x="-0.037" y="20" width="100" relative="1" as="geometry">
            <mxPoint x="443" y="750" as="sourcePoint" />
            <mxPoint x="524" y="750" as="targetPoint" />
            <mxPoint as="offset" />
          </mxGeometry>
        </mxCell>
        <mxCell id="SCVMTBWpLvtzJIhz15lM-26" value="" style="edgeStyle=orthogonalEdgeStyle;html=1;endArrow=open;elbow=vertical;startArrow=none;endFill=0;strokeColor=#545B64;rounded=0;fontSize=14;strokeWidth=2;" parent="1" edge="1">
          <mxGeometry x="-0.037" y="20" width="100" relative="1" as="geometry">
            <mxPoint x="622.5" y="750" as="sourcePoint" />
            <mxPoint x="703.5" y="750" as="targetPoint" />
            <mxPoint as="offset" />
          </mxGeometry>
        </mxCell>
        <mxCell id="SCVMTBWpLvtzJIhz15lM-27" value="" style="edgeStyle=orthogonalEdgeStyle;html=1;endArrow=open;elbow=vertical;startArrow=none;endFill=0;strokeColor=#545B64;rounded=0;fontSize=14;strokeWidth=2;" parent="1" edge="1">
          <mxGeometry x="-0.037" y="20" width="100" relative="1" as="geometry">
            <mxPoint x="811.5" y="747.5" as="sourcePoint" />
            <mxPoint x="892.5" y="747.5" as="targetPoint" />
            <mxPoint as="offset" />
          </mxGeometry>
        </mxCell>
        <mxCell id="SCVMTBWpLvtzJIhz15lM-28" value="Video Stream" style="edgeStyle=orthogonalEdgeStyle;html=1;endArrow=open;elbow=vertical;startArrow=none;endFill=0;strokeColor=#545B64;rounded=0;fontSize=14;strokeWidth=2;" parent="1" edge="1">
          <mxGeometry x="0.0038" y="-11" width="100" relative="1" as="geometry">
            <mxPoint x="262" y="913" as="sourcePoint" />
            <mxPoint x="472.5" y="913.5" as="targetPoint" />
            <mxPoint as="offset" />
            <Array as="points">
              <mxPoint x="367.5" y="913.5" />
            </Array>
          </mxGeometry>
        </mxCell>
        <mxCell id="SCVMTBWpLvtzJIhz15lM-29" value="" style="edgeStyle=orthogonalEdgeStyle;html=1;endArrow=open;elbow=vertical;startArrow=none;endFill=0;strokeColor=#545B64;rounded=0;fontSize=14;strokeWidth=2;" parent="1" edge="1">
          <mxGeometry x="0.0038" y="-11" width="100" relative="1" as="geometry">
            <mxPoint x="575.0714285714287" y="913.2142857142858" as="sourcePoint" />
            <mxPoint x="762.5" y="913.5" as="targetPoint" />
            <mxPoint as="offset" />
            <Array as="points">
              <mxPoint x="680.5" y="913.5" />
            </Array>
          </mxGeometry>
        </mxCell>
        <mxCell id="SCVMTBWpLvtzJIhz15lM-30" value="Build" style="outlineConnect=0;gradientColor=none;fontColor=#545B64;strokeColor=none;fillColor=#879196;dashed=0;verticalLabelPosition=bottom;verticalAlign=top;align=center;html=1;fontSize=12;fontStyle=0;aspect=fixed;shape=mxgraph.aws4.illustration_devices;pointerEvents=1" parent="1" vertex="1">
          <mxGeometry x="962.5" y="179.5" width="52" height="38" as="geometry" />
        </mxCell>
        <mxCell id="SCVMTBWpLvtzJIhz15lM-31" value="Train" style="outlineConnect=0;gradientColor=none;fontColor=#545B64;strokeColor=none;fillColor=#879196;dashed=0;verticalLabelPosition=bottom;verticalAlign=top;align=center;html=1;fontSize=12;fontStyle=0;aspect=fixed;shape=mxgraph.aws4.illustration_devices;pointerEvents=1" parent="1" vertex="1">
          <mxGeometry x="892.5" y="267.5" width="52" height="38" as="geometry" />
        </mxCell>
        <mxCell id="SCVMTBWpLvtzJIhz15lM-32" value="Optimize" style="outlineConnect=0;gradientColor=none;fontColor=#545B64;strokeColor=none;fillColor=#879196;dashed=0;verticalLabelPosition=bottom;verticalAlign=top;align=center;html=1;fontSize=12;fontStyle=0;aspect=fixed;shape=mxgraph.aws4.illustration_devices;pointerEvents=1" parent="1" vertex="1">
          <mxGeometry x="1032.5" y="267.5" width="52" height="38" as="geometry" />
        </mxCell>
        <mxCell id="SCVMTBWpLvtzJIhz15lM-33" value="" style="edgeStyle=orthogonalEdgeStyle;html=1;endArrow=open;elbow=vertical;startArrow=none;endFill=0;strokeColor=#545B64;rounded=0;fontSize=14;" parent="1" edge="1">
          <mxGeometry width="100" relative="1" as="geometry">
            <mxPoint x="958.5" y="293.5" as="sourcePoint" />
            <mxPoint x="1018.5" y="293.5" as="targetPoint" />
          </mxGeometry>
        </mxCell>
        <mxCell id="SCVMTBWpLvtzJIhz15lM-35" value="" style="edgeStyle=orthogonalEdgeStyle;html=1;endArrow=open;elbow=vertical;startArrow=none;endFill=0;strokeColor=#545B64;rounded=0;fontSize=14;" parent="1" edge="1">
          <mxGeometry width="100" relative="1" as="geometry">
            <mxPoint x="992.5" y="236.46774193548387" as="sourcePoint" />
            <mxPoint x="992.5" y="256.4677419354839" as="targetPoint" />
          </mxGeometry>
        </mxCell>
        <mxCell id="7OVz4w7n9kzEPWy-4BBC-3" value="" style="rounded=0;whiteSpace=wrap;html=1;fillColor=#EAEDED;fontSize=22;fontColor=#FFFFFF;strokeColor=none;labelBackgroundColor=none;" parent="1" vertex="1">
          <mxGeometry x="1151" y="51" width="539" height="1220" as="geometry" />
        </mxCell>
        <mxCell id="7OVz4w7n9kzEPWy-4BBC-4" value="1" style="rounded=1;whiteSpace=wrap;html=1;fillColor=#007CBD;strokeColor=none;fontColor=#FFFFFF;fontStyle=1;fontSize=22;labelBackgroundColor=none;" parent="1" vertex="1">
          <mxGeometry x="1169" y="63" width="40" height="38" as="geometry" />
        </mxCell>
        <mxCell id="7OVz4w7n9kzEPWy-4BBC-5" value="2" style="rounded=1;whiteSpace=wrap;html=1;fillColor=#007CBD;strokeColor=none;fontColor=#FFFFFF;fontStyle=1;fontSize=22;labelBackgroundColor=none;" parent="1" vertex="1">
          <mxGeometry x="1167.5" y="185" width="40" height="38" as="geometry" />
        </mxCell>
        <mxCell id="7OVz4w7n9kzEPWy-4BBC-6" value="3" style="rounded=1;whiteSpace=wrap;html=1;fillColor=#007CBD;strokeColor=none;fontColor=#FFFFFF;fontStyle=1;fontSize=22;labelBackgroundColor=none;" parent="1" vertex="1">
          <mxGeometry x="1167.5" y="305" width="40" height="38" as="geometry" />
        </mxCell>
        <mxCell id="7OVz4w7n9kzEPWy-4BBC-7" value="4" style="rounded=1;whiteSpace=wrap;html=1;fillColor=#007CBD;strokeColor=none;fontColor=#FFFFFF;fontStyle=1;fontSize=22;labelBackgroundColor=none;" parent="1" vertex="1">
          <mxGeometry x="1167.5" y="419" width="40" height="38" as="geometry" />
        </mxCell>
        <mxCell id="7OVz4w7n9kzEPWy-4BBC-8" value="5" style="rounded=1;whiteSpace=wrap;html=1;fillColor=#007CBD;strokeColor=none;fontColor=#FFFFFF;fontStyle=1;fontSize=22;labelBackgroundColor=none;" parent="1" vertex="1">
          <mxGeometry x="1169" y="536" width="40" height="38" as="geometry" />
        </mxCell>
        <mxCell id="7OVz4w7n9kzEPWy-4BBC-9" value="6" style="rounded=1;whiteSpace=wrap;html=1;fillColor=#007CBD;strokeColor=none;fontColor=#FFFFFF;fontStyle=1;fontSize=22;labelBackgroundColor=none;" parent="1" vertex="1">
          <mxGeometry x="1170" y="651" width="40" height="38" as="geometry" />
        </mxCell>
        <mxCell id="7OVz4w7n9kzEPWy-4BBC-10" value="7" style="rounded=1;whiteSpace=wrap;html=1;fillColor=#007CBD;strokeColor=none;fontColor=#FFFFFF;fontStyle=1;fontSize=22;labelBackgroundColor=none;" parent="1" vertex="1">
          <mxGeometry x="1169.5" y="767" width="40" height="38" as="geometry" />
        </mxCell>
        <mxCell id="7OVz4w7n9kzEPWy-4BBC-11" value="8" style="rounded=1;whiteSpace=wrap;html=1;fillColor=#007CBD;strokeColor=none;fontColor=#FFFFFF;fontStyle=1;fontSize=22;labelBackgroundColor=none;" parent="1" vertex="1">
          <mxGeometry x="1170" y="885" width="40" height="38" as="geometry" />
        </mxCell>
        <mxCell id="7OVz4w7n9kzEPWy-4BBC-12" value="9" style="rounded=1;whiteSpace=wrap;html=1;fillColor=#007CBD;strokeColor=none;fontColor=#FFFFFF;fontStyle=1;fontSize=22;labelBackgroundColor=none;" parent="1" vertex="1">
          <mxGeometry x="1168" y="1005" width="40" height="38" as="geometry" />
        </mxCell>
        <mxCell id="7OVz4w7n9kzEPWy-4BBC-13" value="&lt;span&gt;Lorem ipsum dolor sit amet, consectetur adipiscing elit, sed do eiusmod tempor incididunt ut labore et dolore magna aliqua. Ut enim ad minim veniam, quis nostrud exercitation ullamco laboris nisi ut aliquip ex ea commodo consequat. Duis aute irure dolor in reprehenderit in voluptate velit esse cillum dolore eu fugiat nulla pariatur. Excepteur sint occaecat cupidatat non proident, sunt in culpa qui officia deserunt mollit anim id est laborum.&lt;/span&gt;&lt;br&gt;" style="text;html=1;align=left;verticalAlign=top;spacingTop=-4;fontSize=14;labelBackgroundColor=none;whiteSpace=wrap;" parent="1" vertex="1">
          <mxGeometry x="1220.5" y="62.5" width="449" height="118" as="geometry" />
        </mxCell>
        <mxCell id="7OVz4w7n9kzEPWy-4BBC-14" value="&lt;span&gt;Lorem ipsum dolor sit amet, consectetur adipiscing elit, sed do eiusmod tempor incididunt ut labore et dolore magna aliqua. Ut enim ad minim veniam, quis nostrud exercitation ullamco laboris nisi ut aliquip ex ea commodo consequat. Duis aute irure dolor in reprehenderit in voluptate velit esse cillum dolore eu fugiat nulla pariatur. Excepteur sint occaecat cupidatat non proident, sunt in culpa qui officia deserunt mollit anim id est laborum.&lt;/span&gt;&lt;br&gt;" style="text;html=1;align=left;verticalAlign=top;spacingTop=-4;fontSize=14;labelBackgroundColor=none;whiteSpace=wrap;" parent="1" vertex="1">
          <mxGeometry x="1219.5" y="185.5" width="450" height="115" as="geometry" />
        </mxCell>
        <mxCell id="7OVz4w7n9kzEPWy-4BBC-15" value="&lt;span&gt;Lorem ipsum dolor sit amet, consectetur adipiscing elit, sed do eiusmod tempor incididunt ut labore et dolore magna aliqua. Ut enim ad minim veniam, quis nostrud exercitation ullamco laboris nisi ut aliquip ex ea commodo consequat. Duis aute irure dolor in reprehenderit in voluptate velit esse cillum dolore eu fugiat nulla pariatur. Excepteur sint occaecat cupidatat non proident, sunt in culpa qui officia deserunt mollit anim id est laborum.&lt;/span&gt;&lt;br&gt;" style="text;html=1;align=left;verticalAlign=top;spacingTop=-4;fontSize=14;labelBackgroundColor=none;whiteSpace=wrap;" parent="1" vertex="1">
          <mxGeometry x="1219.5" y="303.5" width="450" height="117" as="geometry" />
        </mxCell>
        <mxCell id="7OVz4w7n9kzEPWy-4BBC-16" value="&lt;span&gt;Lorem ipsum dolor sit amet, consectetur adipiscing elit, sed do eiusmod tempor incididunt ut labore et dolore magna aliqua. Ut enim ad minim veniam, quis nostrud exercitation ullamco laboris nisi ut aliquip ex ea commodo consequat. Duis aute irure dolor in reprehenderit in voluptate velit esse cillum dolore eu fugiat nulla pariatur. Excepteur sint occaecat cupidatat non proident, sunt in culpa qui officia deserunt mollit anim id est laborum.&lt;/span&gt;&lt;br&gt;" style="text;html=1;align=left;verticalAlign=top;spacingTop=-4;fontSize=14;labelBackgroundColor=none;whiteSpace=wrap;" parent="1" vertex="1">
          <mxGeometry x="1219.5" y="419.5" width="450" height="121" as="geometry" />
        </mxCell>
        <mxCell id="7OVz4w7n9kzEPWy-4BBC-17" value="&lt;span&gt;Lorem ipsum dolor sit amet, consectetur adipiscing elit, sed do eiusmod tempor incididunt ut labore et dolore magna aliqua. Ut enim ad minim veniam, quis nostrud exercitation ullamco laboris nisi ut aliquip ex ea commodo consequat. Duis aute irure dolor in reprehenderit in voluptate velit esse cillum dolore eu fugiat nulla pariatur. Excepteur sint occaecat cupidatat non proident, sunt in culpa qui officia deserunt mollit anim id est laborum.&lt;/span&gt;&lt;br&gt;" style="text;html=1;align=left;verticalAlign=top;spacingTop=-4;fontSize=14;labelBackgroundColor=none;whiteSpace=wrap;" parent="1" vertex="1">
          <mxGeometry x="1220.5" y="536.5" width="449" height="114" as="geometry" />
        </mxCell>
        <mxCell id="7OVz4w7n9kzEPWy-4BBC-18" value="&lt;span&gt;Lorem ipsum dolor sit amet, consectetur adipiscing elit, sed do eiusmod tempor incididunt ut labore et dolore magna aliqua. Ut enim ad minim veniam, quis nostrud exercitation ullamco laboris nisi ut aliquip ex ea commodo consequat. Duis aute irure dolor in reprehenderit in voluptate velit esse cillum dolore eu fugiat nulla pariatur. Excepteur sint occaecat cupidatat non proident, sunt in culpa qui officia deserunt mollit anim id est laborum.&lt;/span&gt;&lt;br&gt;" style="text;html=1;align=left;verticalAlign=top;spacingTop=-4;fontSize=14;labelBackgroundColor=none;whiteSpace=wrap;" parent="1" vertex="1">
          <mxGeometry x="1220.5" y="652.5" width="450" height="118" as="geometry" />
        </mxCell>
        <mxCell id="7OVz4w7n9kzEPWy-4BBC-19" value="&lt;span&gt;Lorem ipsum dolor sit amet, consectetur adipiscing elit, sed do eiusmod tempor incididunt ut labore et dolore magna aliqua. Ut enim ad minim veniam, quis nostrud exercitation ullamco laboris nisi ut aliquip ex ea commodo consequat. Duis aute irure dolor in reprehenderit in voluptate velit esse cillum dolore eu fugiat nulla pariatur. Excepteur sint occaecat cupidatat non proident, sunt in culpa qui officia deserunt mollit anim id est laborum.&lt;/span&gt;&lt;br&gt;" style="text;html=1;align=left;verticalAlign=top;spacingTop=-4;fontSize=14;labelBackgroundColor=none;whiteSpace=wrap;" parent="1" vertex="1">
          <mxGeometry x="1220.5" y="767.5" width="449" height="113" as="geometry" />
        </mxCell>
        <mxCell id="7OVz4w7n9kzEPWy-4BBC-20" value="&lt;span&gt;Lorem ipsum dolor sit amet, consectetur adipiscing elit, sed do eiusmod tempor incididunt ut labore et dolore magna aliqua. Ut enim ad minim veniam, quis nostrud exercitation ullamco laboris nisi ut aliquip ex ea commodo consequat. Duis aute irure dolor in reprehenderit in voluptate velit esse cillum dolore eu fugiat nulla pariatur. Excepteur sint occaecat cupidatat non proident, sunt in culpa qui officia deserunt mollit anim id est laborum.&lt;/span&gt;&lt;br&gt;" style="text;html=1;align=left;verticalAlign=top;spacingTop=-4;fontSize=14;labelBackgroundColor=none;whiteSpace=wrap;" parent="1" vertex="1">
          <mxGeometry x="1220.5" y="886.5" width="449" height="124" as="geometry" />
        </mxCell>
        <mxCell id="7OVz4w7n9kzEPWy-4BBC-21" value="&lt;span&gt;Lorem ipsum dolor sit amet, consectetur adipiscing elit, sed do eiusmod tempor incididunt ut labore et dolore magna aliqua. Ut enim ad minim veniam, quis nostrud exercitation ullamco laboris nisi ut aliquip ex ea commodo consequat. Duis aute irure dolor in reprehenderit in voluptate velit esse cillum dolore eu fugiat nulla pariatur. Excepteur sint occaecat cupidatat non proident, sunt in culpa qui officia deserunt mollit anim id est laborum.&lt;/span&gt;&lt;br&gt;" style="text;html=1;align=left;verticalAlign=top;spacingTop=-4;fontSize=14;labelBackgroundColor=none;whiteSpace=wrap;" parent="1" vertex="1">
          <mxGeometry x="1220.5" y="1005.5" width="449" height="115" as="geometry" />
        </mxCell>
        <mxCell id="7OVz4w7n9kzEPWy-4BBC-22" value="10" style="rounded=1;whiteSpace=wrap;html=1;fillColor=#007CBD;strokeColor=none;fontColor=#FFFFFF;fontStyle=1;fontSize=22;labelBackgroundColor=none;" parent="1" vertex="1">
          <mxGeometry x="1169" y="1130.5" width="40" height="38" as="geometry" />
        </mxCell>
        <mxCell id="7OVz4w7n9kzEPWy-4BBC-23" value="&lt;span&gt;Lorem ipsum dolor sit amet, consectetur adipiscing elit, sed do eiusmod tempor incididunt ut labore et dolore magna aliqua. Ut enim ad minim veniam, quis nostrud exercitation ullamco laboris nisi ut aliquip ex ea commodo consequat. Duis aute irure dolor in reprehenderit in voluptate velit esse cillum dolore eu fugiat nulla pariatur. Excepteur sint occaecat cupidatat non proident, sunt in culpa qui officia deserunt mollit anim id est laborum.&lt;/span&gt;&lt;br&gt;" style="text;html=1;align=left;verticalAlign=top;spacingTop=-4;fontSize=14;labelBackgroundColor=none;whiteSpace=wrap;" parent="1" vertex="1">
          <mxGeometry x="1221.5" y="1131" width="449" height="115" as="geometry" />
        </mxCell>
      </root>
    </mxGraphModel>
  </diagram>
  <diagram id="PTf8mcg9lokqHD-cuwc8" name="报价系统原型">
    <mxGraphModel dx="885" dy="1631" grid="1" gridSize="10" guides="1" tooltips="1" connect="1" arrows="1" fold="1" page="1" pageScale="1" pageWidth="850" pageHeight="1100" math="0" shadow="0">
      <root>
        <mxCell id="OgfgvEwyXAsVBogaNs4t-0" />
        <mxCell id="OgfgvEwyXAsVBogaNs4t-1" parent="OgfgvEwyXAsVBogaNs4t-0" />
        <mxCell id="OgfgvEwyXAsVBogaNs4t-2" value="" style="rounded=0;whiteSpace=wrap;html=1;fillColor=#f5f5f5;strokeColor=#666666;fontColor=#333333;" parent="OgfgvEwyXAsVBogaNs4t-1" vertex="1">
          <mxGeometry x="40" y="40" width="280" height="480" as="geometry" />
        </mxCell>
        <mxCell id="Rg6mJYVWADQ_Nb_XWCnl-1" value="图标" style="rounded=0;whiteSpace=wrap;html=1;fillColor=#fff2cc;strokeColor=#d6b656;" parent="OgfgvEwyXAsVBogaNs4t-1" vertex="1">
          <mxGeometry x="120" y="120" width="120" height="80" as="geometry" />
        </mxCell>
        <mxCell id="Rg6mJYVWADQ_Nb_XWCnl-2" value="Suprice!" style="rounded=0;whiteSpace=wrap;html=1;strokeColor=none;fontSize=18;fillColor=none;" parent="OgfgvEwyXAsVBogaNs4t-1" vertex="1">
          <mxGeometry x="120" y="190" width="120" height="60" as="geometry" />
        </mxCell>
        <mxCell id="Rg6mJYVWADQ_Nb_XWCnl-3" value="Username" style="rounded=0;whiteSpace=wrap;html=1;fillColor=none;fontSize=15;strokeColor=none;fontColor=#808080;" parent="OgfgvEwyXAsVBogaNs4t-1" vertex="1">
          <mxGeometry x="70" y="310" width="90" height="30" as="geometry" />
        </mxCell>
        <mxCell id="Rg6mJYVWADQ_Nb_XWCnl-4" value="" style="endArrow=none;html=1;fontSize=15;fontColor=#808080;" parent="OgfgvEwyXAsVBogaNs4t-1" edge="1">
          <mxGeometry width="50" height="50" relative="1" as="geometry">
            <mxPoint x="80" y="350" as="sourcePoint" />
            <mxPoint x="280" y="350" as="targetPoint" />
          </mxGeometry>
        </mxCell>
        <mxCell id="Rg6mJYVWADQ_Nb_XWCnl-5" value="Password" style="rounded=0;whiteSpace=wrap;html=1;fillColor=none;fontSize=15;strokeColor=none;fontColor=#808080;" parent="OgfgvEwyXAsVBogaNs4t-1" vertex="1">
          <mxGeometry x="70" y="370" width="90" height="30" as="geometry" />
        </mxCell>
        <mxCell id="Rg6mJYVWADQ_Nb_XWCnl-7" value="" style="endArrow=none;html=1;fontSize=15;fontColor=#808080;" parent="OgfgvEwyXAsVBogaNs4t-1" edge="1">
          <mxGeometry width="50" height="50" relative="1" as="geometry">
            <mxPoint x="80" y="420" as="sourcePoint" />
            <mxPoint x="280" y="420" as="targetPoint" />
          </mxGeometry>
        </mxCell>
        <mxCell id="Rg6mJYVWADQ_Nb_XWCnl-8" value="NEXT" style="rounded=1;whiteSpace=wrap;html=1;fontSize=15;labelBackgroundColor=none;fillColor=#B3B3B3;shadow=0;strokeColor=none;" parent="OgfgvEwyXAsVBogaNs4t-1" vertex="1">
          <mxGeometry x="220" y="460" width="80" height="30" as="geometry" />
        </mxCell>
        <mxCell id="Rg6mJYVWADQ_Nb_XWCnl-9" value="CANCLE" style="rounded=1;whiteSpace=wrap;html=1;fontSize=15;labelBackgroundColor=none;shadow=0;strokeColor=none;fillColor=none;" parent="OgfgvEwyXAsVBogaNs4t-1" vertex="1">
          <mxGeometry x="130" y="460" width="80" height="30" as="geometry" />
        </mxCell>
        <mxCell id="Rg6mJYVWADQ_Nb_XWCnl-10" value="" style="rounded=0;whiteSpace=wrap;html=1;fillColor=#f5f5f5;strokeColor=#666666;fontColor=#333333;" parent="OgfgvEwyXAsVBogaNs4t-1" vertex="1">
          <mxGeometry x="400" y="40" width="280" height="480" as="geometry" />
        </mxCell>
        <mxCell id="Rg6mJYVWADQ_Nb_XWCnl-11" value="" style="rounded=0;whiteSpace=wrap;html=1;shadow=0;labelBackgroundColor=none;fillColor=#ffe6cc;fontSize=15;strokeColor=#d79b00;" parent="OgfgvEwyXAsVBogaNs4t-1" vertex="1">
          <mxGeometry x="400" y="40" width="280" height="40" as="geometry" />
        </mxCell>
        <mxCell id="Rg6mJYVWADQ_Nb_XWCnl-12" value="draw" style="rounded=0;whiteSpace=wrap;html=1;shadow=0;labelBackgroundColor=none;fillColor=#647687;fontSize=15;fontColor=#ffffff;strokeColor=#314354;" parent="OgfgvEwyXAsVBogaNs4t-1" vertex="1">
          <mxGeometry x="410" y="45" width="30" height="30" as="geometry" />
        </mxCell>
        <mxCell id="Rg6mJYVWADQ_Nb_XWCnl-13" value="" style="rounded=0;whiteSpace=wrap;html=1;shadow=0;labelBackgroundColor=none;fillColor=#647687;fontSize=15;fontColor=#ffffff;strokeColor=#314354;" parent="OgfgvEwyXAsVBogaNs4t-1" vertex="1">
          <mxGeometry x="525" y="45" width="30" height="30" as="geometry" />
        </mxCell>
        <mxCell id="Rg6mJYVWADQ_Nb_XWCnl-14" value="" style="rounded=0;whiteSpace=wrap;html=1;shadow=0;labelBackgroundColor=none;fillColor=#647687;fontSize=15;fontColor=#ffffff;strokeColor=#314354;" parent="OgfgvEwyXAsVBogaNs4t-1" vertex="1">
          <mxGeometry x="640" y="45" width="30" height="30" as="geometry" />
        </mxCell>
        <mxCell id="Rg6mJYVWADQ_Nb_XWCnl-15" value="➕" style="ellipse;whiteSpace=wrap;html=1;aspect=fixed;shadow=0;labelBackgroundColor=none;fillColor=#ffe6cc;fontSize=15;strokeColor=#d79b00;" parent="OgfgvEwyXAsVBogaNs4t-1" vertex="1">
          <mxGeometry x="620" y="460" width="50" height="50" as="geometry" />
        </mxCell>
        <mxCell id="Rg6mJYVWADQ_Nb_XWCnl-16" value="" style="rounded=1;whiteSpace=wrap;html=1;shadow=0;labelBackgroundColor=none;fillColor=none;gradientColor=none;fontSize=15;fontColor=#000000;" parent="OgfgvEwyXAsVBogaNs4t-1" vertex="1">
          <mxGeometry x="410" y="90" width="260" height="60" as="geometry" />
        </mxCell>
        <mxCell id="Rg6mJYVWADQ_Nb_XWCnl-17" value="ICON" style="ellipse;whiteSpace=wrap;html=1;aspect=fixed;shadow=0;labelBackgroundColor=none;fillColor=none;gradientColor=none;fontSize=15;fontColor=#000000;" parent="OgfgvEwyXAsVBogaNs4t-1" vertex="1">
          <mxGeometry x="420" y="95" width="50" height="50" as="geometry" />
        </mxCell>
        <mxCell id="Rg6mJYVWADQ_Nb_XWCnl-18" value="订单标题" style="rounded=0;whiteSpace=wrap;html=1;shadow=0;labelBackgroundColor=none;fillColor=none;gradientColor=none;fontSize=15;fontColor=#000000;align=left;strokeColor=none;" parent="OgfgvEwyXAsVBogaNs4t-1" vertex="1">
          <mxGeometry x="490" y="95" width="120" height="30" as="geometry" />
        </mxCell>
        <mxCell id="Rg6mJYVWADQ_Nb_XWCnl-19" value="螺丝" style="rounded=1;whiteSpace=wrap;html=1;shadow=0;labelBackgroundColor=none;gradientColor=none;fontSize=12;fontColor=#000000;align=center;fillColor=#CCCCCC;strokeColor=none;" parent="OgfgvEwyXAsVBogaNs4t-1" vertex="1">
          <mxGeometry x="490" y="125" width="40" height="20" as="geometry" />
        </mxCell>
        <mxCell id="Rg6mJYVWADQ_Nb_XWCnl-20" value="钢筋" style="rounded=1;whiteSpace=wrap;html=1;shadow=0;labelBackgroundColor=none;gradientColor=none;fontSize=12;fontColor=#000000;align=center;fillColor=#CCCCCC;strokeColor=none;" parent="OgfgvEwyXAsVBogaNs4t-1" vertex="1">
          <mxGeometry x="540" y="125" width="40" height="20" as="geometry" />
        </mxCell>
        <mxCell id="Rg6mJYVWADQ_Nb_XWCnl-21" value="混凝土" style="rounded=1;whiteSpace=wrap;html=1;shadow=0;labelBackgroundColor=none;gradientColor=none;fontSize=12;fontColor=#000000;align=center;fillColor=#CCCCCC;strokeColor=none;" parent="OgfgvEwyXAsVBogaNs4t-1" vertex="1">
          <mxGeometry x="590" y="125" width="40" height="20" as="geometry" />
        </mxCell>
        <mxCell id="Rg6mJYVWADQ_Nb_XWCnl-24" value="" style="rounded=1;whiteSpace=wrap;html=1;shadow=0;labelBackgroundColor=none;fillColor=none;gradientColor=none;fontSize=15;fontColor=#000000;" parent="OgfgvEwyXAsVBogaNs4t-1" vertex="1">
          <mxGeometry x="410" y="170" width="260" height="60" as="geometry" />
        </mxCell>
        <mxCell id="Rg6mJYVWADQ_Nb_XWCnl-25" value="ICON" style="ellipse;whiteSpace=wrap;html=1;aspect=fixed;shadow=0;labelBackgroundColor=none;fillColor=none;gradientColor=none;fontSize=15;fontColor=#000000;" parent="OgfgvEwyXAsVBogaNs4t-1" vertex="1">
          <mxGeometry x="420" y="175" width="50" height="50" as="geometry" />
        </mxCell>
        <mxCell id="Rg6mJYVWADQ_Nb_XWCnl-26" value="订单标题" style="rounded=0;whiteSpace=wrap;html=1;shadow=0;labelBackgroundColor=none;fillColor=none;gradientColor=none;fontSize=15;fontColor=#000000;align=left;strokeColor=none;" parent="OgfgvEwyXAsVBogaNs4t-1" vertex="1">
          <mxGeometry x="490" y="175" width="120" height="30" as="geometry" />
        </mxCell>
        <mxCell id="Rg6mJYVWADQ_Nb_XWCnl-27" value="螺丝" style="rounded=1;whiteSpace=wrap;html=1;shadow=0;labelBackgroundColor=none;gradientColor=none;fontSize=12;fontColor=#000000;align=center;fillColor=#CCCCCC;strokeColor=none;" parent="OgfgvEwyXAsVBogaNs4t-1" vertex="1">
          <mxGeometry x="490" y="205" width="40" height="20" as="geometry" />
        </mxCell>
        <mxCell id="Rg6mJYVWADQ_Nb_XWCnl-28" value="钢筋" style="rounded=1;whiteSpace=wrap;html=1;shadow=0;labelBackgroundColor=none;gradientColor=none;fontSize=12;fontColor=#000000;align=center;fillColor=#CCCCCC;strokeColor=none;" parent="OgfgvEwyXAsVBogaNs4t-1" vertex="1">
          <mxGeometry x="540" y="205" width="40" height="20" as="geometry" />
        </mxCell>
        <mxCell id="Rg6mJYVWADQ_Nb_XWCnl-29" value="混凝土" style="rounded=1;whiteSpace=wrap;html=1;shadow=0;labelBackgroundColor=none;gradientColor=none;fontSize=12;fontColor=#000000;align=center;fillColor=#CCCCCC;strokeColor=none;" parent="OgfgvEwyXAsVBogaNs4t-1" vertex="1">
          <mxGeometry x="590" y="205" width="40" height="20" as="geometry" />
        </mxCell>
        <mxCell id="Rg6mJYVWADQ_Nb_XWCnl-30" value="" style="rounded=1;whiteSpace=wrap;html=1;shadow=0;labelBackgroundColor=none;fillColor=none;gradientColor=none;fontSize=15;fontColor=#000000;" parent="OgfgvEwyXAsVBogaNs4t-1" vertex="1">
          <mxGeometry x="410" y="250" width="260" height="60" as="geometry" />
        </mxCell>
        <mxCell id="Rg6mJYVWADQ_Nb_XWCnl-31" value="ICON" style="ellipse;whiteSpace=wrap;html=1;aspect=fixed;shadow=0;labelBackgroundColor=none;fillColor=none;gradientColor=none;fontSize=15;fontColor=#000000;" parent="OgfgvEwyXAsVBogaNs4t-1" vertex="1">
          <mxGeometry x="420" y="255" width="50" height="50" as="geometry" />
        </mxCell>
        <mxCell id="Rg6mJYVWADQ_Nb_XWCnl-32" value="订单标题" style="rounded=0;whiteSpace=wrap;html=1;shadow=0;labelBackgroundColor=none;fillColor=none;gradientColor=none;fontSize=15;fontColor=#000000;align=left;strokeColor=none;" parent="OgfgvEwyXAsVBogaNs4t-1" vertex="1">
          <mxGeometry x="490" y="255" width="120" height="30" as="geometry" />
        </mxCell>
        <mxCell id="Rg6mJYVWADQ_Nb_XWCnl-33" value="螺丝" style="rounded=1;whiteSpace=wrap;html=1;shadow=0;labelBackgroundColor=none;gradientColor=none;fontSize=12;fontColor=#000000;align=center;fillColor=#CCCCCC;strokeColor=none;" parent="OgfgvEwyXAsVBogaNs4t-1" vertex="1">
          <mxGeometry x="490" y="285" width="40" height="20" as="geometry" />
        </mxCell>
        <mxCell id="Rg6mJYVWADQ_Nb_XWCnl-34" value="钢筋" style="rounded=1;whiteSpace=wrap;html=1;shadow=0;labelBackgroundColor=none;gradientColor=none;fontSize=12;fontColor=#000000;align=center;fillColor=#CCCCCC;strokeColor=none;" parent="OgfgvEwyXAsVBogaNs4t-1" vertex="1">
          <mxGeometry x="540" y="285" width="40" height="20" as="geometry" />
        </mxCell>
        <mxCell id="Rg6mJYVWADQ_Nb_XWCnl-35" value="混凝土" style="rounded=1;whiteSpace=wrap;html=1;shadow=0;labelBackgroundColor=none;gradientColor=none;fontSize=12;fontColor=#000000;align=center;fillColor=#CCCCCC;strokeColor=none;" parent="OgfgvEwyXAsVBogaNs4t-1" vertex="1">
          <mxGeometry x="590" y="285" width="40" height="20" as="geometry" />
        </mxCell>
        <mxCell id="dkZKIKv8uk8h5BtjJryC-0" value="1" style="rounded=1;whiteSpace=wrap;html=1;fillColor=#007CBD;strokeColor=none;fontColor=#FFFFFF;fontStyle=1;fontSize=22;" parent="OgfgvEwyXAsVBogaNs4t-1" vertex="1">
          <mxGeometry x="160" y="550" width="40" height="38" as="geometry" />
        </mxCell>
        <mxCell id="dkZKIKv8uk8h5BtjJryC-1" value="2" style="rounded=1;whiteSpace=wrap;html=1;fillColor=#007CBD;strokeColor=none;fontColor=#FFFFFF;fontStyle=1;fontSize=22;" parent="OgfgvEwyXAsVBogaNs4t-1" vertex="1">
          <mxGeometry x="520" y="550" width="40" height="38" as="geometry" />
        </mxCell>
        <mxCell id="MYtAHp2R5bHKfyVb3JPF-0" value="" style="rounded=0;whiteSpace=wrap;html=1;fillColor=#f5f5f5;strokeColor=#666666;fontColor=#333333;" parent="OgfgvEwyXAsVBogaNs4t-1" vertex="1">
          <mxGeometry x="760" y="40" width="280" height="480" as="geometry" />
        </mxCell>
        <mxCell id="MYtAHp2R5bHKfyVb3JPF-1" value="" style="rounded=0;whiteSpace=wrap;html=1;shadow=0;labelBackgroundColor=none;fillColor=#ffe6cc;fontSize=15;strokeColor=#d79b00;" parent="OgfgvEwyXAsVBogaNs4t-1" vertex="1">
          <mxGeometry x="760" y="40" width="280" height="160" as="geometry" />
        </mxCell>
        <mxCell id="MYtAHp2R5bHKfyVb3JPF-2" value="" style="ellipse;whiteSpace=wrap;html=1;aspect=fixed;shadow=0;labelBackgroundColor=none;fillColor=#dae8fc;fontSize=15;strokeColor=#6c8ebf;" parent="OgfgvEwyXAsVBogaNs4t-1" vertex="1">
          <mxGeometry x="980" y="175" width="50" height="50" as="geometry" />
        </mxCell>
        <mxCell id="MYtAHp2R5bHKfyVb3JPF-4" value="请选择想要报价的产品" style="rounded=0;whiteSpace=wrap;html=1;shadow=0;labelBackgroundColor=none;fillColor=none;gradientColor=none;fontSize=12;fontColor=#000000;align=center;strokeColor=none;" parent="OgfgvEwyXAsVBogaNs4t-1" vertex="1">
          <mxGeometry x="835" y="195" width="130" height="30" as="geometry" />
        </mxCell>
        <mxCell id="MYtAHp2R5bHKfyVb3JPF-5" value="" style="rounded=0;whiteSpace=wrap;html=1;shadow=0;labelBackgroundColor=none;gradientColor=none;fontSize=12;fontColor=#000000;align=center;fillColor=#E6E6E6;" parent="OgfgvEwyXAsVBogaNs4t-1" vertex="1">
          <mxGeometry x="760" y="240" width="280" height="40" as="geometry" />
        </mxCell>
        <mxCell id="MYtAHp2R5bHKfyVb3JPF-6" value="" style="rounded=0;whiteSpace=wrap;html=1;shadow=0;labelBackgroundColor=none;fillColor=#CCCCCC;gradientColor=none;fontSize=12;fontColor=#000000;align=center;" parent="OgfgvEwyXAsVBogaNs4t-1" vertex="1">
          <mxGeometry x="760" y="280" width="280" height="40" as="geometry" />
        </mxCell>
        <mxCell id="MYtAHp2R5bHKfyVb3JPF-7" value="" style="rounded=0;whiteSpace=wrap;html=1;shadow=0;labelBackgroundColor=none;gradientColor=none;fontSize=12;fontColor=#000000;align=center;fillColor=#E6E6E6;" parent="OgfgvEwyXAsVBogaNs4t-1" vertex="1">
          <mxGeometry x="760" y="320" width="280" height="40" as="geometry" />
        </mxCell>
        <mxCell id="MYtAHp2R5bHKfyVb3JPF-8" value="" style="rounded=0;whiteSpace=wrap;html=1;shadow=0;labelBackgroundColor=none;gradientColor=none;fontSize=12;fontColor=#000000;align=center;fillColor=#E6E6E6;" parent="OgfgvEwyXAsVBogaNs4t-1" vertex="1">
          <mxGeometry x="760" y="360" width="280" height="40" as="geometry" />
        </mxCell>
        <mxCell id="MYtAHp2R5bHKfyVb3JPF-10" value="我要报价" style="rounded=1;whiteSpace=wrap;html=1;fontSize=15;labelBackgroundColor=none;shadow=0;strokeColor=none;fillColor=#FF0000;fontColor=#FFFFFF;" parent="OgfgvEwyXAsVBogaNs4t-1" vertex="1">
          <mxGeometry x="860" y="490" width="80" height="30" as="geometry" />
        </mxCell>
        <mxCell id="MYtAHp2R5bHKfyVb3JPF-11" value="已有100人报价" style="rounded=0;whiteSpace=wrap;html=1;fillColor=none;fontSize=12;strokeColor=none;fontColor=#808080;" parent="OgfgvEwyXAsVBogaNs4t-1" vertex="1">
          <mxGeometry x="770" y="450" width="110" height="30" as="geometry" />
        </mxCell>
        <mxCell id="MYtAHp2R5bHKfyVb3JPF-12" value="" style="ellipse;whiteSpace=wrap;html=1;aspect=fixed;shadow=0;labelBackgroundColor=none;fillColor=#dae8fc;fontSize=15;strokeColor=#6c8ebf;" parent="OgfgvEwyXAsVBogaNs4t-1" vertex="1">
          <mxGeometry x="1000" y="420" width="30" height="30" as="geometry" />
        </mxCell>
        <mxCell id="MYtAHp2R5bHKfyVb3JPF-13" value="" style="ellipse;whiteSpace=wrap;html=1;aspect=fixed;shadow=0;labelBackgroundColor=none;fillColor=#dae8fc;fontSize=15;strokeColor=#6c8ebf;" parent="OgfgvEwyXAsVBogaNs4t-1" vertex="1">
          <mxGeometry x="980" y="420" width="30" height="30" as="geometry" />
        </mxCell>
        <mxCell id="MYtAHp2R5bHKfyVb3JPF-14" value="" style="ellipse;whiteSpace=wrap;html=1;aspect=fixed;shadow=0;labelBackgroundColor=none;fillColor=#dae8fc;fontSize=15;strokeColor=#6c8ebf;" parent="OgfgvEwyXAsVBogaNs4t-1" vertex="1">
          <mxGeometry x="960" y="420" width="30" height="30" as="geometry" />
        </mxCell>
        <mxCell id="MYtAHp2R5bHKfyVb3JPF-16" value="&lt;font color=&quot;#000000&quot;&gt;1&lt;/font&gt;" style="rounded=0;whiteSpace=wrap;html=1;shadow=0;labelBackgroundColor=none;gradientColor=none;fontSize=12;fontColor=#FFFFFF;align=center;fillColor=none;strokeWidth=1;strokeColor=none;" parent="OgfgvEwyXAsVBogaNs4t-1" vertex="1">
          <mxGeometry x="772.5" y="290" width="20" height="20" as="geometry" />
        </mxCell>
        <mxCell id="MYtAHp2R5bHKfyVb3JPF-19" value="名称" style="rounded=1;whiteSpace=wrap;html=1;fontSize=13;labelBackgroundColor=none;shadow=0;strokeColor=none;fillColor=none;" parent="OgfgvEwyXAsVBogaNs4t-1" vertex="1">
          <mxGeometry x="802.5" y="245" width="45" height="30" as="geometry" />
        </mxCell>
        <mxCell id="MYtAHp2R5bHKfyVb3JPF-20" value="规格" style="rounded=1;whiteSpace=wrap;html=1;fontSize=13;labelBackgroundColor=none;shadow=0;strokeColor=none;fillColor=none;" parent="OgfgvEwyXAsVBogaNs4t-1" vertex="1">
          <mxGeometry x="877.5" y="245" width="45" height="30" as="geometry" />
        </mxCell>
        <mxCell id="MYtAHp2R5bHKfyVb3JPF-21" value="数量" style="rounded=1;whiteSpace=wrap;html=1;fontSize=13;labelBackgroundColor=none;shadow=0;strokeColor=none;fillColor=none;" parent="OgfgvEwyXAsVBogaNs4t-1" vertex="1">
          <mxGeometry x="982.5" y="245" width="45" height="30" as="geometry" />
        </mxCell>
        <mxCell id="MYtAHp2R5bHKfyVb3JPF-22" value="螺丝" style="rounded=1;whiteSpace=wrap;html=1;fontSize=13;labelBackgroundColor=none;shadow=0;strokeColor=none;fillColor=none;" parent="OgfgvEwyXAsVBogaNs4t-1" vertex="1">
          <mxGeometry x="802.5" y="285" width="45" height="30" as="geometry" />
        </mxCell>
        <mxCell id="MYtAHp2R5bHKfyVb3JPF-23" value="CON0030-28 M56*4" style="rounded=1;whiteSpace=wrap;html=1;fontSize=13;labelBackgroundColor=none;shadow=0;strokeColor=none;fillColor=none;" parent="OgfgvEwyXAsVBogaNs4t-1" vertex="1">
          <mxGeometry x="847.5" y="285" width="122.5" height="30" as="geometry" />
        </mxCell>
        <mxCell id="MYtAHp2R5bHKfyVb3JPF-24" value="3" style="rounded=1;whiteSpace=wrap;html=1;fillColor=#007CBD;strokeColor=none;fontColor=#FFFFFF;fontStyle=1;fontSize=22;" parent="OgfgvEwyXAsVBogaNs4t-1" vertex="1">
          <mxGeometry x="880" y="550" width="40" height="38" as="geometry" />
        </mxCell>
        <mxCell id="MYtAHp2R5bHKfyVb3JPF-25" value="序号" style="rounded=1;whiteSpace=wrap;html=1;fontSize=13;labelBackgroundColor=none;shadow=0;strokeColor=none;fillColor=none;" parent="OgfgvEwyXAsVBogaNs4t-1" vertex="1">
          <mxGeometry x="760" y="245" width="45" height="30" as="geometry" />
        </mxCell>
        <mxCell id="MYtAHp2R5bHKfyVb3JPF-26" value="&lt;font color=&quot;#000000&quot; style=&quot;font-size: 14px&quot;&gt;20&lt;/font&gt;" style="rounded=0;whiteSpace=wrap;html=1;shadow=0;labelBackgroundColor=none;gradientColor=none;fontSize=14;fontColor=#FFFFFF;align=center;fillColor=none;strokeWidth=1;strokeColor=none;" parent="OgfgvEwyXAsVBogaNs4t-1" vertex="1">
          <mxGeometry x="990" y="290" width="40" height="20" as="geometry" />
        </mxCell>
        <mxCell id="MYtAHp2R5bHKfyVb3JPF-27" value="" style="rounded=0;whiteSpace=wrap;html=1;fillColor=#f5f5f5;strokeColor=#666666;fontColor=#333333;" parent="OgfgvEwyXAsVBogaNs4t-1" vertex="1">
          <mxGeometry x="1120" y="40" width="280" height="480" as="geometry" />
        </mxCell>
        <mxCell id="MYtAHp2R5bHKfyVb3JPF-28" value="4" style="rounded=1;whiteSpace=wrap;html=1;fillColor=#007CBD;strokeColor=none;fontColor=#FFFFFF;fontStyle=1;fontSize=22;" parent="OgfgvEwyXAsVBogaNs4t-1" vertex="1">
          <mxGeometry x="1240" y="550" width="40" height="38" as="geometry" />
        </mxCell>
        <mxCell id="MYtAHp2R5bHKfyVb3JPF-29" value="" style="rounded=0;whiteSpace=wrap;html=1;shadow=0;labelBackgroundColor=none;fillColor=#ffe6cc;fontSize=15;strokeColor=#d79b00;" parent="OgfgvEwyXAsVBogaNs4t-1" vertex="1">
          <mxGeometry x="1120" y="40" width="280" height="160" as="geometry" />
        </mxCell>
        <mxCell id="MYtAHp2R5bHKfyVb3JPF-30" value="" style="rounded=0;whiteSpace=wrap;html=1;shadow=0;labelBackgroundColor=none;fillColor=#CCCCCC;gradientColor=none;fontSize=12;fontColor=#000000;align=center;" parent="OgfgvEwyXAsVBogaNs4t-1" vertex="1">
          <mxGeometry x="1120" y="240" width="280" height="40" as="geometry" />
        </mxCell>
        <mxCell id="MYtAHp2R5bHKfyVb3JPF-31" value="" style="rounded=0;whiteSpace=wrap;html=1;shadow=0;labelBackgroundColor=none;gradientColor=none;fontSize=12;fontColor=#000000;align=center;fillColor=#E6E6E6;" parent="OgfgvEwyXAsVBogaNs4t-1" vertex="1">
          <mxGeometry x="1120" y="280" width="280" height="40" as="geometry" />
        </mxCell>
        <mxCell id="MYtAHp2R5bHKfyVb3JPF-32" value="" style="rounded=0;whiteSpace=wrap;html=1;shadow=0;labelBackgroundColor=none;gradientColor=none;fontSize=12;fontColor=#000000;align=center;fillColor=#E6E6E6;" parent="OgfgvEwyXAsVBogaNs4t-1" vertex="1">
          <mxGeometry x="1120" y="320" width="280" height="40" as="geometry" />
        </mxCell>
        <mxCell id="MYtAHp2R5bHKfyVb3JPF-33" value="提交" style="rounded=1;whiteSpace=wrap;html=1;fontSize=15;labelBackgroundColor=none;shadow=0;strokeColor=none;fontColor=#FFFFFF;fillColor=#FF3333;" parent="OgfgvEwyXAsVBogaNs4t-1" vertex="1">
          <mxGeometry x="1120" y="490" width="280" height="30" as="geometry" />
        </mxCell>
        <mxCell id="MYtAHp2R5bHKfyVb3JPF-34" value="总价：100.00������" style="rounded=0;whiteSpace=wrap;html=1;fillColor=#fff2cc;strokeColor=#d6b656;fontSize=16;" parent="OgfgvEwyXAsVBogaNs4t-1" vertex="1">
          <mxGeometry x="1200" y="60" width="120" height="60" as="geometry" />
        </mxCell>
        <mxCell id="MYtAHp2R5bHKfyVb3JPF-35" value="单价：20.00������" style="rounded=0;whiteSpace=wrap;html=1;fillColor=#f5f5f5;strokeColor=#666666;fontColor=#333333;" parent="OgfgvEwyXAsVBogaNs4t-1" vertex="1">
          <mxGeometry x="1200" y="145" width="120" height="40" as="geometry" />
        </mxCell>
        <mxCell id="MYtAHp2R5bHKfyVb3JPF-36" value="更新" style="ellipse;whiteSpace=wrap;html=1;aspect=fixed;shadow=0;labelBackgroundColor=none;fillColor=#dae8fc;fontSize=15;strokeColor=#6c8ebf;" parent="OgfgvEwyXAsVBogaNs4t-1" vertex="1">
          <mxGeometry x="1340" y="145" width="40" height="40" as="geometry" />
        </mxCell>
        <mxCell id="MYtAHp2R5bHKfyVb3JPF-37" value="" style="rounded=0;whiteSpace=wrap;html=1;fillColor=#ffe6cc;strokeColor=#d79b00;" parent="OgfgvEwyXAsVBogaNs4t-1" vertex="1">
          <mxGeometry x="1120" y="-520" width="280" height="480" as="geometry" />
        </mxCell>
        <mxCell id="MYtAHp2R5bHKfyVb3JPF-39" value="" style="rounded=1;whiteSpace=wrap;html=1;shadow=0;labelBackgroundColor=none;strokeWidth=1;fillColor=#f5f5f5;fontSize=16;align=center;strokeColor=#666666;fontColor=#333333;" parent="OgfgvEwyXAsVBogaNs4t-1" vertex="1">
          <mxGeometry x="1120" y="-520" width="280" height="160" as="geometry" />
        </mxCell>
        <mxCell id="MYtAHp2R5bHKfyVb3JPF-40" value="" style="ellipse;whiteSpace=wrap;html=1;aspect=fixed;shadow=0;labelBackgroundColor=none;fillColor=#dae8fc;fontSize=15;strokeColor=#6c8ebf;" parent="OgfgvEwyXAsVBogaNs4t-1" vertex="1">
          <mxGeometry x="1130" y="-510" width="45" height="45" as="geometry" />
        </mxCell>
        <mxCell id="MYtAHp2R5bHKfyVb3JPF-41" value="汇鑫金属" style="rounded=1;whiteSpace=wrap;html=1;fontSize=15;labelBackgroundColor=none;shadow=0;strokeColor=none;fillColor=none;fontColor=#3399FF;" parent="OgfgvEwyXAsVBogaNs4t-1" vertex="1">
          <mxGeometry x="1170" y="-509" width="80" height="30" as="geometry" />
        </mxCell>
        <mxCell id="MYtAHp2R5bHKfyVb3JPF-42" value="HUIXIN Titanium" style="rounded=1;whiteSpace=wrap;html=1;fontSize=12;labelBackgroundColor=none;shadow=0;strokeColor=none;fillColor=none;fontColor=#B3B3B3;" parent="OgfgvEwyXAsVBogaNs4t-1" vertex="1">
          <mxGeometry x="1165" y="-490" width="115" height="30" as="geometry" />
        </mxCell>
        <mxCell id="MYtAHp2R5bHKfyVb3JPF-43" value="毛鹏飞" style="rounded=0;whiteSpace=wrap;html=1;shadow=0;labelBackgroundColor=none;fillColor=none;gradientColor=none;fontSize=18;fontColor=#000000;align=center;strokeColor=none;" parent="OgfgvEwyXAsVBogaNs4t-1" vertex="1">
          <mxGeometry x="1150" y="-420" width="70" height="30" as="geometry" />
        </mxCell>
        <mxCell id="MYtAHp2R5bHKfyVb3JPF-44" value="联合创始人" style="rounded=0;whiteSpace=wrap;html=1;shadow=0;labelBackgroundColor=none;fillColor=none;gradientColor=none;fontSize=14;fontColor=#000000;align=center;strokeColor=none;" parent="OgfgvEwyXAsVBogaNs4t-1" vertex="1">
          <mxGeometry x="1140" y="-400" width="90" height="30" as="geometry" />
        </mxCell>
        <mxCell id="MYtAHp2R5bHKfyVb3JPF-45" value="电话：029-8888 8888" style="rounded=1;whiteSpace=wrap;html=1;fontSize=12;labelBackgroundColor=none;shadow=0;strokeColor=none;fillColor=none;align=left;" parent="OgfgvEwyXAsVBogaNs4t-1" vertex="1">
          <mxGeometry x="1250" y="-430" width="140" height="20" as="geometry" />
        </mxCell>
        <mxCell id="MYtAHp2R5bHKfyVb3JPF-46" value="手机：188-8888-9999" style="rounded=1;whiteSpace=wrap;html=1;fontSize=12;labelBackgroundColor=none;shadow=0;strokeColor=none;fillColor=none;align=left;" parent="OgfgvEwyXAsVBogaNs4t-1" vertex="1">
          <mxGeometry x="1250" y="-410" width="140" height="20" as="geometry" />
        </mxCell>
        <mxCell id="MYtAHp2R5bHKfyVb3JPF-47" value="邮箱：pengfei@huixin.cn" style="rounded=1;whiteSpace=wrap;html=1;fontSize=12;labelBackgroundColor=none;shadow=0;strokeColor=none;fillColor=none;align=left;" parent="OgfgvEwyXAsVBogaNs4t-1" vertex="1">
          <mxGeometry x="1250" y="-390" width="140" height="20" as="geometry" />
        </mxCell>
        <mxCell id="MYtAHp2R5bHKfyVb3JPF-51" value="地址：宝鸡市" style="rounded=1;whiteSpace=wrap;html=1;fontSize=12;labelBackgroundColor=none;shadow=0;strokeColor=none;fillColor=none;align=left;" parent="OgfgvEwyXAsVBogaNs4t-1" vertex="1">
          <mxGeometry x="1250" y="-461" width="140" height="20" as="geometry" />
        </mxCell>
        <mxCell id="MYtAHp2R5bHKfyVb3JPF-52" value="5" style="rounded=1;whiteSpace=wrap;html=1;fillColor=#007CBD;strokeColor=none;fontColor=#FFFFFF;fontStyle=1;fontSize=22;" parent="OgfgvEwyXAsVBogaNs4t-1" vertex="1">
          <mxGeometry x="140" y="-20" width="40" height="38" as="geometry" />
        </mxCell>
        <mxCell id="MYtAHp2R5bHKfyVb3JPF-53" value="" style="rounded=0;whiteSpace=wrap;html=1;fillColor=#f5f5f5;strokeColor=#666666;fontColor=#333333;" parent="OgfgvEwyXAsVBogaNs4t-1" vertex="1">
          <mxGeometry x="40" y="-520" width="280" height="480" as="geometry" />
        </mxCell>
        <mxCell id="MYtAHp2R5bHKfyVb3JPF-54" value="" style="rounded=0;whiteSpace=wrap;html=1;fillColor=#fff2cc;strokeColor=#d6b656;" parent="OgfgvEwyXAsVBogaNs4t-1" vertex="1">
          <mxGeometry x="40" y="-520" width="240" height="480" as="geometry" />
        </mxCell>
        <mxCell id="MYtAHp2R5bHKfyVb3JPF-55" value="6" style="rounded=1;whiteSpace=wrap;html=1;fillColor=#007CBD;strokeColor=none;fontColor=#FFFFFF;fontStyle=1;fontSize=22;" parent="OgfgvEwyXAsVBogaNs4t-1" vertex="1">
          <mxGeometry x="520" y="-20" width="40" height="38" as="geometry" />
        </mxCell>
        <mxCell id="MYtAHp2R5bHKfyVb3JPF-56" value="" style="rounded=0;whiteSpace=wrap;html=1;shadow=0;labelBackgroundColor=none;fillColor=#dae8fc;fontSize=15;strokeColor=#6c8ebf;" parent="OgfgvEwyXAsVBogaNs4t-1" vertex="1">
          <mxGeometry x="40" y="-520" width="240" height="160" as="geometry" />
        </mxCell>
        <mxCell id="MYtAHp2R5bHKfyVb3JPF-57" value="个人资料" style="rounded=0;whiteSpace=wrap;html=1;shadow=0;labelBackgroundColor=none;fillColor=#CCCCCC;gradientColor=none;fontSize=12;fontColor=#000000;align=center;" parent="OgfgvEwyXAsVBogaNs4t-1" vertex="1">
          <mxGeometry x="40" y="-350" width="240" height="40" as="geometry" />
        </mxCell>
        <mxCell id="MYtAHp2R5bHKfyVb3JPF-58" value="我的订单" style="rounded=0;whiteSpace=wrap;html=1;shadow=0;labelBackgroundColor=none;gradientColor=none;fontSize=12;fontColor=#000000;align=center;fillColor=#E6E6E6;" parent="OgfgvEwyXAsVBogaNs4t-1" vertex="1">
          <mxGeometry x="40" y="-300" width="240" height="40" as="geometry" />
        </mxCell>
        <mxCell id="MYtAHp2R5bHKfyVb3JPF-59" value="我的消息" style="rounded=0;whiteSpace=wrap;html=1;shadow=0;labelBackgroundColor=none;fillColor=#CCCCCC;gradientColor=none;fontSize=12;fontColor=#000000;align=center;" parent="OgfgvEwyXAsVBogaNs4t-1" vertex="1">
          <mxGeometry x="40" y="-250" width="240" height="40" as="geometry" />
        </mxCell>
        <mxCell id="MYtAHp2R5bHKfyVb3JPF-60" value="头像" style="ellipse;whiteSpace=wrap;html=1;aspect=fixed;shadow=0;labelBackgroundColor=none;fillColor=#dae8fc;fontSize=15;strokeColor=#6c8ebf;" parent="OgfgvEwyXAsVBogaNs4t-1" vertex="1">
          <mxGeometry x="60" y="-497.5" width="67.5" height="67.5" as="geometry" />
        </mxCell>
        <mxCell id="MYtAHp2R5bHKfyVb3JPF-61" value="头像" style="ellipse;whiteSpace=wrap;html=1;aspect=fixed;shadow=0;labelBackgroundColor=none;fillColor=#dae8fc;fontSize=15;strokeColor=#6c8ebf;" parent="OgfgvEwyXAsVBogaNs4t-1" vertex="1">
          <mxGeometry x="1340" y="-370" width="50" height="50" as="geometry" />
        </mxCell>
        <mxCell id="MYtAHp2R5bHKfyVb3JPF-62" value="" style="rounded=0;whiteSpace=wrap;html=1;fillColor=#f5f5f5;strokeColor=#666666;fontColor=#333333;" parent="OgfgvEwyXAsVBogaNs4t-1" vertex="1">
          <mxGeometry x="760" y="-520" width="280" height="480" as="geometry" />
        </mxCell>
        <mxCell id="MYtAHp2R5bHKfyVb3JPF-63" value="新建联系人帐号" style="rounded=0;whiteSpace=wrap;html=1;shadow=0;labelBackgroundColor=none;fillColor=#ffe6cc;fontSize=15;strokeColor=#d79b00;" parent="OgfgvEwyXAsVBogaNs4t-1" vertex="1">
          <mxGeometry x="760" y="-520" width="280" height="40" as="geometry" />
        </mxCell>
        <mxCell id="MYtAHp2R5bHKfyVb3JPF-64" value="✖️" style="text;html=1;strokeColor=none;fillColor=none;align=center;verticalAlign=middle;whiteSpace=wrap;rounded=0;shadow=0;labelBackgroundColor=none;fontSize=20;fontColor=#000000;" parent="OgfgvEwyXAsVBogaNs4t-1" vertex="1">
          <mxGeometry x="765" y="-519" width="40" height="40" as="geometry" />
        </mxCell>
        <mxCell id="MYtAHp2R5bHKfyVb3JPF-66" value="⭕️" style="text;html=1;strokeColor=none;fillColor=none;align=center;verticalAlign=middle;whiteSpace=wrap;rounded=0;shadow=0;labelBackgroundColor=none;fontSize=20;fontColor=#000000;" parent="OgfgvEwyXAsVBogaNs4t-1" vertex="1">
          <mxGeometry x="1000" y="-519" width="40" height="40" as="geometry" />
        </mxCell>
        <mxCell id="MYtAHp2R5bHKfyVb3JPF-67" value="头像" style="ellipse;whiteSpace=wrap;html=1;aspect=fixed;shadow=0;labelBackgroundColor=none;fillColor=#dae8fc;fontSize=15;strokeColor=#6c8ebf;" parent="OgfgvEwyXAsVBogaNs4t-1" vertex="1">
          <mxGeometry x="866.25" y="-480" width="67.5" height="67.5" as="geometry" />
        </mxCell>
        <mxCell id="MYtAHp2R5bHKfyVb3JPF-68" value="扫描名片" style="rounded=1;whiteSpace=wrap;html=1;fontSize=12;labelBackgroundColor=none;shadow=0;strokeColor=none;fontColor=#FFFFFF;fillColor=#B3B3B3;" parent="OgfgvEwyXAsVBogaNs4t-1" vertex="1">
          <mxGeometry x="860" y="-410" width="80" height="30" as="geometry" />
        </mxCell>
        <mxCell id="MYtAHp2R5bHKfyVb3JPF-69" value="姓名" style="rounded=1;whiteSpace=wrap;html=1;fontSize=12;labelBackgroundColor=none;shadow=0;strokeColor=none;fillColor=#B3B3B3;align=left;fontColor=#666666;" parent="OgfgvEwyXAsVBogaNs4t-1" vertex="1">
          <mxGeometry x="772.5" y="-360" width="257.5" height="40" as="geometry" />
        </mxCell>
        <mxCell id="MYtAHp2R5bHKfyVb3JPF-70" value="公司&lt;br&gt;职位" style="rounded=1;whiteSpace=wrap;html=1;fontSize=12;labelBackgroundColor=none;shadow=0;strokeColor=none;fillColor=#B3B3B3;align=left;fontColor=#666666;" parent="OgfgvEwyXAsVBogaNs4t-1" vertex="1">
          <mxGeometry x="772.5" y="-300" width="257.5" height="40" as="geometry" />
        </mxCell>
        <mxCell id="MYtAHp2R5bHKfyVb3JPF-71" value="手机" style="rounded=1;whiteSpace=wrap;html=1;fontSize=12;labelBackgroundColor=none;shadow=0;strokeColor=none;fillColor=#B3B3B3;align=left;fontColor=#666666;" parent="OgfgvEwyXAsVBogaNs4t-1" vertex="1">
          <mxGeometry x="770" y="-240" width="257.5" height="40" as="geometry" />
        </mxCell>
        <mxCell id="MYtAHp2R5bHKfyVb3JPF-72" value="邮箱" style="rounded=1;whiteSpace=wrap;html=1;fontSize=12;labelBackgroundColor=none;shadow=0;strokeColor=none;fillColor=#B3B3B3;align=left;fontColor=#666666;" parent="OgfgvEwyXAsVBogaNs4t-1" vertex="1">
          <mxGeometry x="771.25" y="-180" width="257.5" height="40" as="geometry" />
        </mxCell>
        <mxCell id="MYtAHp2R5bHKfyVb3JPF-73" value="7" style="rounded=1;whiteSpace=wrap;html=1;fillColor=#007CBD;strokeColor=none;fontColor=#FFFFFF;fontStyle=1;fontSize=22;" parent="OgfgvEwyXAsVBogaNs4t-1" vertex="1">
          <mxGeometry x="860" y="-20" width="40" height="38" as="geometry" />
        </mxCell>
        <mxCell id="MYtAHp2R5bHKfyVb3JPF-74" value="退出登录" style="rounded=0;whiteSpace=wrap;html=1;shadow=0;labelBackgroundColor=none;gradientColor=none;fontSize=12;fontColor=#000000;align=center;fillColor=#E6E6E6;" parent="OgfgvEwyXAsVBogaNs4t-1" vertex="1">
          <mxGeometry x="40" y="-200" width="240" height="40" as="geometry" />
        </mxCell>
        <mxCell id="MYtAHp2R5bHKfyVb3JPF-75" value="8" style="rounded=1;whiteSpace=wrap;html=1;fillColor=#007CBD;strokeColor=none;fontColor=#FFFFFF;fontStyle=1;fontSize=22;" parent="OgfgvEwyXAsVBogaNs4t-1" vertex="1">
          <mxGeometry x="1240" y="-20" width="40" height="38" as="geometry" />
        </mxCell>
        <mxCell id="MYtAHp2R5bHKfyVb3JPF-76" value="" style="rounded=0;whiteSpace=wrap;html=1;fillColor=#ffe6cc;strokeColor=#d79b00;" parent="OgfgvEwyXAsVBogaNs4t-1" vertex="1">
          <mxGeometry x="400" y="-520" width="280" height="480" as="geometry" />
        </mxCell>
        <mxCell id="MYtAHp2R5bHKfyVb3JPF-77" value="" style="rounded=1;whiteSpace=wrap;html=1;shadow=0;labelBackgroundColor=none;strokeWidth=1;fillColor=#f5f5f5;fontSize=16;align=center;strokeColor=#666666;fontColor=#333333;" parent="OgfgvEwyXAsVBogaNs4t-1" vertex="1">
          <mxGeometry x="400" y="-520" width="280" height="160" as="geometry" />
        </mxCell>
        <mxCell id="MYtAHp2R5bHKfyVb3JPF-78" value="" style="ellipse;whiteSpace=wrap;html=1;aspect=fixed;shadow=0;labelBackgroundColor=none;fillColor=#dae8fc;fontSize=15;strokeColor=#6c8ebf;" parent="OgfgvEwyXAsVBogaNs4t-1" vertex="1">
          <mxGeometry x="410" y="-510" width="45" height="45" as="geometry" />
        </mxCell>
        <mxCell id="MYtAHp2R5bHKfyVb3JPF-79" value="汇鑫金属" style="rounded=1;whiteSpace=wrap;html=1;fontSize=15;labelBackgroundColor=none;shadow=0;strokeColor=none;fillColor=none;fontColor=#3399FF;" parent="OgfgvEwyXAsVBogaNs4t-1" vertex="1">
          <mxGeometry x="450" y="-509" width="80" height="30" as="geometry" />
        </mxCell>
        <mxCell id="MYtAHp2R5bHKfyVb3JPF-80" value="HUIXIN Titanium" style="rounded=1;whiteSpace=wrap;html=1;fontSize=12;labelBackgroundColor=none;shadow=0;strokeColor=none;fillColor=none;fontColor=#B3B3B3;" parent="OgfgvEwyXAsVBogaNs4t-1" vertex="1">
          <mxGeometry x="445" y="-490" width="115" height="30" as="geometry" />
        </mxCell>
        <mxCell id="MYtAHp2R5bHKfyVb3JPF-81" value="毛鹏飞" style="rounded=0;whiteSpace=wrap;html=1;shadow=0;labelBackgroundColor=none;fillColor=none;gradientColor=none;fontSize=18;fontColor=#000000;align=center;strokeColor=none;" parent="OgfgvEwyXAsVBogaNs4t-1" vertex="1">
          <mxGeometry x="430" y="-420" width="70" height="30" as="geometry" />
        </mxCell>
        <mxCell id="MYtAHp2R5bHKfyVb3JPF-82" value="联合创始人" style="rounded=0;whiteSpace=wrap;html=1;shadow=0;labelBackgroundColor=none;fillColor=none;gradientColor=none;fontSize=14;fontColor=#000000;align=center;strokeColor=none;" parent="OgfgvEwyXAsVBogaNs4t-1" vertex="1">
          <mxGeometry x="420" y="-400" width="90" height="30" as="geometry" />
        </mxCell>
        <mxCell id="MYtAHp2R5bHKfyVb3JPF-83" value="电话：029-8888 8888" style="rounded=1;whiteSpace=wrap;html=1;fontSize=12;labelBackgroundColor=none;shadow=0;strokeColor=none;fillColor=none;align=left;" parent="OgfgvEwyXAsVBogaNs4t-1" vertex="1">
          <mxGeometry x="530" y="-430" width="140" height="20" as="geometry" />
        </mxCell>
        <mxCell id="MYtAHp2R5bHKfyVb3JPF-84" value="手机：188-8888-9999" style="rounded=1;whiteSpace=wrap;html=1;fontSize=12;labelBackgroundColor=none;shadow=0;strokeColor=none;fillColor=none;align=left;" parent="OgfgvEwyXAsVBogaNs4t-1" vertex="1">
          <mxGeometry x="530" y="-410" width="140" height="20" as="geometry" />
        </mxCell>
        <mxCell id="MYtAHp2R5bHKfyVb3JPF-85" value="邮箱：pengfei@huixin.cn" style="rounded=1;whiteSpace=wrap;html=1;fontSize=12;labelBackgroundColor=none;shadow=0;strokeColor=none;fillColor=none;align=left;" parent="OgfgvEwyXAsVBogaNs4t-1" vertex="1">
          <mxGeometry x="530" y="-390" width="140" height="20" as="geometry" />
        </mxCell>
        <mxCell id="MYtAHp2R5bHKfyVb3JPF-86" value="地址：宝鸡市" style="rounded=1;whiteSpace=wrap;html=1;fontSize=12;labelBackgroundColor=none;shadow=0;strokeColor=none;fillColor=none;align=left;" parent="OgfgvEwyXAsVBogaNs4t-1" vertex="1">
          <mxGeometry x="530" y="-461" width="140" height="20" as="geometry" />
        </mxCell>
        <mxCell id="MYtAHp2R5bHKfyVb3JPF-87" value="头像" style="ellipse;whiteSpace=wrap;html=1;aspect=fixed;shadow=0;labelBackgroundColor=none;fillColor=#dae8fc;fontSize=15;strokeColor=#6c8ebf;" parent="OgfgvEwyXAsVBogaNs4t-1" vertex="1">
          <mxGeometry x="620" y="-370" width="50" height="50" as="geometry" />
        </mxCell>
        <mxCell id="MYtAHp2R5bHKfyVb3JPF-88" value="" style="ellipse;whiteSpace=wrap;html=1;aspect=fixed;shadow=0;labelBackgroundColor=none;fillColor=#dae8fc;fontSize=15;strokeColor=#6c8ebf;" parent="OgfgvEwyXAsVBogaNs4t-1" vertex="1">
          <mxGeometry x="620" y="-100" width="50" height="50" as="geometry" />
        </mxCell>
        <mxCell id="MYtAHp2R5bHKfyVb3JPF-89" value="" style="rounded=0;whiteSpace=wrap;html=1;fillColor=#f5f5f5;strokeColor=#666666;fontColor=#333333;" parent="OgfgvEwyXAsVBogaNs4t-1" vertex="1">
          <mxGeometry x="400" y="600" width="280" height="480" as="geometry" />
        </mxCell>
        <mxCell id="MYtAHp2R5bHKfyVb3JPF-90" value="我的订单&lt;br style=&quot;font-size: 16px;&quot;&gt;&lt;br style=&quot;font-size: 16px;&quot;&gt;" style="rounded=0;whiteSpace=wrap;html=1;shadow=0;labelBackgroundColor=none;fillColor=#ffe6cc;fontSize=16;strokeColor=#d79b00;" parent="OgfgvEwyXAsVBogaNs4t-1" vertex="1">
          <mxGeometry x="400" y="600" width="280" height="80" as="geometry" />
        </mxCell>
        <mxCell id="MYtAHp2R5bHKfyVb3JPF-94" value="" style="ellipse;whiteSpace=wrap;html=1;aspect=fixed;shadow=0;labelBackgroundColor=none;fillColor=#ffe6cc;fontSize=15;strokeColor=#d79b00;" parent="OgfgvEwyXAsVBogaNs4t-1" vertex="1">
          <mxGeometry x="620" y="1020" width="50" height="50" as="geometry" />
        </mxCell>
        <mxCell id="MYtAHp2R5bHKfyVb3JPF-101" value="" style="rounded=1;whiteSpace=wrap;html=1;shadow=0;labelBackgroundColor=none;fillColor=none;gradientColor=none;fontSize=15;fontColor=#000000;" parent="OgfgvEwyXAsVBogaNs4t-1" vertex="1">
          <mxGeometry x="410" y="690" width="260" height="130" as="geometry" />
        </mxCell>
        <mxCell id="MYtAHp2R5bHKfyVb3JPF-102" value="ICON" style="ellipse;whiteSpace=wrap;html=1;aspect=fixed;shadow=0;labelBackgroundColor=none;fillColor=none;gradientColor=none;fontSize=15;fontColor=#000000;" parent="OgfgvEwyXAsVBogaNs4t-1" vertex="1">
          <mxGeometry x="420" y="700" width="50" height="50" as="geometry" />
        </mxCell>
        <mxCell id="MYtAHp2R5bHKfyVb3JPF-103" value="订单标题" style="rounded=0;whiteSpace=wrap;html=1;shadow=0;labelBackgroundColor=none;fillColor=none;gradientColor=none;fontSize=15;fontColor=#000000;align=center;strokeColor=none;" parent="OgfgvEwyXAsVBogaNs4t-1" vertex="1">
          <mxGeometry x="505" y="735" width="70" height="30" as="geometry" />
        </mxCell>
        <mxCell id="MYtAHp2R5bHKfyVb3JPF-106" value="混凝土" style="rounded=1;whiteSpace=wrap;html=1;shadow=0;labelBackgroundColor=none;gradientColor=none;fontSize=12;fontColor=#000000;align=center;fillColor=#CCCCCC;strokeColor=none;" parent="OgfgvEwyXAsVBogaNs4t-1" vertex="1">
          <mxGeometry x="590" y="765" width="40" height="20" as="geometry" />
        </mxCell>
        <mxCell id="MYtAHp2R5bHKfyVb3JPF-113" value="10" style="rounded=1;whiteSpace=wrap;html=1;fillColor=#007CBD;strokeColor=none;fontColor=#FFFFFF;fontStyle=1;fontSize=22;" parent="OgfgvEwyXAsVBogaNs4t-1" vertex="1">
          <mxGeometry x="520" y="1100" width="40" height="38" as="geometry" />
        </mxCell>
        <mxCell id="MYtAHp2R5bHKfyVb3JPF-114" value="" style="shape=flexArrow;endArrow=classic;html=1;fontSize=12;fontColor=#666666;fillColor=#663300;strokeColor=none;endWidth=10;endSize=4.33;" parent="OgfgvEwyXAsVBogaNs4t-1" edge="1">
          <mxGeometry width="50" height="50" relative="1" as="geometry">
            <mxPoint x="435" y="619.5" as="sourcePoint" />
            <mxPoint x="400" y="619.5" as="targetPoint" />
          </mxGeometry>
        </mxCell>
        <mxCell id="MYtAHp2R5bHKfyVb3JPF-116" value="我的采购" style="text;html=1;strokeColor=none;fillColor=none;align=center;verticalAlign=middle;whiteSpace=wrap;rounded=0;shadow=0;labelBackgroundColor=none;fontSize=16;fontColor=#333333;" parent="OgfgvEwyXAsVBogaNs4t-1" vertex="1">
          <mxGeometry x="440" y="650" width="70" height="20" as="geometry" />
        </mxCell>
        <mxCell id="MYtAHp2R5bHKfyVb3JPF-117" value="我的报价" style="text;html=1;strokeColor=none;fillColor=none;align=center;verticalAlign=middle;whiteSpace=wrap;rounded=0;shadow=0;labelBackgroundColor=none;fontSize=16;fontColor=#666666;" parent="OgfgvEwyXAsVBogaNs4t-1" vertex="1">
          <mxGeometry x="560" y="650" width="70" height="20" as="geometry" />
        </mxCell>
        <mxCell id="MYtAHp2R5bHKfyVb3JPF-119" value="" style="endArrow=none;html=1;fillColor=#663300;fontSize=16;fontColor=#333333;strokeWidth=2;" parent="OgfgvEwyXAsVBogaNs4t-1" edge="1">
          <mxGeometry width="50" height="50" relative="1" as="geometry">
            <mxPoint x="510" y="679" as="sourcePoint" />
            <mxPoint x="440" y="679" as="targetPoint" />
          </mxGeometry>
        </mxCell>
        <mxCell id="MYtAHp2R5bHKfyVb3JPF-121" value="" style="shape=flexArrow;endArrow=classic;html=1;strokeWidth=1;fillColor=#f8cecc;fontSize=16;fontColor=#333333;strokeColor=#b85450;" parent="OgfgvEwyXAsVBogaNs4t-1" edge="1">
          <mxGeometry width="50" height="50" relative="1" as="geometry">
            <mxPoint x="600" y="725" as="sourcePoint" />
            <mxPoint x="480" y="724.5" as="targetPoint" />
          </mxGeometry>
        </mxCell>
        <mxCell id="MYtAHp2R5bHKfyVb3JPF-122" value="&lt;font style=&quot;font-size: 20px&quot;&gt;15&lt;/font&gt;" style="ellipse;whiteSpace=wrap;html=1;aspect=fixed;shadow=0;labelBackgroundColor=none;fillColor=#f8cecc;fontSize=15;strokeColor=#b85450;" parent="OgfgvEwyXAsVBogaNs4t-1" vertex="1">
          <mxGeometry x="610" y="700" width="50" height="50" as="geometry" />
        </mxCell>
        <mxCell id="MYtAHp2R5bHKfyVb3JPF-123" value="完成交易" style="rounded=1;whiteSpace=wrap;html=1;fontSize=14;labelBackgroundColor=none;shadow=0;strokeColor=none;fillColor=#F8CECC;" parent="OgfgvEwyXAsVBogaNs4t-1" vertex="1">
          <mxGeometry x="590" y="785" width="70" height="25" as="geometry" />
        </mxCell>
        <mxCell id="MYtAHp2R5bHKfyVb3JPF-125" value="发布" style="rounded=1;whiteSpace=wrap;html=1;fontSize=14;labelBackgroundColor=none;shadow=0;strokeColor=none;fillColor=#F8CECC;" parent="OgfgvEwyXAsVBogaNs4t-1" vertex="1">
          <mxGeometry x="540" y="785" width="40" height="25" as="geometry" />
        </mxCell>
        <mxCell id="MYtAHp2R5bHKfyVb3JPF-126" value="编辑" style="rounded=1;whiteSpace=wrap;html=1;fontSize=14;labelBackgroundColor=none;shadow=0;strokeColor=none;fillColor=#F8CECC;" parent="OgfgvEwyXAsVBogaNs4t-1" vertex="1">
          <mxGeometry x="490" y="785" width="40" height="25" as="geometry" />
        </mxCell>
        <mxCell id="MYtAHp2R5bHKfyVb3JPF-127" value="" style="rounded=0;whiteSpace=wrap;html=1;fillColor=#f5f5f5;strokeColor=#666666;fontColor=#333333;" parent="OgfgvEwyXAsVBogaNs4t-1" vertex="1">
          <mxGeometry x="758.75" y="600" width="280" height="480" as="geometry" />
        </mxCell>
        <mxCell id="MYtAHp2R5bHKfyVb3JPF-128" value="采购订单询价列表" style="rounded=0;whiteSpace=wrap;html=1;shadow=0;labelBackgroundColor=none;fillColor=#ffe6cc;fontSize=15;strokeColor=#d79b00;" parent="OgfgvEwyXAsVBogaNs4t-1" vertex="1">
          <mxGeometry x="758.75" y="600" width="280" height="40" as="geometry" />
        </mxCell>
        <mxCell id="MYtAHp2R5bHKfyVb3JPF-132" value="" style="ellipse;whiteSpace=wrap;html=1;aspect=fixed;shadow=0;labelBackgroundColor=none;fillColor=#ffe6cc;fontSize=15;strokeColor=#d79b00;" parent="OgfgvEwyXAsVBogaNs4t-1" vertex="1">
          <mxGeometry x="978.75" y="1020" width="50" height="50" as="geometry" />
        </mxCell>
        <mxCell id="MYtAHp2R5bHKfyVb3JPF-133" value="" style="rounded=1;whiteSpace=wrap;html=1;shadow=0;labelBackgroundColor=none;fillColor=none;gradientColor=none;fontSize=15;fontColor=#000000;" parent="OgfgvEwyXAsVBogaNs4t-1" vertex="1">
          <mxGeometry x="768.75" y="650" width="260" height="60" as="geometry" />
        </mxCell>
        <mxCell id="MYtAHp2R5bHKfyVb3JPF-134" value="ICON" style="ellipse;whiteSpace=wrap;html=1;aspect=fixed;shadow=0;labelBackgroundColor=none;fillColor=none;gradientColor=none;fontSize=15;fontColor=#000000;" parent="OgfgvEwyXAsVBogaNs4t-1" vertex="1">
          <mxGeometry x="778.75" y="655" width="50" height="50" as="geometry" />
        </mxCell>
        <mxCell id="MYtAHp2R5bHKfyVb3JPF-135" value="订单标题" style="rounded=0;whiteSpace=wrap;html=1;shadow=0;labelBackgroundColor=none;fillColor=none;gradientColor=none;fontSize=15;fontColor=#000000;align=center;strokeColor=none;" parent="OgfgvEwyXAsVBogaNs4t-1" vertex="1">
          <mxGeometry x="865.63" y="650" width="71.25" height="30" as="geometry" />
        </mxCell>
        <mxCell id="MYtAHp2R5bHKfyVb3JPF-151" value="" style="rounded=0;whiteSpace=wrap;html=1;fillColor=#f5f5f5;strokeColor=#666666;fontColor=#333333;" parent="OgfgvEwyXAsVBogaNs4t-1" vertex="1">
          <mxGeometry x="1120" y="600" width="280" height="480" as="geometry" />
        </mxCell>
        <mxCell id="MYtAHp2R5bHKfyVb3JPF-152" value="采购订单询价详情" style="rounded=0;whiteSpace=wrap;html=1;shadow=0;labelBackgroundColor=none;fillColor=#ffe6cc;fontSize=15;strokeColor=#d79b00;" parent="OgfgvEwyXAsVBogaNs4t-1" vertex="1">
          <mxGeometry x="1120" y="600" width="280" height="40" as="geometry" />
        </mxCell>
        <mxCell id="MYtAHp2R5bHKfyVb3JPF-153" value="" style="ellipse;whiteSpace=wrap;html=1;aspect=fixed;shadow=0;labelBackgroundColor=none;fillColor=#ffe6cc;fontSize=15;strokeColor=#d79b00;" parent="OgfgvEwyXAsVBogaNs4t-1" vertex="1">
          <mxGeometry x="1340" y="1020" width="50" height="50" as="geometry" />
        </mxCell>
        <mxCell id="MYtAHp2R5bHKfyVb3JPF-172" value="11" style="rounded=1;whiteSpace=wrap;html=1;fillColor=#007CBD;strokeColor=none;fontColor=#FFFFFF;fontStyle=1;fontSize=22;" parent="OgfgvEwyXAsVBogaNs4t-1" vertex="1">
          <mxGeometry x="880" y="1100" width="40" height="38" as="geometry" />
        </mxCell>
        <mxCell id="MYtAHp2R5bHKfyVb3JPF-173" value="ICON" style="ellipse;whiteSpace=wrap;html=1;aspect=fixed;shadow=0;labelBackgroundColor=none;fillColor=none;gradientColor=none;fontSize=15;fontColor=#000000;" parent="OgfgvEwyXAsVBogaNs4t-1" vertex="1">
          <mxGeometry x="965" y="655" width="50" height="50" as="geometry" />
        </mxCell>
        <mxCell id="MYtAHp2R5bHKfyVb3JPF-174" value="" style="shape=flexArrow;endArrow=classic;html=1;strokeWidth=1;fillColor=#f8cecc;fontSize=16;fontColor=#333333;strokeColor=#b85450;" parent="OgfgvEwyXAsVBogaNs4t-1" edge="1">
          <mxGeometry width="50" height="50" relative="1" as="geometry">
            <mxPoint x="955" y="680" as="sourcePoint" />
            <mxPoint x="835" y="679.5" as="targetPoint" />
          </mxGeometry>
        </mxCell>
        <mxCell id="MYtAHp2R5bHKfyVb3JPF-175" value="总价：123，000" style="rounded=0;whiteSpace=wrap;html=1;shadow=0;labelBackgroundColor=none;fillColor=none;gradientColor=none;fontSize=12;fontColor=#000000;align=center;strokeColor=none;" parent="OgfgvEwyXAsVBogaNs4t-1" vertex="1">
          <mxGeometry x="850" y="685" width="100" height="30" as="geometry" />
        </mxCell>
        <mxCell id="MYtAHp2R5bHKfyVb3JPF-176" value="" style="rounded=1;whiteSpace=wrap;html=1;shadow=0;labelBackgroundColor=none;fillColor=none;gradientColor=none;fontSize=15;fontColor=#000000;" parent="OgfgvEwyXAsVBogaNs4t-1" vertex="1">
          <mxGeometry x="767.5" y="725" width="260" height="60" as="geometry" />
        </mxCell>
        <mxCell id="MYtAHp2R5bHKfyVb3JPF-177" value="ICON" style="ellipse;whiteSpace=wrap;html=1;aspect=fixed;shadow=0;labelBackgroundColor=none;fillColor=none;gradientColor=none;fontSize=15;fontColor=#000000;" parent="OgfgvEwyXAsVBogaNs4t-1" vertex="1">
          <mxGeometry x="777.5" y="730" width="50" height="50" as="geometry" />
        </mxCell>
        <mxCell id="MYtAHp2R5bHKfyVb3JPF-178" value="订单标题" style="rounded=0;whiteSpace=wrap;html=1;shadow=0;labelBackgroundColor=none;fillColor=none;gradientColor=none;fontSize=15;fontColor=#000000;align=center;strokeColor=none;" parent="OgfgvEwyXAsVBogaNs4t-1" vertex="1">
          <mxGeometry x="864.38" y="725" width="71.25" height="30" as="geometry" />
        </mxCell>
        <mxCell id="MYtAHp2R5bHKfyVb3JPF-179" value="ICON" style="ellipse;whiteSpace=wrap;html=1;aspect=fixed;shadow=0;labelBackgroundColor=none;fillColor=none;gradientColor=none;fontSize=15;fontColor=#000000;" parent="OgfgvEwyXAsVBogaNs4t-1" vertex="1">
          <mxGeometry x="963.75" y="730" width="50" height="50" as="geometry" />
        </mxCell>
        <mxCell id="MYtAHp2R5bHKfyVb3JPF-180" value="" style="shape=flexArrow;endArrow=classic;html=1;strokeWidth=1;fillColor=#f8cecc;fontSize=16;fontColor=#333333;strokeColor=#b85450;" parent="OgfgvEwyXAsVBogaNs4t-1" edge="1">
          <mxGeometry width="50" height="50" relative="1" as="geometry">
            <mxPoint x="953.75" y="755" as="sourcePoint" />
            <mxPoint x="833.75" y="754.5" as="targetPoint" />
          </mxGeometry>
        </mxCell>
        <mxCell id="MYtAHp2R5bHKfyVb3JPF-181" value="总价：123，000" style="rounded=0;whiteSpace=wrap;html=1;shadow=0;labelBackgroundColor=none;fillColor=none;gradientColor=none;fontSize=12;fontColor=#000000;align=center;strokeColor=none;" parent="OgfgvEwyXAsVBogaNs4t-1" vertex="1">
          <mxGeometry x="848.75" y="760" width="100" height="30" as="geometry" />
        </mxCell>
        <mxCell id="MYtAHp2R5bHKfyVb3JPF-182" value="" style="rounded=1;whiteSpace=wrap;html=1;shadow=0;labelBackgroundColor=none;fillColor=none;gradientColor=none;fontSize=15;fontColor=#000000;" parent="OgfgvEwyXAsVBogaNs4t-1" vertex="1">
          <mxGeometry x="768.75" y="805" width="260" height="60" as="geometry" />
        </mxCell>
        <mxCell id="MYtAHp2R5bHKfyVb3JPF-183" value="ICON" style="ellipse;whiteSpace=wrap;html=1;aspect=fixed;shadow=0;labelBackgroundColor=none;fillColor=none;gradientColor=none;fontSize=15;fontColor=#000000;" parent="OgfgvEwyXAsVBogaNs4t-1" vertex="1">
          <mxGeometry x="778.75" y="810" width="50" height="50" as="geometry" />
        </mxCell>
        <mxCell id="MYtAHp2R5bHKfyVb3JPF-184" value="订单标题" style="rounded=0;whiteSpace=wrap;html=1;shadow=0;labelBackgroundColor=none;fillColor=none;gradientColor=none;fontSize=15;fontColor=#000000;align=center;strokeColor=none;" parent="OgfgvEwyXAsVBogaNs4t-1" vertex="1">
          <mxGeometry x="865.63" y="805" width="71.25" height="30" as="geometry" />
        </mxCell>
        <mxCell id="MYtAHp2R5bHKfyVb3JPF-185" value="ICON" style="ellipse;whiteSpace=wrap;html=1;aspect=fixed;shadow=0;labelBackgroundColor=none;fillColor=none;gradientColor=none;fontSize=15;fontColor=#000000;" parent="OgfgvEwyXAsVBogaNs4t-1" vertex="1">
          <mxGeometry x="965" y="810" width="50" height="50" as="geometry" />
        </mxCell>
        <mxCell id="MYtAHp2R5bHKfyVb3JPF-186" value="" style="shape=flexArrow;endArrow=classic;html=1;strokeWidth=1;fillColor=#f8cecc;fontSize=16;fontColor=#333333;strokeColor=#b85450;" parent="OgfgvEwyXAsVBogaNs4t-1" edge="1">
          <mxGeometry width="50" height="50" relative="1" as="geometry">
            <mxPoint x="955" y="835" as="sourcePoint" />
            <mxPoint x="835" y="834.5" as="targetPoint" />
          </mxGeometry>
        </mxCell>
        <mxCell id="MYtAHp2R5bHKfyVb3JPF-187" value="总价：123，000" style="rounded=0;whiteSpace=wrap;html=1;shadow=0;labelBackgroundColor=none;fillColor=none;gradientColor=none;fontSize=12;fontColor=#000000;align=center;strokeColor=none;" parent="OgfgvEwyXAsVBogaNs4t-1" vertex="1">
          <mxGeometry x="850" y="840" width="100" height="30" as="geometry" />
        </mxCell>
        <mxCell id="MYtAHp2R5bHKfyVb3JPF-188" value="12" style="rounded=1;whiteSpace=wrap;html=1;fillColor=#007CBD;strokeColor=none;fontColor=#FFFFFF;fontStyle=1;fontSize=22;" parent="OgfgvEwyXAsVBogaNs4t-1" vertex="1">
          <mxGeometry x="1240" y="1100" width="40" height="38" as="geometry" />
        </mxCell>
        <mxCell id="MYtAHp2R5bHKfyVb3JPF-189" value="" style="rounded=0;whiteSpace=wrap;html=1;shadow=0;labelBackgroundColor=none;gradientColor=none;fontSize=12;fontColor=#000000;align=center;fillColor=#E6E6E6;" parent="OgfgvEwyXAsVBogaNs4t-1" vertex="1">
          <mxGeometry x="1120" y="820" width="280" height="40" as="geometry" />
        </mxCell>
        <mxCell id="MYtAHp2R5bHKfyVb3JPF-190" value="" style="rounded=0;whiteSpace=wrap;html=1;shadow=0;labelBackgroundColor=none;fillColor=#CCCCCC;gradientColor=none;fontSize=12;fontColor=#000000;align=center;" parent="OgfgvEwyXAsVBogaNs4t-1" vertex="1">
          <mxGeometry x="1120" y="860" width="280" height="40" as="geometry" />
        </mxCell>
        <mxCell id="MYtAHp2R5bHKfyVb3JPF-191" value="" style="rounded=0;whiteSpace=wrap;html=1;shadow=0;labelBackgroundColor=none;gradientColor=none;fontSize=12;fontColor=#000000;align=center;fillColor=#E6E6E6;" parent="OgfgvEwyXAsVBogaNs4t-1" vertex="1">
          <mxGeometry x="1120" y="900" width="280" height="40" as="geometry" />
        </mxCell>
        <mxCell id="MYtAHp2R5bHKfyVb3JPF-192" value="" style="rounded=0;whiteSpace=wrap;html=1;shadow=0;labelBackgroundColor=none;gradientColor=none;fontSize=12;fontColor=#000000;align=center;fillColor=#E6E6E6;" parent="OgfgvEwyXAsVBogaNs4t-1" vertex="1">
          <mxGeometry x="1120" y="940" width="280" height="40" as="geometry" />
        </mxCell>
        <mxCell id="MYtAHp2R5bHKfyVb3JPF-193" value="&lt;font color=&quot;#000000&quot;&gt;1&lt;/font&gt;" style="rounded=0;whiteSpace=wrap;html=1;shadow=0;labelBackgroundColor=none;gradientColor=none;fontSize=12;fontColor=#FFFFFF;align=center;fillColor=none;strokeWidth=1;strokeColor=none;" parent="OgfgvEwyXAsVBogaNs4t-1" vertex="1">
          <mxGeometry x="1132.5" y="870" width="20" height="20" as="geometry" />
        </mxCell>
        <mxCell id="MYtAHp2R5bHKfyVb3JPF-194" value="名称" style="rounded=1;whiteSpace=wrap;html=1;fontSize=13;labelBackgroundColor=none;shadow=0;strokeColor=none;fillColor=none;" parent="OgfgvEwyXAsVBogaNs4t-1" vertex="1">
          <mxGeometry x="1162.5" y="825" width="45" height="30" as="geometry" />
        </mxCell>
        <mxCell id="MYtAHp2R5bHKfyVb3JPF-195" value="规格" style="rounded=1;whiteSpace=wrap;html=1;fontSize=13;labelBackgroundColor=none;shadow=0;strokeColor=none;fillColor=none;" parent="OgfgvEwyXAsVBogaNs4t-1" vertex="1">
          <mxGeometry x="1207.5" y="825" width="45" height="30" as="geometry" />
        </mxCell>
        <mxCell id="MYtAHp2R5bHKfyVb3JPF-196" value="数量" style="rounded=1;whiteSpace=wrap;html=1;fontSize=13;labelBackgroundColor=none;shadow=0;strokeColor=none;fillColor=none;" parent="OgfgvEwyXAsVBogaNs4t-1" vertex="1">
          <mxGeometry x="1280" y="825" width="45" height="30" as="geometry" />
        </mxCell>
        <mxCell id="MYtAHp2R5bHKfyVb3JPF-197" value="螺丝" style="rounded=1;whiteSpace=wrap;html=1;fontSize=13;labelBackgroundColor=none;shadow=0;strokeColor=none;fillColor=none;" parent="OgfgvEwyXAsVBogaNs4t-1" vertex="1">
          <mxGeometry x="1162.5" y="865" width="45" height="30" as="geometry" />
        </mxCell>
        <mxCell id="MYtAHp2R5bHKfyVb3JPF-198" value="CON0030-28 M56*4" style="rounded=1;whiteSpace=wrap;html=1;fontSize=13;labelBackgroundColor=none;shadow=0;strokeColor=none;fillColor=none;" parent="OgfgvEwyXAsVBogaNs4t-1" vertex="1">
          <mxGeometry x="1207.5" y="865" width="72.5" height="30" as="geometry" />
        </mxCell>
        <mxCell id="MYtAHp2R5bHKfyVb3JPF-199" value="序号" style="rounded=1;whiteSpace=wrap;html=1;fontSize=13;labelBackgroundColor=none;shadow=0;strokeColor=none;fillColor=none;" parent="OgfgvEwyXAsVBogaNs4t-1" vertex="1">
          <mxGeometry x="1120" y="825" width="45" height="30" as="geometry" />
        </mxCell>
        <mxCell id="MYtAHp2R5bHKfyVb3JPF-200" value="&lt;font color=&quot;#000000&quot; style=&quot;font-size: 14px&quot;&gt;20&lt;/font&gt;" style="rounded=0;whiteSpace=wrap;html=1;shadow=0;labelBackgroundColor=none;gradientColor=none;fontSize=14;fontColor=#FFFFFF;align=center;fillColor=none;strokeWidth=1;strokeColor=none;" parent="OgfgvEwyXAsVBogaNs4t-1" vertex="1">
          <mxGeometry x="1285" y="870" width="40" height="20" as="geometry" />
        </mxCell>
        <mxCell id="MYtAHp2R5bHKfyVb3JPF-201" value="" style="rounded=0;whiteSpace=wrap;html=1;shadow=0;labelBackgroundColor=none;fillColor=#ffe6cc;fontSize=15;strokeColor=#d79b00;" parent="OgfgvEwyXAsVBogaNs4t-1" vertex="1">
          <mxGeometry x="1120" y="645" width="280" height="160" as="geometry" />
        </mxCell>
        <mxCell id="MYtAHp2R5bHKfyVb3JPF-202" value="总价：100.00������" style="rounded=0;whiteSpace=wrap;html=1;fillColor=#fff2cc;strokeColor=#d6b656;fontSize=16;" parent="OgfgvEwyXAsVBogaNs4t-1" vertex="1">
          <mxGeometry x="1200" y="655" width="120" height="60" as="geometry" />
        </mxCell>
        <mxCell id="MYtAHp2R5bHKfyVb3JPF-204" value="&lt;font color=&quot;#000000&quot; style=&quot;font-size: 14px&quot;&gt;20&lt;/font&gt;" style="rounded=0;whiteSpace=wrap;html=1;shadow=0;labelBackgroundColor=none;gradientColor=none;fontSize=14;fontColor=#FFFFFF;align=center;fillColor=none;strokeWidth=1;strokeColor=none;" parent="OgfgvEwyXAsVBogaNs4t-1" vertex="1">
          <mxGeometry x="1325" y="870" width="40" height="20" as="geometry" />
        </mxCell>
        <mxCell id="MYtAHp2R5bHKfyVb3JPF-205" value="单价" style="rounded=1;whiteSpace=wrap;html=1;fontSize=13;labelBackgroundColor=none;shadow=0;strokeColor=none;fillColor=none;" parent="OgfgvEwyXAsVBogaNs4t-1" vertex="1">
          <mxGeometry x="1325" y="825" width="45" height="30" as="geometry" />
        </mxCell>
        <mxCell id="MYtAHp2R5bHKfyVb3JPF-206" value="" style="rounded=0;whiteSpace=wrap;html=1;fillColor=#f5f5f5;strokeColor=#666666;fontColor=#333333;" parent="OgfgvEwyXAsVBogaNs4t-1" vertex="1">
          <mxGeometry x="40" y="600" width="280" height="480" as="geometry" />
        </mxCell>
        <mxCell id="MYtAHp2R5bHKfyVb3JPF-207" value="新建采购询价单" style="rounded=0;whiteSpace=wrap;html=1;shadow=0;labelBackgroundColor=none;fillColor=#ffe6cc;fontSize=15;strokeColor=#d79b00;" parent="OgfgvEwyXAsVBogaNs4t-1" vertex="1">
          <mxGeometry x="40" y="600" width="280" height="40" as="geometry" />
        </mxCell>
        <mxCell id="MYtAHp2R5bHKfyVb3JPF-208" value="✖️" style="text;html=1;strokeColor=none;fillColor=none;align=center;verticalAlign=middle;whiteSpace=wrap;rounded=0;shadow=0;labelBackgroundColor=none;fontSize=20;fontColor=#000000;" parent="OgfgvEwyXAsVBogaNs4t-1" vertex="1">
          <mxGeometry x="45" y="601" width="40" height="40" as="geometry" />
        </mxCell>
        <mxCell id="MYtAHp2R5bHKfyVb3JPF-209" value="⭕️" style="text;html=1;strokeColor=none;fillColor=none;align=center;verticalAlign=middle;whiteSpace=wrap;rounded=0;shadow=0;labelBackgroundColor=none;fontSize=20;fontColor=#000000;" parent="OgfgvEwyXAsVBogaNs4t-1" vertex="1">
          <mxGeometry x="280" y="601" width="40" height="40" as="geometry" />
        </mxCell>
        <mxCell id="MYtAHp2R5bHKfyVb3JPF-210" value="扫描导入" style="ellipse;whiteSpace=wrap;html=1;aspect=fixed;shadow=0;labelBackgroundColor=none;fillColor=#dae8fc;fontSize=15;strokeColor=#6c8ebf;" parent="OgfgvEwyXAsVBogaNs4t-1" vertex="1">
          <mxGeometry x="146.25" y="662.5" width="67.5" height="67.5" as="geometry" />
        </mxCell>
        <mxCell id="MYtAHp2R5bHKfyVb3JPF-212" value="姓名" style="rounded=1;whiteSpace=wrap;html=1;fontSize=12;labelBackgroundColor=none;shadow=0;strokeColor=none;fillColor=#B3B3B3;align=left;fontColor=#666666;" parent="OgfgvEwyXAsVBogaNs4t-1" vertex="1">
          <mxGeometry x="52.5" y="760" width="57.5" height="40" as="geometry" />
        </mxCell>
        <mxCell id="MYtAHp2R5bHKfyVb3JPF-216" value="规格" style="rounded=1;whiteSpace=wrap;html=1;fontSize=12;labelBackgroundColor=none;shadow=0;strokeColor=none;fillColor=#B3B3B3;align=left;fontColor=#666666;" parent="OgfgvEwyXAsVBogaNs4t-1" vertex="1">
          <mxGeometry x="110" y="760" width="57.5" height="40" as="geometry" />
        </mxCell>
        <mxCell id="MYtAHp2R5bHKfyVb3JPF-217" value="数量" style="rounded=1;whiteSpace=wrap;html=1;fontSize=12;labelBackgroundColor=none;shadow=0;strokeColor=none;fillColor=#B3B3B3;align=left;fontColor=#666666;" parent="OgfgvEwyXAsVBogaNs4t-1" vertex="1">
          <mxGeometry x="167.5" y="760" width="57.5" height="40" as="geometry" />
        </mxCell>
        <mxCell id="MYtAHp2R5bHKfyVb3JPF-218" value="单位" style="rounded=1;whiteSpace=wrap;html=1;fontSize=12;labelBackgroundColor=none;shadow=0;strokeColor=none;fillColor=#B3B3B3;align=left;fontColor=#666666;" parent="OgfgvEwyXAsVBogaNs4t-1" vertex="1">
          <mxGeometry x="225" y="760" width="57.5" height="40" as="geometry" />
        </mxCell>
        <mxCell id="MYtAHp2R5bHKfyVb3JPF-219" value="➕" style="ellipse;whiteSpace=wrap;html=1;aspect=fixed;shadow=0;labelBackgroundColor=none;fillColor=#ffe6cc;fontSize=15;strokeColor=#d79b00;" parent="OgfgvEwyXAsVBogaNs4t-1" vertex="1">
          <mxGeometry x="250" y="830" width="50" height="50" as="geometry" />
        </mxCell>
        <mxCell id="MYtAHp2R5bHKfyVb3JPF-220" value="保存" style="rounded=1;whiteSpace=wrap;html=1;fontSize=15;labelBackgroundColor=none;shadow=0;strokeColor=#b85450;fillColor=#f8cecc;" parent="OgfgvEwyXAsVBogaNs4t-1" vertex="1">
          <mxGeometry x="98.75" y="1040" width="80" height="30" as="geometry" />
        </mxCell>
        <mxCell id="MYtAHp2R5bHKfyVb3JPF-221" value="发布" style="rounded=1;whiteSpace=wrap;html=1;fontSize=15;labelBackgroundColor=none;shadow=0;strokeColor=#b85450;fillColor=#f8cecc;" parent="OgfgvEwyXAsVBogaNs4t-1" vertex="1">
          <mxGeometry x="190" y="1040" width="80" height="30" as="geometry" />
        </mxCell>
        <mxCell id="MYtAHp2R5bHKfyVb3JPF-222" value="9" style="rounded=1;whiteSpace=wrap;html=1;fillColor=#007CBD;strokeColor=none;fontColor=#FFFFFF;fontStyle=1;fontSize=22;" parent="OgfgvEwyXAsVBogaNs4t-1" vertex="1">
          <mxGeometry x="160" y="1100" width="40" height="38" as="geometry" />
        </mxCell>
        <mxCell id="MYtAHp2R5bHKfyVb3JPF-223" value="" style="rounded=0;whiteSpace=wrap;html=1;fillColor=#f5f5f5;strokeColor=#666666;fontColor=#333333;" parent="OgfgvEwyXAsVBogaNs4t-1" vertex="1">
          <mxGeometry x="400" y="1160" width="280" height="480" as="geometry" />
        </mxCell>
        <mxCell id="MYtAHp2R5bHKfyVb3JPF-224" value="我的订单&lt;br style=&quot;font-size: 16px;&quot;&gt;&lt;br style=&quot;font-size: 16px;&quot;&gt;" style="rounded=0;whiteSpace=wrap;html=1;shadow=0;labelBackgroundColor=none;fillColor=#ffe6cc;fontSize=16;strokeColor=#d79b00;" parent="OgfgvEwyXAsVBogaNs4t-1" vertex="1">
          <mxGeometry x="400" y="1160" width="280" height="80" as="geometry" />
        </mxCell>
        <mxCell id="MYtAHp2R5bHKfyVb3JPF-225" value="" style="ellipse;whiteSpace=wrap;html=1;aspect=fixed;shadow=0;labelBackgroundColor=none;fillColor=#ffe6cc;fontSize=15;strokeColor=#d79b00;" parent="OgfgvEwyXAsVBogaNs4t-1" vertex="1">
          <mxGeometry x="620" y="1580" width="50" height="50" as="geometry" />
        </mxCell>
        <mxCell id="MYtAHp2R5bHKfyVb3JPF-230" value="" style="shape=flexArrow;endArrow=classic;html=1;fontSize=12;fontColor=#666666;fillColor=#663300;strokeColor=none;endWidth=10;endSize=4.33;" parent="OgfgvEwyXAsVBogaNs4t-1" edge="1">
          <mxGeometry width="50" height="50" relative="1" as="geometry">
            <mxPoint x="435" y="1179.5" as="sourcePoint" />
            <mxPoint x="400" y="1179.5" as="targetPoint" />
          </mxGeometry>
        </mxCell>
        <mxCell id="MYtAHp2R5bHKfyVb3JPF-231" value="我的采购" style="text;html=1;strokeColor=none;fillColor=none;align=center;verticalAlign=middle;whiteSpace=wrap;rounded=0;shadow=0;labelBackgroundColor=none;fontSize=16;fontColor=#333333;" parent="OgfgvEwyXAsVBogaNs4t-1" vertex="1">
          <mxGeometry x="440" y="1210" width="70" height="20" as="geometry" />
        </mxCell>
        <mxCell id="MYtAHp2R5bHKfyVb3JPF-232" value="我的报价" style="text;html=1;strokeColor=none;fillColor=none;align=center;verticalAlign=middle;whiteSpace=wrap;rounded=0;shadow=0;labelBackgroundColor=none;fontSize=16;fontColor=#666666;" parent="OgfgvEwyXAsVBogaNs4t-1" vertex="1">
          <mxGeometry x="560" y="1210" width="70" height="20" as="geometry" />
        </mxCell>
        <mxCell id="MYtAHp2R5bHKfyVb3JPF-233" value="" style="endArrow=none;html=1;fillColor=#663300;fontSize=16;fontColor=#333333;strokeWidth=2;" parent="OgfgvEwyXAsVBogaNs4t-1" edge="1">
          <mxGeometry width="50" height="50" relative="1" as="geometry">
            <mxPoint x="625" y="1240" as="sourcePoint" />
            <mxPoint x="555" y="1240" as="targetPoint" />
          </mxGeometry>
        </mxCell>
        <mxCell id="MYtAHp2R5bHKfyVb3JPF-239" value="" style="rounded=1;whiteSpace=wrap;html=1;shadow=0;labelBackgroundColor=none;fillColor=none;gradientColor=none;fontSize=15;fontColor=#000000;" parent="OgfgvEwyXAsVBogaNs4t-1" vertex="1">
          <mxGeometry x="410" y="1260" width="260" height="60" as="geometry" />
        </mxCell>
        <mxCell id="MYtAHp2R5bHKfyVb3JPF-240" value="ICON" style="ellipse;whiteSpace=wrap;html=1;aspect=fixed;shadow=0;labelBackgroundColor=none;fillColor=none;gradientColor=none;fontSize=15;fontColor=#000000;" parent="OgfgvEwyXAsVBogaNs4t-1" vertex="1">
          <mxGeometry x="420" y="1265" width="50" height="50" as="geometry" />
        </mxCell>
        <mxCell id="MYtAHp2R5bHKfyVb3JPF-241" value="订单标题" style="rounded=0;whiteSpace=wrap;html=1;shadow=0;labelBackgroundColor=none;fillColor=none;gradientColor=none;fontSize=15;fontColor=#000000;align=center;strokeColor=none;" parent="OgfgvEwyXAsVBogaNs4t-1" vertex="1">
          <mxGeometry x="506.88" y="1260" width="71.25" height="30" as="geometry" />
        </mxCell>
        <mxCell id="MYtAHp2R5bHKfyVb3JPF-242" value="ICON" style="ellipse;whiteSpace=wrap;html=1;aspect=fixed;shadow=0;labelBackgroundColor=none;fillColor=none;gradientColor=none;fontSize=15;fontColor=#000000;" parent="OgfgvEwyXAsVBogaNs4t-1" vertex="1">
          <mxGeometry x="606.25" y="1265" width="50" height="50" as="geometry" />
        </mxCell>
        <mxCell id="MYtAHp2R5bHKfyVb3JPF-243" value="" style="shape=flexArrow;endArrow=classic;html=1;strokeWidth=1;fillColor=#f8cecc;fontSize=16;fontColor=#333333;strokeColor=#b85450;" parent="OgfgvEwyXAsVBogaNs4t-1" edge="1">
          <mxGeometry width="50" height="50" relative="1" as="geometry">
            <mxPoint x="482.5" y="1290.5" as="sourcePoint" />
            <mxPoint x="600" y="1290" as="targetPoint" />
          </mxGeometry>
        </mxCell>
        <mxCell id="MYtAHp2R5bHKfyVb3JPF-244" value="总价：123，000" style="rounded=0;whiteSpace=wrap;html=1;shadow=0;labelBackgroundColor=none;fillColor=none;gradientColor=none;fontSize=12;fontColor=#000000;align=center;strokeColor=none;" parent="OgfgvEwyXAsVBogaNs4t-1" vertex="1">
          <mxGeometry x="491.25" y="1295" width="100" height="30" as="geometry" />
        </mxCell>
        <mxCell id="MYtAHp2R5bHKfyVb3JPF-245" value="" style="rounded=1;whiteSpace=wrap;html=1;shadow=0;labelBackgroundColor=none;fillColor=none;gradientColor=none;fontSize=15;fontColor=#000000;" parent="OgfgvEwyXAsVBogaNs4t-1" vertex="1">
          <mxGeometry x="408.75" y="1335" width="260" height="60" as="geometry" />
        </mxCell>
        <mxCell id="MYtAHp2R5bHKfyVb3JPF-246" value="ICON" style="ellipse;whiteSpace=wrap;html=1;aspect=fixed;shadow=0;labelBackgroundColor=none;fillColor=none;gradientColor=none;fontSize=15;fontColor=#000000;" parent="OgfgvEwyXAsVBogaNs4t-1" vertex="1">
          <mxGeometry x="418.75" y="1340" width="50" height="50" as="geometry" />
        </mxCell>
        <mxCell id="MYtAHp2R5bHKfyVb3JPF-247" value="订单标题" style="rounded=0;whiteSpace=wrap;html=1;shadow=0;labelBackgroundColor=none;fillColor=none;gradientColor=none;fontSize=15;fontColor=#000000;align=center;strokeColor=none;" parent="OgfgvEwyXAsVBogaNs4t-1" vertex="1">
          <mxGeometry x="505.63" y="1335" width="71.25" height="30" as="geometry" />
        </mxCell>
        <mxCell id="MYtAHp2R5bHKfyVb3JPF-248" value="ICON" style="ellipse;whiteSpace=wrap;html=1;aspect=fixed;shadow=0;labelBackgroundColor=none;fillColor=none;gradientColor=none;fontSize=15;fontColor=#000000;" parent="OgfgvEwyXAsVBogaNs4t-1" vertex="1">
          <mxGeometry x="605" y="1340" width="50" height="50" as="geometry" />
        </mxCell>
        <mxCell id="MYtAHp2R5bHKfyVb3JPF-250" value="总价：123，000" style="rounded=0;whiteSpace=wrap;html=1;shadow=0;labelBackgroundColor=none;fillColor=none;gradientColor=none;fontSize=12;fontColor=#000000;align=center;strokeColor=none;" parent="OgfgvEwyXAsVBogaNs4t-1" vertex="1">
          <mxGeometry x="490" y="1370" width="100" height="30" as="geometry" />
        </mxCell>
        <mxCell id="MYtAHp2R5bHKfyVb3JPF-251" value="" style="rounded=1;whiteSpace=wrap;html=1;shadow=0;labelBackgroundColor=none;fillColor=none;gradientColor=none;fontSize=15;fontColor=#000000;" parent="OgfgvEwyXAsVBogaNs4t-1" vertex="1">
          <mxGeometry x="410" y="1415" width="260" height="60" as="geometry" />
        </mxCell>
        <mxCell id="MYtAHp2R5bHKfyVb3JPF-252" value="ICON" style="ellipse;whiteSpace=wrap;html=1;aspect=fixed;shadow=0;labelBackgroundColor=none;fillColor=none;gradientColor=none;fontSize=15;fontColor=#000000;" parent="OgfgvEwyXAsVBogaNs4t-1" vertex="1">
          <mxGeometry x="420" y="1420" width="50" height="50" as="geometry" />
        </mxCell>
        <mxCell id="MYtAHp2R5bHKfyVb3JPF-253" value="订单标题" style="rounded=0;whiteSpace=wrap;html=1;shadow=0;labelBackgroundColor=none;fillColor=none;gradientColor=none;fontSize=15;fontColor=#000000;align=center;strokeColor=none;" parent="OgfgvEwyXAsVBogaNs4t-1" vertex="1">
          <mxGeometry x="506.88" y="1415" width="71.25" height="30" as="geometry" />
        </mxCell>
        <mxCell id="MYtAHp2R5bHKfyVb3JPF-254" value="ICON" style="ellipse;whiteSpace=wrap;html=1;aspect=fixed;shadow=0;labelBackgroundColor=none;fillColor=none;gradientColor=none;fontSize=15;fontColor=#000000;" parent="OgfgvEwyXAsVBogaNs4t-1" vertex="1">
          <mxGeometry x="606.25" y="1420" width="50" height="50" as="geometry" />
        </mxCell>
        <mxCell id="MYtAHp2R5bHKfyVb3JPF-256" value="总价：123，000" style="rounded=0;whiteSpace=wrap;html=1;shadow=0;labelBackgroundColor=none;fillColor=none;gradientColor=none;fontSize=12;fontColor=#000000;align=center;strokeColor=none;" parent="OgfgvEwyXAsVBogaNs4t-1" vertex="1">
          <mxGeometry x="491.25" y="1450" width="100" height="30" as="geometry" />
        </mxCell>
        <mxCell id="MYtAHp2R5bHKfyVb3JPF-257" value="" style="shape=flexArrow;endArrow=classic;html=1;strokeWidth=1;fillColor=#f8cecc;fontSize=16;fontColor=#333333;strokeColor=#b85450;" parent="OgfgvEwyXAsVBogaNs4t-1" edge="1">
          <mxGeometry width="50" height="50" relative="1" as="geometry">
            <mxPoint x="483.76" y="1370.5" as="sourcePoint" />
            <mxPoint x="601.26" y="1370" as="targetPoint" />
          </mxGeometry>
        </mxCell>
        <mxCell id="MYtAHp2R5bHKfyVb3JPF-258" value="" style="shape=flexArrow;endArrow=classic;html=1;strokeWidth=1;fillColor=#f8cecc;fontSize=16;fontColor=#333333;strokeColor=#b85450;" parent="OgfgvEwyXAsVBogaNs4t-1" edge="1">
          <mxGeometry width="50" height="50" relative="1" as="geometry">
            <mxPoint x="482.51" y="1445.5" as="sourcePoint" />
            <mxPoint x="600.01" y="1445" as="targetPoint" />
          </mxGeometry>
        </mxCell>
        <mxCell id="MYtAHp2R5bHKfyVb3JPF-259" value="14" style="rounded=1;whiteSpace=wrap;html=1;fillColor=#007CBD;strokeColor=none;fontColor=#FFFFFF;fontStyle=1;fontSize=22;" parent="OgfgvEwyXAsVBogaNs4t-1" vertex="1">
          <mxGeometry x="500" y="1660" width="40" height="38" as="geometry" />
        </mxCell>
        <mxCell id="MYtAHp2R5bHKfyVb3JPF-260" value="" style="rounded=0;whiteSpace=wrap;html=1;fillColor=#f5f5f5;strokeColor=#666666;fontColor=#333333;" parent="OgfgvEwyXAsVBogaNs4t-1" vertex="1">
          <mxGeometry x="761.26" y="1160" width="280" height="480" as="geometry" />
        </mxCell>
        <mxCell id="MYtAHp2R5bHKfyVb3JPF-261" value="销售订单报价列表" style="rounded=0;whiteSpace=wrap;html=1;shadow=0;labelBackgroundColor=none;fillColor=#ffe6cc;fontSize=16;strokeColor=#d79b00;" parent="OgfgvEwyXAsVBogaNs4t-1" vertex="1">
          <mxGeometry x="761.26" y="1160" width="280" height="40" as="geometry" />
        </mxCell>
        <mxCell id="MYtAHp2R5bHKfyVb3JPF-262" value="" style="ellipse;whiteSpace=wrap;html=1;aspect=fixed;shadow=0;labelBackgroundColor=none;fillColor=#ffe6cc;fontSize=15;strokeColor=#d79b00;" parent="OgfgvEwyXAsVBogaNs4t-1" vertex="1">
          <mxGeometry x="981.26" y="1580" width="50" height="50" as="geometry" />
        </mxCell>
        <mxCell id="MYtAHp2R5bHKfyVb3JPF-267" value="" style="rounded=1;whiteSpace=wrap;html=1;shadow=0;labelBackgroundColor=none;fillColor=none;gradientColor=none;fontSize=15;fontColor=#000000;" parent="OgfgvEwyXAsVBogaNs4t-1" vertex="1">
          <mxGeometry x="771.26" y="1260" width="260" height="60" as="geometry" />
        </mxCell>
        <mxCell id="MYtAHp2R5bHKfyVb3JPF-268" value="ICON" style="ellipse;whiteSpace=wrap;html=1;aspect=fixed;shadow=0;labelBackgroundColor=none;fillColor=none;gradientColor=none;fontSize=15;fontColor=#000000;" parent="OgfgvEwyXAsVBogaNs4t-1" vertex="1">
          <mxGeometry x="781.26" y="1265" width="50" height="50" as="geometry" />
        </mxCell>
        <mxCell id="MYtAHp2R5bHKfyVb3JPF-269" value="订单标题" style="rounded=0;whiteSpace=wrap;html=1;shadow=0;labelBackgroundColor=none;fillColor=none;gradientColor=none;fontSize=15;fontColor=#000000;align=center;strokeColor=none;" parent="OgfgvEwyXAsVBogaNs4t-1" vertex="1">
          <mxGeometry x="868.14" y="1260" width="71.25" height="30" as="geometry" />
        </mxCell>
        <mxCell id="MYtAHp2R5bHKfyVb3JPF-270" value="ICON" style="ellipse;whiteSpace=wrap;html=1;aspect=fixed;shadow=0;labelBackgroundColor=none;fillColor=none;gradientColor=none;fontSize=15;fontColor=#000000;" parent="OgfgvEwyXAsVBogaNs4t-1" vertex="1">
          <mxGeometry x="967.51" y="1265" width="50" height="50" as="geometry" />
        </mxCell>
        <mxCell id="MYtAHp2R5bHKfyVb3JPF-271" value="" style="shape=flexArrow;endArrow=classic;html=1;strokeWidth=1;fillColor=#f8cecc;fontSize=16;fontColor=#333333;strokeColor=#b85450;" parent="OgfgvEwyXAsVBogaNs4t-1" edge="1">
          <mxGeometry width="50" height="50" relative="1" as="geometry">
            <mxPoint x="843.76" y="1290.5" as="sourcePoint" />
            <mxPoint x="961.26" y="1290" as="targetPoint" />
          </mxGeometry>
        </mxCell>
        <mxCell id="MYtAHp2R5bHKfyVb3JPF-272" value="总价：123，000" style="rounded=0;whiteSpace=wrap;html=1;shadow=0;labelBackgroundColor=none;fillColor=none;gradientColor=none;fontSize=12;fontColor=#000000;align=center;strokeColor=none;" parent="OgfgvEwyXAsVBogaNs4t-1" vertex="1">
          <mxGeometry x="852.51" y="1295" width="100" height="30" as="geometry" />
        </mxCell>
        <mxCell id="MYtAHp2R5bHKfyVb3JPF-273" value="" style="rounded=1;whiteSpace=wrap;html=1;shadow=0;labelBackgroundColor=none;fillColor=none;gradientColor=none;fontSize=15;fontColor=#000000;" parent="OgfgvEwyXAsVBogaNs4t-1" vertex="1">
          <mxGeometry x="770.01" y="1335" width="260" height="60" as="geometry" />
        </mxCell>
        <mxCell id="MYtAHp2R5bHKfyVb3JPF-274" value="ICON" style="ellipse;whiteSpace=wrap;html=1;aspect=fixed;shadow=0;labelBackgroundColor=none;fillColor=none;gradientColor=none;fontSize=15;fontColor=#000000;" parent="OgfgvEwyXAsVBogaNs4t-1" vertex="1">
          <mxGeometry x="780.01" y="1340" width="50" height="50" as="geometry" />
        </mxCell>
        <mxCell id="MYtAHp2R5bHKfyVb3JPF-275" value="订单标题" style="rounded=0;whiteSpace=wrap;html=1;shadow=0;labelBackgroundColor=none;fillColor=none;gradientColor=none;fontSize=15;fontColor=#000000;align=center;strokeColor=none;" parent="OgfgvEwyXAsVBogaNs4t-1" vertex="1">
          <mxGeometry x="866.89" y="1335" width="71.25" height="30" as="geometry" />
        </mxCell>
        <mxCell id="MYtAHp2R5bHKfyVb3JPF-276" value="ICON" style="ellipse;whiteSpace=wrap;html=1;aspect=fixed;shadow=0;labelBackgroundColor=none;fillColor=none;gradientColor=none;fontSize=15;fontColor=#000000;" parent="OgfgvEwyXAsVBogaNs4t-1" vertex="1">
          <mxGeometry x="966.26" y="1340" width="50" height="50" as="geometry" />
        </mxCell>
        <mxCell id="MYtAHp2R5bHKfyVb3JPF-277" value="总价：123，000" style="rounded=0;whiteSpace=wrap;html=1;shadow=0;labelBackgroundColor=none;fillColor=none;gradientColor=none;fontSize=12;fontColor=#000000;align=center;strokeColor=none;" parent="OgfgvEwyXAsVBogaNs4t-1" vertex="1">
          <mxGeometry x="851.26" y="1370" width="100" height="30" as="geometry" />
        </mxCell>
        <mxCell id="MYtAHp2R5bHKfyVb3JPF-278" value="" style="rounded=1;whiteSpace=wrap;html=1;shadow=0;labelBackgroundColor=none;fillColor=none;gradientColor=none;fontSize=15;fontColor=#000000;" parent="OgfgvEwyXAsVBogaNs4t-1" vertex="1">
          <mxGeometry x="771.26" y="1415" width="260" height="60" as="geometry" />
        </mxCell>
        <mxCell id="MYtAHp2R5bHKfyVb3JPF-279" value="ICON" style="ellipse;whiteSpace=wrap;html=1;aspect=fixed;shadow=0;labelBackgroundColor=none;fillColor=none;gradientColor=none;fontSize=15;fontColor=#000000;" parent="OgfgvEwyXAsVBogaNs4t-1" vertex="1">
          <mxGeometry x="781.26" y="1420" width="50" height="50" as="geometry" />
        </mxCell>
        <mxCell id="MYtAHp2R5bHKfyVb3JPF-280" value="订单标题" style="rounded=0;whiteSpace=wrap;html=1;shadow=0;labelBackgroundColor=none;fillColor=none;gradientColor=none;fontSize=15;fontColor=#000000;align=center;strokeColor=none;" parent="OgfgvEwyXAsVBogaNs4t-1" vertex="1">
          <mxGeometry x="868.14" y="1415" width="71.25" height="30" as="geometry" />
        </mxCell>
        <mxCell id="MYtAHp2R5bHKfyVb3JPF-281" value="ICON" style="ellipse;whiteSpace=wrap;html=1;aspect=fixed;shadow=0;labelBackgroundColor=none;fillColor=none;gradientColor=none;fontSize=15;fontColor=#000000;" parent="OgfgvEwyXAsVBogaNs4t-1" vertex="1">
          <mxGeometry x="967.51" y="1420" width="50" height="50" as="geometry" />
        </mxCell>
        <mxCell id="MYtAHp2R5bHKfyVb3JPF-282" value="总价：123，000" style="rounded=0;whiteSpace=wrap;html=1;shadow=0;labelBackgroundColor=none;fillColor=none;gradientColor=none;fontSize=12;fontColor=#000000;align=center;strokeColor=none;" parent="OgfgvEwyXAsVBogaNs4t-1" vertex="1">
          <mxGeometry x="852.51" y="1450" width="100" height="30" as="geometry" />
        </mxCell>
        <mxCell id="MYtAHp2R5bHKfyVb3JPF-283" value="" style="shape=flexArrow;endArrow=classic;html=1;strokeWidth=1;fillColor=#f8cecc;fontSize=16;fontColor=#333333;strokeColor=#b85450;" parent="OgfgvEwyXAsVBogaNs4t-1" edge="1">
          <mxGeometry width="50" height="50" relative="1" as="geometry">
            <mxPoint x="845.02" y="1370.5" as="sourcePoint" />
            <mxPoint x="962.52" y="1370" as="targetPoint" />
          </mxGeometry>
        </mxCell>
        <mxCell id="MYtAHp2R5bHKfyVb3JPF-284" value="" style="shape=flexArrow;endArrow=classic;html=1;strokeWidth=1;fillColor=#f8cecc;fontSize=16;fontColor=#333333;strokeColor=#b85450;" parent="OgfgvEwyXAsVBogaNs4t-1" edge="1">
          <mxGeometry width="50" height="50" relative="1" as="geometry">
            <mxPoint x="843.77" y="1445.5" as="sourcePoint" />
            <mxPoint x="961.27" y="1445" as="targetPoint" />
          </mxGeometry>
        </mxCell>
        <mxCell id="MYtAHp2R5bHKfyVb3JPF-285" value="" style="rounded=0;whiteSpace=wrap;html=1;fillColor=#f5f5f5;strokeColor=#666666;fontColor=#333333;" parent="OgfgvEwyXAsVBogaNs4t-1" vertex="1">
          <mxGeometry x="1120" y="1160" width="280" height="480" as="geometry" />
        </mxCell>
        <mxCell id="MYtAHp2R5bHKfyVb3JPF-286" value="采购订单询价详情" style="rounded=0;whiteSpace=wrap;html=1;shadow=0;labelBackgroundColor=none;fillColor=#ffe6cc;fontSize=15;strokeColor=#d79b00;" parent="OgfgvEwyXAsVBogaNs4t-1" vertex="1">
          <mxGeometry x="1120" y="1160" width="280" height="40" as="geometry" />
        </mxCell>
        <mxCell id="MYtAHp2R5bHKfyVb3JPF-287" value="" style="ellipse;whiteSpace=wrap;html=1;aspect=fixed;shadow=0;labelBackgroundColor=none;fillColor=#ffe6cc;fontSize=15;strokeColor=#d79b00;" parent="OgfgvEwyXAsVBogaNs4t-1" vertex="1">
          <mxGeometry x="1340" y="1580" width="50" height="50" as="geometry" />
        </mxCell>
        <mxCell id="MYtAHp2R5bHKfyVb3JPF-288" value="" style="rounded=0;whiteSpace=wrap;html=1;shadow=0;labelBackgroundColor=none;gradientColor=none;fontSize=12;fontColor=#000000;align=center;fillColor=#E6E6E6;" parent="OgfgvEwyXAsVBogaNs4t-1" vertex="1">
          <mxGeometry x="1120" y="1380" width="280" height="40" as="geometry" />
        </mxCell>
        <mxCell id="MYtAHp2R5bHKfyVb3JPF-289" value="" style="rounded=0;whiteSpace=wrap;html=1;shadow=0;labelBackgroundColor=none;fillColor=#CCCCCC;gradientColor=none;fontSize=12;fontColor=#000000;align=center;" parent="OgfgvEwyXAsVBogaNs4t-1" vertex="1">
          <mxGeometry x="1120" y="1420" width="280" height="40" as="geometry" />
        </mxCell>
        <mxCell id="MYtAHp2R5bHKfyVb3JPF-290" value="" style="rounded=0;whiteSpace=wrap;html=1;shadow=0;labelBackgroundColor=none;gradientColor=none;fontSize=12;fontColor=#000000;align=center;fillColor=#E6E6E6;" parent="OgfgvEwyXAsVBogaNs4t-1" vertex="1">
          <mxGeometry x="1120" y="1460" width="280" height="40" as="geometry" />
        </mxCell>
        <mxCell id="MYtAHp2R5bHKfyVb3JPF-291" value="" style="rounded=0;whiteSpace=wrap;html=1;shadow=0;labelBackgroundColor=none;gradientColor=none;fontSize=12;fontColor=#000000;align=center;fillColor=#E6E6E6;" parent="OgfgvEwyXAsVBogaNs4t-1" vertex="1">
          <mxGeometry x="1120" y="1500" width="280" height="40" as="geometry" />
        </mxCell>
        <mxCell id="MYtAHp2R5bHKfyVb3JPF-292" value="&lt;font color=&quot;#000000&quot;&gt;1&lt;/font&gt;" style="rounded=0;whiteSpace=wrap;html=1;shadow=0;labelBackgroundColor=none;gradientColor=none;fontSize=12;fontColor=#FFFFFF;align=center;fillColor=none;strokeWidth=1;strokeColor=none;" parent="OgfgvEwyXAsVBogaNs4t-1" vertex="1">
          <mxGeometry x="1132.5" y="1430" width="20" height="20" as="geometry" />
        </mxCell>
        <mxCell id="MYtAHp2R5bHKfyVb3JPF-293" value="名称" style="rounded=1;whiteSpace=wrap;html=1;fontSize=13;labelBackgroundColor=none;shadow=0;strokeColor=none;fillColor=none;" parent="OgfgvEwyXAsVBogaNs4t-1" vertex="1">
          <mxGeometry x="1162.5" y="1385" width="45" height="30" as="geometry" />
        </mxCell>
        <mxCell id="MYtAHp2R5bHKfyVb3JPF-294" value="规格" style="rounded=1;whiteSpace=wrap;html=1;fontSize=13;labelBackgroundColor=none;shadow=0;strokeColor=none;fillColor=none;" parent="OgfgvEwyXAsVBogaNs4t-1" vertex="1">
          <mxGeometry x="1207.5" y="1385" width="45" height="30" as="geometry" />
        </mxCell>
        <mxCell id="MYtAHp2R5bHKfyVb3JPF-295" value="数量" style="rounded=1;whiteSpace=wrap;html=1;fontSize=13;labelBackgroundColor=none;shadow=0;strokeColor=none;fillColor=none;" parent="OgfgvEwyXAsVBogaNs4t-1" vertex="1">
          <mxGeometry x="1280" y="1385" width="45" height="30" as="geometry" />
        </mxCell>
        <mxCell id="MYtAHp2R5bHKfyVb3JPF-296" value="螺丝" style="rounded=1;whiteSpace=wrap;html=1;fontSize=13;labelBackgroundColor=none;shadow=0;strokeColor=none;fillColor=none;" parent="OgfgvEwyXAsVBogaNs4t-1" vertex="1">
          <mxGeometry x="1162.5" y="1425" width="45" height="30" as="geometry" />
        </mxCell>
        <mxCell id="MYtAHp2R5bHKfyVb3JPF-297" value="CON0030-28 M56*4" style="rounded=1;whiteSpace=wrap;html=1;fontSize=13;labelBackgroundColor=none;shadow=0;strokeColor=none;fillColor=none;" parent="OgfgvEwyXAsVBogaNs4t-1" vertex="1">
          <mxGeometry x="1207.5" y="1425" width="72.5" height="30" as="geometry" />
        </mxCell>
        <mxCell id="MYtAHp2R5bHKfyVb3JPF-298" value="序号" style="rounded=1;whiteSpace=wrap;html=1;fontSize=13;labelBackgroundColor=none;shadow=0;strokeColor=none;fillColor=none;" parent="OgfgvEwyXAsVBogaNs4t-1" vertex="1">
          <mxGeometry x="1120" y="1385" width="45" height="30" as="geometry" />
        </mxCell>
        <mxCell id="MYtAHp2R5bHKfyVb3JPF-299" value="&lt;font color=&quot;#000000&quot; style=&quot;font-size: 14px&quot;&gt;20&lt;/font&gt;" style="rounded=0;whiteSpace=wrap;html=1;shadow=0;labelBackgroundColor=none;gradientColor=none;fontSize=14;fontColor=#FFFFFF;align=center;fillColor=none;strokeWidth=1;strokeColor=none;" parent="OgfgvEwyXAsVBogaNs4t-1" vertex="1">
          <mxGeometry x="1285" y="1430" width="40" height="20" as="geometry" />
        </mxCell>
        <mxCell id="MYtAHp2R5bHKfyVb3JPF-300" value="" style="rounded=0;whiteSpace=wrap;html=1;shadow=0;labelBackgroundColor=none;fillColor=#ffe6cc;fontSize=15;strokeColor=#d79b00;" parent="OgfgvEwyXAsVBogaNs4t-1" vertex="1">
          <mxGeometry x="1120" y="1205" width="280" height="160" as="geometry" />
        </mxCell>
        <mxCell id="MYtAHp2R5bHKfyVb3JPF-301" value="总价：100.00������" style="rounded=0;whiteSpace=wrap;html=1;fillColor=#fff2cc;strokeColor=#d6b656;fontSize=16;" parent="OgfgvEwyXAsVBogaNs4t-1" vertex="1">
          <mxGeometry x="1200" y="1215" width="120" height="60" as="geometry" />
        </mxCell>
        <mxCell id="MYtAHp2R5bHKfyVb3JPF-302" value="&lt;font color=&quot;#000000&quot; style=&quot;font-size: 14px&quot;&gt;20&lt;/font&gt;" style="rounded=0;whiteSpace=wrap;html=1;shadow=0;labelBackgroundColor=none;gradientColor=none;fontSize=14;fontColor=#FFFFFF;align=center;fillColor=none;strokeWidth=1;strokeColor=none;" parent="OgfgvEwyXAsVBogaNs4t-1" vertex="1">
          <mxGeometry x="1325" y="1430" width="40" height="20" as="geometry" />
        </mxCell>
        <mxCell id="MYtAHp2R5bHKfyVb3JPF-303" value="单价" style="rounded=1;whiteSpace=wrap;html=1;fontSize=13;labelBackgroundColor=none;shadow=0;strokeColor=none;fillColor=none;" parent="OgfgvEwyXAsVBogaNs4t-1" vertex="1">
          <mxGeometry x="1325" y="1385" width="45" height="30" as="geometry" />
        </mxCell>
        <mxCell id="MYtAHp2R5bHKfyVb3JPF-304" value="15" style="rounded=1;whiteSpace=wrap;html=1;fillColor=#007CBD;strokeColor=none;fontColor=#FFFFFF;fontStyle=1;fontSize=22;" parent="OgfgvEwyXAsVBogaNs4t-1" vertex="1">
          <mxGeometry x="881.26" y="1660" width="40" height="38" as="geometry" />
        </mxCell>
        <mxCell id="MYtAHp2R5bHKfyVb3JPF-305" value="16" style="rounded=1;whiteSpace=wrap;html=1;fillColor=#007CBD;strokeColor=none;fontColor=#FFFFFF;fontStyle=1;fontSize=22;" parent="OgfgvEwyXAsVBogaNs4t-1" vertex="1">
          <mxGeometry x="1240" y="1660" width="40" height="38" as="geometry" />
        </mxCell>
      </root>
    </mxGraphModel>
  </diagram>
  <diagram id="6n7ZqcHx81pIxZpxMceD" name="系统架构">
    <mxGraphModel dx="2325" dy="1985" grid="1" gridSize="10" guides="1" tooltips="1" connect="1" arrows="1" fold="1" page="1" pageScale="1" pageWidth="850" pageHeight="1100" math="0" shadow="0">
      <root>
        <mxCell id="Nj_Lr3cnoBrVfSEBcdF_-0" />
        <mxCell id="Nj_Lr3cnoBrVfSEBcdF_-1" parent="Nj_Lr3cnoBrVfSEBcdF_-0" />
        <mxCell id="Nj_Lr3cnoBrVfSEBcdF_-20" value="" style="rounded=0;whiteSpace=wrap;html=1;fillColor=#e1d5e7;strokeColor=#9673a6;" parent="Nj_Lr3cnoBrVfSEBcdF_-1" vertex="1">
          <mxGeometry x="850" y="105" width="180" height="110" as="geometry" />
        </mxCell>
        <mxCell id="Nj_Lr3cnoBrVfSEBcdF_-19" value="" style="rounded=0;whiteSpace=wrap;html=1;fillColor=#e1d5e7;strokeColor=#9673a6;" parent="Nj_Lr3cnoBrVfSEBcdF_-1" vertex="1">
          <mxGeometry x="610" y="375" width="180" height="110" as="geometry" />
        </mxCell>
        <mxCell id="Nj_Lr3cnoBrVfSEBcdF_-18" value="" style="rounded=0;whiteSpace=wrap;html=1;fillColor=#e1d5e7;strokeColor=#9673a6;" parent="Nj_Lr3cnoBrVfSEBcdF_-1" vertex="1">
          <mxGeometry x="410" y="375" width="180" height="110" as="geometry" />
        </mxCell>
        <mxCell id="Nj_Lr3cnoBrVfSEBcdF_-2" value="" style="rounded=0;whiteSpace=wrap;html=1;fillColor=#d5e8d4;strokeColor=#82b366;" parent="Nj_Lr3cnoBrVfSEBcdF_-1" vertex="1">
          <mxGeometry x="220" y="-30" width="580" height="340" as="geometry" />
        </mxCell>
        <mxCell id="Nj_Lr3cnoBrVfSEBcdF_-3" value="Nginx" style="rounded=0;whiteSpace=wrap;html=1;fillColor=#f8cecc;strokeColor=#b85450;" parent="Nj_Lr3cnoBrVfSEBcdF_-1" vertex="1">
          <mxGeometry x="250" y="220" width="120" height="60" as="geometry" />
        </mxCell>
        <mxCell id="Nj_Lr3cnoBrVfSEBcdF_-4" value="Nginx w/Prod&lt;br&gt;File(前端)" style="rounded=0;whiteSpace=wrap;html=1;" parent="Nj_Lr3cnoBrVfSEBcdF_-1" vertex="1">
          <mxGeometry x="440" y="130" width="120" height="60" as="geometry" />
        </mxCell>
        <mxCell id="Nj_Lr3cnoBrVfSEBcdF_-5" value="Express Server(后端)" style="rounded=0;whiteSpace=wrap;html=1;" parent="Nj_Lr3cnoBrVfSEBcdF_-1" vertex="1">
          <mxGeometry x="440" y="220" width="120" height="60" as="geometry" />
        </mxCell>
        <mxCell id="Nj_Lr3cnoBrVfSEBcdF_-6" value="Worker(计算任务)" style="rounded=0;whiteSpace=wrap;html=1;" parent="Nj_Lr3cnoBrVfSEBcdF_-1" vertex="1">
          <mxGeometry x="640" y="130" width="120" height="60" as="geometry" />
        </mxCell>
        <mxCell id="Nj_Lr3cnoBrVfSEBcdF_-7" value="Redis" style="rounded=0;whiteSpace=wrap;html=1;" parent="Nj_Lr3cnoBrVfSEBcdF_-1" vertex="1">
          <mxGeometry x="880" y="130" width="120" height="60" as="geometry" />
        </mxCell>
        <mxCell id="Nj_Lr3cnoBrVfSEBcdF_-8" value="Postgres/mysql&lt;br&gt;数据库" style="rounded=0;whiteSpace=wrap;html=1;" parent="Nj_Lr3cnoBrVfSEBcdF_-1" vertex="1">
          <mxGeometry x="440" y="400" width="120" height="60" as="geometry" />
        </mxCell>
        <mxCell id="Nj_Lr3cnoBrVfSEBcdF_-9" value="MONGOBD&lt;br&gt;数据库" style="rounded=0;whiteSpace=wrap;html=1;" parent="Nj_Lr3cnoBrVfSEBcdF_-1" vertex="1">
          <mxGeometry x="640" y="400" width="120" height="60" as="geometry" />
        </mxCell>
        <mxCell id="Nj_Lr3cnoBrVfSEBcdF_-10" value="" style="endArrow=classic;html=1;exitX=1;exitY=0.5;exitDx=0;exitDy=0;entryX=0;entryY=0.5;entryDx=0;entryDy=0;" parent="Nj_Lr3cnoBrVfSEBcdF_-1" source="Nj_Lr3cnoBrVfSEBcdF_-3" target="Nj_Lr3cnoBrVfSEBcdF_-5" edge="1">
          <mxGeometry width="50" height="50" relative="1" as="geometry">
            <mxPoint x="560" y="340" as="sourcePoint" />
            <mxPoint x="610" y="290" as="targetPoint" />
            <Array as="points" />
          </mxGeometry>
        </mxCell>
        <mxCell id="Nj_Lr3cnoBrVfSEBcdF_-11" value="" style="endArrow=classic;html=1;exitX=0.5;exitY=1;exitDx=0;exitDy=0;" parent="Nj_Lr3cnoBrVfSEBcdF_-1" source="Nj_Lr3cnoBrVfSEBcdF_-5" target="Nj_Lr3cnoBrVfSEBcdF_-8" edge="1">
          <mxGeometry width="50" height="50" relative="1" as="geometry">
            <mxPoint x="380" y="260" as="sourcePoint" />
            <mxPoint x="450" y="260" as="targetPoint" />
            <Array as="points" />
          </mxGeometry>
        </mxCell>
        <mxCell id="Nj_Lr3cnoBrVfSEBcdF_-12" value="" style="endArrow=classic;html=1;exitX=1;exitY=0.75;exitDx=0;exitDy=0;entryX=0.5;entryY=0;entryDx=0;entryDy=0;" parent="Nj_Lr3cnoBrVfSEBcdF_-1" source="Nj_Lr3cnoBrVfSEBcdF_-5" target="Nj_Lr3cnoBrVfSEBcdF_-9" edge="1">
          <mxGeometry width="50" height="50" relative="1" as="geometry">
            <mxPoint x="510" y="290" as="sourcePoint" />
            <mxPoint x="510" y="410" as="targetPoint" />
            <Array as="points">
              <mxPoint x="700" y="265" />
            </Array>
          </mxGeometry>
        </mxCell>
        <mxCell id="Nj_Lr3cnoBrVfSEBcdF_-13" value="" style="endArrow=classic;html=1;entryX=0.5;entryY=1;entryDx=0;entryDy=0;exitX=1;exitY=0.25;exitDx=0;exitDy=0;" parent="Nj_Lr3cnoBrVfSEBcdF_-1" source="Nj_Lr3cnoBrVfSEBcdF_-5" target="Nj_Lr3cnoBrVfSEBcdF_-7" edge="1">
          <mxGeometry width="50" height="50" relative="1" as="geometry">
            <mxPoint x="740" y="330" as="sourcePoint" />
            <mxPoint x="710" y="410" as="targetPoint" />
            <Array as="points">
              <mxPoint x="940" y="235" />
            </Array>
          </mxGeometry>
        </mxCell>
        <mxCell id="Nj_Lr3cnoBrVfSEBcdF_-14" value="" style="endArrow=classic;html=1;entryX=0;entryY=0.5;entryDx=0;entryDy=0;exitX=1;exitY=0.5;exitDx=0;exitDy=0;" parent="Nj_Lr3cnoBrVfSEBcdF_-1" source="Nj_Lr3cnoBrVfSEBcdF_-6" target="Nj_Lr3cnoBrVfSEBcdF_-7" edge="1">
          <mxGeometry width="50" height="50" relative="1" as="geometry">
            <mxPoint x="570" y="245" as="sourcePoint" />
            <mxPoint x="950" y="200" as="targetPoint" />
            <Array as="points" />
          </mxGeometry>
        </mxCell>
        <mxCell id="Nj_Lr3cnoBrVfSEBcdF_-15" value="" style="endArrow=classic;html=1;exitX=1;exitY=0.5;exitDx=0;exitDy=0;" parent="Nj_Lr3cnoBrVfSEBcdF_-1" source="Nj_Lr3cnoBrVfSEBcdF_-4" edge="1">
          <mxGeometry width="50" height="50" relative="1" as="geometry">
            <mxPoint x="770" y="170" as="sourcePoint" />
            <mxPoint x="640" y="160" as="targetPoint" />
            <Array as="points" />
          </mxGeometry>
        </mxCell>
        <mxCell id="Nj_Lr3cnoBrVfSEBcdF_-16" value="" style="endArrow=classic;html=1;exitX=0.5;exitY=1;exitDx=0;exitDy=0;entryX=0.5;entryY=0;entryDx=0;entryDy=0;" parent="Nj_Lr3cnoBrVfSEBcdF_-1" source="Nj_Lr3cnoBrVfSEBcdF_-4" target="Nj_Lr3cnoBrVfSEBcdF_-5" edge="1">
          <mxGeometry width="50" height="50" relative="1" as="geometry">
            <mxPoint x="570" y="170" as="sourcePoint" />
            <mxPoint x="650" y="170" as="targetPoint" />
            <Array as="points" />
          </mxGeometry>
        </mxCell>
        <mxCell id="Nj_Lr3cnoBrVfSEBcdF_-17" value="" style="endArrow=classic;html=1;exitX=0.75;exitY=0;exitDx=0;exitDy=0;entryX=0;entryY=0.5;entryDx=0;entryDy=0;" parent="Nj_Lr3cnoBrVfSEBcdF_-1" source="Nj_Lr3cnoBrVfSEBcdF_-3" target="Nj_Lr3cnoBrVfSEBcdF_-4" edge="1">
          <mxGeometry width="50" height="50" relative="1" as="geometry">
            <mxPoint x="380" y="260" as="sourcePoint" />
            <mxPoint x="450" y="260" as="targetPoint" />
            <Array as="points">
              <mxPoint x="340" y="160" />
            </Array>
          </mxGeometry>
        </mxCell>
        <mxCell id="Nj_Lr3cnoBrVfSEBcdF_-36" value="" style="group" parent="Nj_Lr3cnoBrVfSEBcdF_-1" vertex="1" connectable="0">
          <mxGeometry x="-330" y="57.5" width="400" height="302.5" as="geometry" />
        </mxCell>
        <mxCell id="Nj_Lr3cnoBrVfSEBcdF_-21" value="" style="rounded=0;whiteSpace=wrap;html=1;" parent="Nj_Lr3cnoBrVfSEBcdF_-36" vertex="1">
          <mxGeometry width="400" height="302.5" as="geometry" />
        </mxCell>
        <mxCell id="Nj_Lr3cnoBrVfSEBcdF_-22" value="" style="ellipse;whiteSpace=wrap;html=1;aspect=fixed;fillColor=#fff2cc;strokeColor=#d6b656;" parent="Nj_Lr3cnoBrVfSEBcdF_-36" vertex="1">
          <mxGeometry x="320" y="5.127118644067796" width="30" height="30" as="geometry" />
        </mxCell>
        <mxCell id="Nj_Lr3cnoBrVfSEBcdF_-23" value="" style="ellipse;whiteSpace=wrap;html=1;aspect=fixed;fillColor=#f8cecc;strokeColor=#b85450;" parent="Nj_Lr3cnoBrVfSEBcdF_-36" vertex="1">
          <mxGeometry x="360" y="5.127118644067796" width="30" height="30" as="geometry" />
        </mxCell>
        <mxCell id="Nj_Lr3cnoBrVfSEBcdF_-24" value="" style="ellipse;whiteSpace=wrap;html=1;aspect=fixed;fillColor=#d5e8d4;strokeColor=#82b366;" parent="Nj_Lr3cnoBrVfSEBcdF_-36" vertex="1">
          <mxGeometry x="280" y="5.127118644067796" width="30" height="30" as="geometry" />
        </mxCell>
        <mxCell id="Nj_Lr3cnoBrVfSEBcdF_-26" value="" style="endArrow=none;html=1;exitX=0;exitY=0.25;exitDx=0;exitDy=0;entryX=1;entryY=0.25;entryDx=0;entryDy=0;" parent="Nj_Lr3cnoBrVfSEBcdF_-36" source="Nj_Lr3cnoBrVfSEBcdF_-21" target="Nj_Lr3cnoBrVfSEBcdF_-21" edge="1">
          <mxGeometry width="50" height="50" relative="1" as="geometry">
            <mxPoint x="10" y="75.88135593220339" as="sourcePoint" />
            <mxPoint x="390" y="75.88135593220339" as="targetPoint" />
            <Array as="points">
              <mxPoint x="70" y="75.88135593220339" />
              <mxPoint x="70" y="35.889830508474574" />
              <mxPoint x="180" y="35.889830508474574" />
              <mxPoint x="180" y="75.88135593220339" />
            </Array>
          </mxGeometry>
        </mxCell>
        <mxCell id="Nj_Lr3cnoBrVfSEBcdF_-27" value="" style="endArrow=none;html=1;entryX=1;entryY=0.42;entryDx=0;entryDy=0;exitX=-0.002;exitY=0.414;exitDx=0;exitDy=0;exitPerimeter=0;entryPerimeter=0;" parent="Nj_Lr3cnoBrVfSEBcdF_-36" source="Nj_Lr3cnoBrVfSEBcdF_-21" target="Nj_Lr3cnoBrVfSEBcdF_-21" edge="1">
          <mxGeometry width="50" height="50" relative="1" as="geometry">
            <mxPoint x="-30" y="97.41525423728812" as="sourcePoint" />
            <mxPoint x="-30" y="56.39830508474576" as="targetPoint" />
            <Array as="points" />
          </mxGeometry>
        </mxCell>
        <mxCell id="Nj_Lr3cnoBrVfSEBcdF_-28" value="http://online-learning.cn" style="rounded=1;whiteSpace=wrap;html=1;align=left;" parent="Nj_Lr3cnoBrVfSEBcdF_-36" vertex="1">
          <mxGeometry x="180" y="87.16101694915254" width="190" height="30.76271186440678" as="geometry" />
        </mxCell>
        <mxCell id="Nj_Lr3cnoBrVfSEBcdF_-29" value="" style="shape=flexArrow;endArrow=classic;html=1;fillColor=#f5f5f5;strokeColor=#666666;" parent="Nj_Lr3cnoBrVfSEBcdF_-36" edge="1">
          <mxGeometry width="50" height="50" relative="1" as="geometry">
            <mxPoint x="50" y="102.02966101694915" as="sourcePoint" />
            <mxPoint x="90" y="102.02966101694915" as="targetPoint" />
          </mxGeometry>
        </mxCell>
        <mxCell id="Nj_Lr3cnoBrVfSEBcdF_-31" value="" style="shape=flexArrow;endArrow=classic;html=1;fillColor=#f5f5f5;strokeColor=#666666;entryX=0;entryY=0.337;entryDx=0;entryDy=0;entryPerimeter=0;" parent="Nj_Lr3cnoBrVfSEBcdF_-36" target="Nj_Lr3cnoBrVfSEBcdF_-21" edge="1">
          <mxGeometry width="50" height="50" relative="1" as="geometry">
            <mxPoint x="40" y="102.02966101694915" as="sourcePoint" />
            <mxPoint y="102.02966101694915" as="targetPoint" />
          </mxGeometry>
        </mxCell>
        <mxCell id="Nj_Lr3cnoBrVfSEBcdF_-32" value="" style="verticalLabelPosition=bottom;verticalAlign=top;html=1;shape=mxgraph.basic.partConcEllipse;startAngle=0.25;endAngle=0.1;arcWidth=0.5;fillColor=#f5f5f5;strokeColor=#666666;fontColor=#333333;" parent="Nj_Lr3cnoBrVfSEBcdF_-36" vertex="1">
          <mxGeometry x="100" y="87.16101694915254" width="30" height="30.76271186440678" as="geometry" />
        </mxCell>
        <mxCell id="Nj_Lr3cnoBrVfSEBcdF_-35" value="" style="shape=flexArrow;endArrow=classic;html=1;width=8;endSize=3;endWidth=10;fillColor=#f5f5f5;strokeColor=#666666;" parent="Nj_Lr3cnoBrVfSEBcdF_-36" edge="1">
          <mxGeometry width="50" height="50" relative="1" as="geometry">
            <mxPoint x="125" y="107.41313559322033" as="sourcePoint" />
            <mxPoint x="125" y="93.56991525423729" as="targetPoint" />
          </mxGeometry>
        </mxCell>
        <mxCell id="Nj_Lr3cnoBrVfSEBcdF_-37" value="" style="endArrow=classic;html=1;exitX=-0.002;exitY=0.797;exitDx=0;exitDy=0;entryX=0.998;entryY=0.61;entryDx=0;entryDy=0;entryPerimeter=0;exitPerimeter=0;" parent="Nj_Lr3cnoBrVfSEBcdF_-1" source="Nj_Lr3cnoBrVfSEBcdF_-2" target="Nj_Lr3cnoBrVfSEBcdF_-21" edge="1">
          <mxGeometry width="50" height="50" relative="1" as="geometry">
            <mxPoint x="200" y="240" as="sourcePoint" />
            <mxPoint x="250" y="190" as="targetPoint" />
          </mxGeometry>
        </mxCell>
        <mxCell id="Nj_Lr3cnoBrVfSEBcdF_-38" value="生产环境" style="rounded=0;whiteSpace=wrap;html=1;align=center;fillColor=#dae8fc;strokeColor=#6c8ebf;" parent="Nj_Lr3cnoBrVfSEBcdF_-1" vertex="1">
          <mxGeometry x="-230" y="-20" width="120" height="60" as="geometry" />
        </mxCell>
        <mxCell id="Nj_Lr3cnoBrVfSEBcdF_-39" value="&lt;font style=&quot;font-size: 17px&quot;&gt;&lt;b&gt;系统平台&lt;/b&gt;&lt;/font&gt;" style="rounded=0;whiteSpace=wrap;html=1;align=center;fillColor=#dae8fc;strokeColor=#6c8ebf;" parent="Nj_Lr3cnoBrVfSEBcdF_-1" vertex="1">
          <mxGeometry x="480" y="-100" width="160" height="60" as="geometry" />
        </mxCell>
        <mxCell id="Nj_Lr3cnoBrVfSEBcdF_-40" value="" style="rounded=0;whiteSpace=wrap;html=1;fillColor=#e1d5e7;strokeColor=#9673a6;" parent="Nj_Lr3cnoBrVfSEBcdF_-1" vertex="1">
          <mxGeometry x="840" y="375" width="180" height="110" as="geometry" />
        </mxCell>
        <mxCell id="Nj_Lr3cnoBrVfSEBcdF_-41" value="文件服务器" style="rounded=0;whiteSpace=wrap;html=1;" parent="Nj_Lr3cnoBrVfSEBcdF_-1" vertex="1">
          <mxGeometry x="880" y="400" width="120" height="60" as="geometry" />
        </mxCell>
        <mxCell id="Nj_Lr3cnoBrVfSEBcdF_-42" value="" style="endArrow=classic;html=1;entryX=0.5;entryY=0;entryDx=0;entryDy=0;exitX=1;exitY=0.5;exitDx=0;exitDy=0;" parent="Nj_Lr3cnoBrVfSEBcdF_-1" source="Nj_Lr3cnoBrVfSEBcdF_-5" target="Nj_Lr3cnoBrVfSEBcdF_-40" edge="1">
          <mxGeometry width="50" height="50" relative="1" as="geometry">
            <mxPoint x="570" y="245" as="sourcePoint" />
            <mxPoint x="950" y="200" as="targetPoint" />
            <Array as="points">
              <mxPoint x="930" y="250" />
            </Array>
          </mxGeometry>
        </mxCell>
        <mxCell id="Nj_Lr3cnoBrVfSEBcdF_-43" value="Nginx w/Prod&lt;br&gt;File(移动端)" style="rounded=0;whiteSpace=wrap;html=1;" parent="Nj_Lr3cnoBrVfSEBcdF_-1" vertex="1">
          <mxGeometry x="440" y="40" width="120" height="60" as="geometry" />
        </mxCell>
        <mxCell id="Nj_Lr3cnoBrVfSEBcdF_-44" value="" style="endArrow=classic;html=1;exitX=0.75;exitY=0;exitDx=0;exitDy=0;entryX=0;entryY=0.5;entryDx=0;entryDy=0;" parent="Nj_Lr3cnoBrVfSEBcdF_-1" source="Nj_Lr3cnoBrVfSEBcdF_-3" target="Nj_Lr3cnoBrVfSEBcdF_-43" edge="1">
          <mxGeometry width="50" height="50" relative="1" as="geometry">
            <mxPoint x="350" y="230" as="sourcePoint" />
            <mxPoint x="450" y="170" as="targetPoint" />
            <Array as="points">
              <mxPoint x="340" y="70" />
            </Array>
          </mxGeometry>
        </mxCell>
        <mxCell id="Nj_Lr3cnoBrVfSEBcdF_-45" value="Worker(计算任务)" style="rounded=0;whiteSpace=wrap;html=1;" parent="Nj_Lr3cnoBrVfSEBcdF_-1" vertex="1">
          <mxGeometry x="640" y="40" width="120" height="60" as="geometry" />
        </mxCell>
        <mxCell id="Nj_Lr3cnoBrVfSEBcdF_-46" value="" style="endArrow=classic;html=1;exitX=1;exitY=0.5;exitDx=0;exitDy=0;entryX=0;entryY=0.5;entryDx=0;entryDy=0;" parent="Nj_Lr3cnoBrVfSEBcdF_-1" source="Nj_Lr3cnoBrVfSEBcdF_-43" target="Nj_Lr3cnoBrVfSEBcdF_-45" edge="1">
          <mxGeometry width="50" height="50" relative="1" as="geometry">
            <mxPoint x="570" y="170" as="sourcePoint" />
            <mxPoint x="650" y="170" as="targetPoint" />
            <Array as="points" />
          </mxGeometry>
        </mxCell>
        <mxCell id="Nj_Lr3cnoBrVfSEBcdF_-47" value="" style="endArrow=classic;html=1;exitX=1;exitY=0.5;exitDx=0;exitDy=0;entryX=0.5;entryY=0;entryDx=0;entryDy=0;" parent="Nj_Lr3cnoBrVfSEBcdF_-1" source="Nj_Lr3cnoBrVfSEBcdF_-45" target="Nj_Lr3cnoBrVfSEBcdF_-20" edge="1">
          <mxGeometry width="50" height="50" relative="1" as="geometry">
            <mxPoint x="570" y="80" as="sourcePoint" />
            <mxPoint x="650" y="80" as="targetPoint" />
            <Array as="points">
              <mxPoint x="940" y="70" />
            </Array>
          </mxGeometry>
        </mxCell>
      </root>
    </mxGraphModel>
  </diagram>
  <diagram id="Qf7aLpBQIz0OFH1ZUQGw" name="Page-4">
    <mxGraphModel dx="3078" dy="2042" grid="1" gridSize="10" guides="1" tooltips="1" connect="1" arrows="1" fold="1" page="1" pageScale="1" pageWidth="850" pageHeight="1100" math="0" shadow="0">
      <root>
        <mxCell id="BcYHrqu3MqYwG_SUw_FW-0" />
        <mxCell id="BcYHrqu3MqYwG_SUw_FW-1" parent="BcYHrqu3MqYwG_SUw_FW-0" />
        <mxCell id="NZxwoUpajLpHUKh-U7Hi-53" value="" style="group" vertex="1" connectable="0" parent="BcYHrqu3MqYwG_SUw_FW-1">
          <mxGeometry x="-710" y="-1000" width="1430" height="870" as="geometry" />
        </mxCell>
        <mxCell id="NZxwoUpajLpHUKh-U7Hi-41" value="" style="rounded=0;whiteSpace=wrap;html=1;" vertex="1" parent="NZxwoUpajLpHUKh-U7Hi-53">
          <mxGeometry x="124.84126984126983" y="639.7058823529411" width="442.6190476190476" height="230.2941176470588" as="geometry" />
        </mxCell>
        <mxCell id="NZxwoUpajLpHUKh-U7Hi-28" value="" style="rounded=0;whiteSpace=wrap;html=1;" vertex="1" parent="NZxwoUpajLpHUKh-U7Hi-53">
          <mxGeometry x="351.8253968253968" y="243.08823529411762" width="215.63492063492063" height="332.6470588235294" as="geometry" />
        </mxCell>
        <mxCell id="NZxwoUpajLpHUKh-U7Hi-26" value="" style="rounded=0;whiteSpace=wrap;html=1;" vertex="1" parent="NZxwoUpajLpHUKh-U7Hi-53">
          <mxGeometry y="243.08823529411762" width="215.63492063492063" height="230.2941176470588" as="geometry" />
        </mxCell>
        <mxCell id="NZxwoUpajLpHUKh-U7Hi-1" value="" style="rounded=0;whiteSpace=wrap;html=1;" vertex="1" parent="NZxwoUpajLpHUKh-U7Hi-53">
          <mxGeometry x="669.6031746031746" y="243.08823529411762" width="760.3968253968254" height="614.1176470588234" as="geometry" />
        </mxCell>
        <mxCell id="NZxwoUpajLpHUKh-U7Hi-2" value="计算节点" style="rounded=0;whiteSpace=wrap;html=1;" vertex="1" parent="NZxwoUpajLpHUKh-U7Hi-53">
          <mxGeometry x="964.6825396825396" y="204.70588235294116" width="136.19047619047618" height="76.76470588235293" as="geometry" />
        </mxCell>
        <mxCell id="NZxwoUpajLpHUKh-U7Hi-0" value="R6700 G3 （CPU*4颗）" style="rounded=0;whiteSpace=wrap;html=1;fillColor=#e1d5e7;strokeColor=#9673a6;" vertex="1" parent="NZxwoUpajLpHUKh-U7Hi-53">
          <mxGeometry x="22.698412698412696" y="332.6470588235294" width="170.23809523809524" height="63.970588235294116" as="geometry" />
        </mxCell>
        <mxCell id="NZxwoUpajLpHUKh-U7Hi-3" value="R6700 G3 （CPU*4颗）" style="rounded=0;whiteSpace=wrap;html=1;fillColor=#e1d5e7;strokeColor=#9673a6;" vertex="1" parent="NZxwoUpajLpHUKh-U7Hi-53">
          <mxGeometry x="692.3015873015872" y="383.8235294117647" width="238.33333333333331" height="63.970588235294116" as="geometry" />
        </mxCell>
        <mxCell id="NZxwoUpajLpHUKh-U7Hi-4" value="R6700 G3 （CPU*4颗）" style="rounded=0;whiteSpace=wrap;html=1;fillColor=#e1d5e7;strokeColor=#9673a6;" vertex="1" parent="NZxwoUpajLpHUKh-U7Hi-53">
          <mxGeometry x="692.3015873015872" y="447.7941176470588" width="238.33333333333331" height="63.970588235294116" as="geometry" />
        </mxCell>
        <mxCell id="NZxwoUpajLpHUKh-U7Hi-5" value="R6700 G3 （CPU*4颗）" style="rounded=0;whiteSpace=wrap;html=1;fillColor=#e1d5e7;strokeColor=#9673a6;" vertex="1" parent="NZxwoUpajLpHUKh-U7Hi-53">
          <mxGeometry x="692.3015873015872" y="511.7647058823529" width="238.33333333333331" height="63.970588235294116" as="geometry" />
        </mxCell>
        <mxCell id="NZxwoUpajLpHUKh-U7Hi-6" value="R5300 （CPU*2颗 GPU*4块）" style="rounded=0;whiteSpace=wrap;html=1;fillColor=#e1d5e7;strokeColor=#9673a6;" vertex="1" parent="NZxwoUpajLpHUKh-U7Hi-53">
          <mxGeometry x="692.3015873015872" y="575.735294117647" width="238.33333333333331" height="63.970588235294116" as="geometry" />
        </mxCell>
        <mxCell id="NZxwoUpajLpHUKh-U7Hi-7" value="R5300 （CPU*2颗 GPU*4块）" style="rounded=0;whiteSpace=wrap;html=1;fillColor=#e1d5e7;strokeColor=#9673a6;" vertex="1" parent="NZxwoUpajLpHUKh-U7Hi-53">
          <mxGeometry x="692.3015873015872" y="639.7058823529411" width="238.33333333333331" height="63.970588235294116" as="geometry" />
        </mxCell>
        <mxCell id="NZxwoUpajLpHUKh-U7Hi-8" value="R5300 （CPU*2颗 GPU*4块）" style="rounded=0;whiteSpace=wrap;html=1;fillColor=#e1d5e7;strokeColor=#9673a6;" vertex="1" parent="NZxwoUpajLpHUKh-U7Hi-53">
          <mxGeometry x="692.3015873015872" y="703.6764705882352" width="238.33333333333331" height="63.970588235294116" as="geometry" />
        </mxCell>
        <mxCell id="NZxwoUpajLpHUKh-U7Hi-9" value="4029GP （CPU*2颗 GPU*4块）" style="rounded=0;whiteSpace=wrap;html=1;fillColor=#dae8fc;strokeColor=#6c8ebf;" vertex="1" parent="NZxwoUpajLpHUKh-U7Hi-53">
          <mxGeometry x="930.6349206349206" y="383.8235294117647" width="238.33333333333331" height="63.970588235294116" as="geometry" />
        </mxCell>
        <mxCell id="NZxwoUpajLpHUKh-U7Hi-10" value="4029GP （CPU*2颗 GPU*4块）" style="rounded=0;whiteSpace=wrap;html=1;fillColor=#dae8fc;strokeColor=#6c8ebf;" vertex="1" parent="NZxwoUpajLpHUKh-U7Hi-53">
          <mxGeometry x="930.6349206349206" y="447.7941176470588" width="238.33333333333331" height="63.970588235294116" as="geometry" />
        </mxCell>
        <mxCell id="NZxwoUpajLpHUKh-U7Hi-11" value="4029GP （CPU*2颗 GPU*4块）" style="rounded=0;whiteSpace=wrap;html=1;fillColor=#dae8fc;strokeColor=#6c8ebf;" vertex="1" parent="NZxwoUpajLpHUKh-U7Hi-53">
          <mxGeometry x="930.6349206349206" y="511.7647058823529" width="238.33333333333331" height="63.970588235294116" as="geometry" />
        </mxCell>
        <mxCell id="NZxwoUpajLpHUKh-U7Hi-12" value="4029GP （CPU*2颗 GPU*4块）" style="rounded=0;whiteSpace=wrap;html=1;fillColor=#dae8fc;strokeColor=#6c8ebf;" vertex="1" parent="NZxwoUpajLpHUKh-U7Hi-53">
          <mxGeometry x="930.6349206349206" y="575.735294117647" width="238.33333333333331" height="63.970588235294116" as="geometry" />
        </mxCell>
        <mxCell id="NZxwoUpajLpHUKh-U7Hi-13" value="4029GP （CPU*2颗 GPU*4块）" style="rounded=0;whiteSpace=wrap;html=1;fillColor=#dae8fc;strokeColor=#6c8ebf;" vertex="1" parent="NZxwoUpajLpHUKh-U7Hi-53">
          <mxGeometry x="930.6349206349206" y="639.7058823529411" width="238.33333333333331" height="63.970588235294116" as="geometry" />
        </mxCell>
        <mxCell id="NZxwoUpajLpHUKh-U7Hi-14" value="4029GP （CPU*2颗 GPU*4块）" style="rounded=0;whiteSpace=wrap;html=1;fillColor=#dae8fc;strokeColor=#6c8ebf;" vertex="1" parent="NZxwoUpajLpHUKh-U7Hi-53">
          <mxGeometry x="930.6349206349206" y="703.6764705882352" width="238.33333333333331" height="63.970588235294116" as="geometry" />
        </mxCell>
        <mxCell id="NZxwoUpajLpHUKh-U7Hi-16" value="NF5468M5 （CPU*2颗 GPU*4块）" style="rounded=0;whiteSpace=wrap;html=1;fillColor=#d5e8d4;strokeColor=#82b366;" vertex="1" parent="NZxwoUpajLpHUKh-U7Hi-53">
          <mxGeometry x="1168.968253968254" y="511.7647058823529" width="238.33333333333331" height="63.970588235294116" as="geometry" />
        </mxCell>
        <mxCell id="NZxwoUpajLpHUKh-U7Hi-17" value="NF5468M5 （CPU*2颗 GPU*4块）" style="rounded=0;whiteSpace=wrap;html=1;fillColor=#d5e8d4;strokeColor=#82b366;" vertex="1" parent="NZxwoUpajLpHUKh-U7Hi-53">
          <mxGeometry x="1168.968253968254" y="447.7941176470588" width="238.33333333333331" height="63.970588235294116" as="geometry" />
        </mxCell>
        <mxCell id="NZxwoUpajLpHUKh-U7Hi-18" value="NF5468M6 （CPU*2颗 GPU*4块）" style="rounded=0;whiteSpace=wrap;html=1;fillColor=#d5e8d4;strokeColor=#82b366;" vertex="1" parent="NZxwoUpajLpHUKh-U7Hi-53">
          <mxGeometry x="1168.968253968254" y="575.735294117647" width="238.33333333333331" height="63.970588235294116" as="geometry" />
        </mxCell>
        <mxCell id="NZxwoUpajLpHUKh-U7Hi-19" value="NF5468M6 （CPU*2颗 GPU*4块）" style="rounded=0;whiteSpace=wrap;html=1;fillColor=#d5e8d4;strokeColor=#82b366;" vertex="1" parent="NZxwoUpajLpHUKh-U7Hi-53">
          <mxGeometry x="1168.968253968254" y="639.7058823529411" width="238.33333333333331" height="63.970588235294116" as="geometry" />
        </mxCell>
        <mxCell id="NZxwoUpajLpHUKh-U7Hi-20" value="NF5468M6 （CPU*2颗 GPU*4块）" style="rounded=0;whiteSpace=wrap;html=1;fillColor=#d5e8d4;strokeColor=#82b366;" vertex="1" parent="NZxwoUpajLpHUKh-U7Hi-53">
          <mxGeometry x="1168.968253968254" y="703.6764705882352" width="238.33333333333331" height="63.970588235294116" as="geometry" />
        </mxCell>
        <mxCell id="NZxwoUpajLpHUKh-U7Hi-21" value="NF8480M5 （CPU*4颗 ）" style="rounded=0;whiteSpace=wrap;html=1;fillColor=#d5e8d4;strokeColor=#82b366;" vertex="1" parent="NZxwoUpajLpHUKh-U7Hi-53">
          <mxGeometry x="1168.968253968254" y="319.85294117647055" width="238.33333333333331" height="63.970588235294116" as="geometry" />
        </mxCell>
        <mxCell id="NZxwoUpajLpHUKh-U7Hi-22" value="NF8480M5 （CPU*4颗 ）" style="rounded=0;whiteSpace=wrap;html=1;fillColor=#d5e8d4;strokeColor=#82b366;" vertex="1" parent="NZxwoUpajLpHUKh-U7Hi-53">
          <mxGeometry x="1168.968253968254" y="255.88235294117646" width="238.33333333333331" height="63.970588235294116" as="geometry" />
        </mxCell>
        <mxCell id="NZxwoUpajLpHUKh-U7Hi-23" value="华三" style="rounded=0;whiteSpace=wrap;html=1;fillColor=#e1d5e7;strokeColor=#9673a6;" vertex="1" parent="NZxwoUpajLpHUKh-U7Hi-53">
          <mxGeometry x="737.6984126984127" y="780.4411764705882" width="102.14285714285714" height="63.970588235294116" as="geometry" />
        </mxCell>
        <mxCell id="NZxwoUpajLpHUKh-U7Hi-24" value="联泰" style="rounded=0;whiteSpace=wrap;html=1;fillColor=#e1d5e7;strokeColor=#9673a6;" vertex="1" parent="NZxwoUpajLpHUKh-U7Hi-53">
          <mxGeometry x="987.3809523809523" y="780.4411764705882" width="102.14285714285714" height="63.970588235294116" as="geometry" />
        </mxCell>
        <mxCell id="NZxwoUpajLpHUKh-U7Hi-25" value="浪潮" style="rounded=0;whiteSpace=wrap;html=1;fillColor=#e1d5e7;strokeColor=#9673a6;" vertex="1" parent="NZxwoUpajLpHUKh-U7Hi-53">
          <mxGeometry x="1237.063492063492" y="780.4411764705882" width="102.14285714285714" height="63.970588235294116" as="geometry" />
        </mxCell>
        <mxCell id="NZxwoUpajLpHUKh-U7Hi-27" value="管理节点" style="rounded=0;whiteSpace=wrap;html=1;" vertex="1" parent="NZxwoUpajLpHUKh-U7Hi-53">
          <mxGeometry x="39.72222222222222" y="204.70588235294116" width="136.19047619047618" height="76.76470588235293" as="geometry" />
        </mxCell>
        <mxCell id="NZxwoUpajLpHUKh-U7Hi-37" style="edgeStyle=orthogonalEdgeStyle;rounded=0;orthogonalLoop=1;jettySize=auto;html=1;exitX=1;exitY=0.5;exitDx=0;exitDy=0;entryX=0;entryY=0.25;entryDx=0;entryDy=0;" edge="1" parent="NZxwoUpajLpHUKh-U7Hi-53" source="NZxwoUpajLpHUKh-U7Hi-29" target="NZxwoUpajLpHUKh-U7Hi-1">
          <mxGeometry relative="1" as="geometry" />
        </mxCell>
        <mxCell id="NZxwoUpajLpHUKh-U7Hi-29" value="IPMI" style="rounded=0;whiteSpace=wrap;html=1;fillColor=#fff2cc;strokeColor=#d6b656;" vertex="1" parent="NZxwoUpajLpHUKh-U7Hi-53">
          <mxGeometry x="374.5238095238095" y="307.0588235294117" width="170.23809523809524" height="63.970588235294116" as="geometry" />
        </mxCell>
        <mxCell id="NZxwoUpajLpHUKh-U7Hi-34" style="edgeStyle=orthogonalEdgeStyle;rounded=0;orthogonalLoop=1;jettySize=auto;html=1;exitX=1;exitY=0.5;exitDx=0;exitDy=0;" edge="1" parent="NZxwoUpajLpHUKh-U7Hi-53" source="NZxwoUpajLpHUKh-U7Hi-0" target="NZxwoUpajLpHUKh-U7Hi-29">
          <mxGeometry relative="1" as="geometry" />
        </mxCell>
        <mxCell id="NZxwoUpajLpHUKh-U7Hi-30" value="网络" style="rounded=0;whiteSpace=wrap;html=1;" vertex="1" parent="NZxwoUpajLpHUKh-U7Hi-53">
          <mxGeometry x="391.54761904761904" y="204.70588235294116" width="136.19047619047618" height="76.76470588235293" as="geometry" />
        </mxCell>
        <mxCell id="NZxwoUpajLpHUKh-U7Hi-38" style="edgeStyle=orthogonalEdgeStyle;rounded=0;orthogonalLoop=1;jettySize=auto;html=1;exitX=1;exitY=0.5;exitDx=0;exitDy=0;" edge="1" parent="NZxwoUpajLpHUKh-U7Hi-53" source="NZxwoUpajLpHUKh-U7Hi-31" target="NZxwoUpajLpHUKh-U7Hi-1">
          <mxGeometry relative="1" as="geometry" />
        </mxCell>
        <mxCell id="NZxwoUpajLpHUKh-U7Hi-31" value="千兆交换机（业务网）" style="rounded=0;whiteSpace=wrap;html=1;fillColor=#fff2cc;strokeColor=#d6b656;" vertex="1" parent="NZxwoUpajLpHUKh-U7Hi-53">
          <mxGeometry x="374.5238095238095" y="383.8235294117647" width="170.23809523809524" height="63.970588235294116" as="geometry" />
        </mxCell>
        <mxCell id="NZxwoUpajLpHUKh-U7Hi-35" style="edgeStyle=orthogonalEdgeStyle;rounded=0;orthogonalLoop=1;jettySize=auto;html=1;exitX=1;exitY=0.5;exitDx=0;exitDy=0;entryX=0;entryY=0.75;entryDx=0;entryDy=0;" edge="1" parent="NZxwoUpajLpHUKh-U7Hi-53" source="NZxwoUpajLpHUKh-U7Hi-0" target="NZxwoUpajLpHUKh-U7Hi-31">
          <mxGeometry relative="1" as="geometry" />
        </mxCell>
        <mxCell id="NZxwoUpajLpHUKh-U7Hi-40" style="edgeStyle=orthogonalEdgeStyle;rounded=0;orthogonalLoop=1;jettySize=auto;html=1;exitX=1;exitY=0.75;exitDx=0;exitDy=0;entryX=0;entryY=0.75;entryDx=0;entryDy=0;" edge="1" parent="NZxwoUpajLpHUKh-U7Hi-53" source="NZxwoUpajLpHUKh-U7Hi-32" target="NZxwoUpajLpHUKh-U7Hi-1">
          <mxGeometry relative="1" as="geometry">
            <Array as="points">
              <mxPoint x="544.7619047619047" y="601.3235294117646" />
              <mxPoint x="607.1825396825396" y="601.3235294117646" />
              <mxPoint x="607.1825396825396" y="703.6764705882352" />
            </Array>
          </mxGeometry>
        </mxCell>
        <mxCell id="NZxwoUpajLpHUKh-U7Hi-32" value="万兆交换机（存储）" style="rounded=0;whiteSpace=wrap;html=1;fillColor=#fff2cc;strokeColor=#d6b656;" vertex="1" parent="NZxwoUpajLpHUKh-U7Hi-53">
          <mxGeometry x="374.5238095238095" y="460.5882352941176" width="170.23809523809524" height="63.970588235294116" as="geometry" />
        </mxCell>
        <mxCell id="NZxwoUpajLpHUKh-U7Hi-36" style="edgeStyle=orthogonalEdgeStyle;rounded=0;orthogonalLoop=1;jettySize=auto;html=1;exitX=1;exitY=0.5;exitDx=0;exitDy=0;entryX=0;entryY=0.5;entryDx=0;entryDy=0;" edge="1" parent="NZxwoUpajLpHUKh-U7Hi-53" source="NZxwoUpajLpHUKh-U7Hi-0" target="NZxwoUpajLpHUKh-U7Hi-32">
          <mxGeometry relative="1" as="geometry" />
        </mxCell>
        <mxCell id="NZxwoUpajLpHUKh-U7Hi-33" value="NF5468M5 （CPU*2颗 GPU*4块）" style="rounded=0;whiteSpace=wrap;html=1;fillColor=#d5e8d4;strokeColor=#82b366;" vertex="1" parent="NZxwoUpajLpHUKh-U7Hi-53">
          <mxGeometry x="1168.968253968254" y="383.8235294117647" width="238.33333333333331" height="63.970588235294116" as="geometry" />
        </mxCell>
        <mxCell id="NZxwoUpajLpHUKh-U7Hi-42" value="待购入：（核心参数容量、带宽、硬盘数量）&lt;br&gt;&lt;br&gt;按照2T/位老师 约200T&lt;br&gt;按照0.5T/位学生 约200T" style="rounded=0;whiteSpace=wrap;html=1;fillColor=#e1d5e7;strokeColor=#9673a6;align=left;" vertex="1" parent="NZxwoUpajLpHUKh-U7Hi-53">
          <mxGeometry x="192.93650793650792" y="703.6764705882352" width="351.8253968253968" height="115.1470588235294" as="geometry" />
        </mxCell>
        <mxCell id="NZxwoUpajLpHUKh-U7Hi-44" style="edgeStyle=orthogonalEdgeStyle;rounded=0;orthogonalLoop=1;jettySize=auto;html=1;exitX=0.25;exitY=1;exitDx=0;exitDy=0;entryX=0;entryY=0.25;entryDx=0;entryDy=0;" edge="1" parent="NZxwoUpajLpHUKh-U7Hi-53" source="NZxwoUpajLpHUKh-U7Hi-32" target="NZxwoUpajLpHUKh-U7Hi-42">
          <mxGeometry relative="1" as="geometry">
            <Array as="points">
              <mxPoint x="79.44444444444444" y="524.5588235294117" />
              <mxPoint x="79.44444444444444" y="720.3088235294117" />
            </Array>
          </mxGeometry>
        </mxCell>
        <mxCell id="NZxwoUpajLpHUKh-U7Hi-43" value="存储服务器" style="rounded=0;whiteSpace=wrap;html=1;" vertex="1" parent="NZxwoUpajLpHUKh-U7Hi-53">
          <mxGeometry x="391.54761904761904" y="601.3235294117646" width="136.19047619047618" height="76.76470588235293" as="geometry" />
        </mxCell>
        <mxCell id="NZxwoUpajLpHUKh-U7Hi-46" style="edgeStyle=orthogonalEdgeStyle;rounded=0;orthogonalLoop=1;jettySize=auto;html=1;exitX=0.25;exitY=1;exitDx=0;exitDy=0;entryX=0;entryY=0.5;entryDx=0;entryDy=0;" edge="1" parent="NZxwoUpajLpHUKh-U7Hi-53" source="NZxwoUpajLpHUKh-U7Hi-45" target="NZxwoUpajLpHUKh-U7Hi-31">
          <mxGeometry relative="1" as="geometry" />
        </mxCell>
        <mxCell id="NZxwoUpajLpHUKh-U7Hi-45" value="防火墙" style="rounded=0;whiteSpace=wrap;html=1;fillColor=#f8cecc;strokeColor=#b85450;" vertex="1" parent="NZxwoUpajLpHUKh-U7Hi-53">
          <mxGeometry x="204.28571428571428" y="127.94117647058823" width="170.23809523809524" height="63.970588235294116" as="geometry" />
        </mxCell>
        <mxCell id="NZxwoUpajLpHUKh-U7Hi-50" style="edgeStyle=orthogonalEdgeStyle;rounded=0;orthogonalLoop=1;jettySize=auto;html=1;exitX=0.07;exitY=0.4;exitDx=0;exitDy=0;exitPerimeter=0;entryX=0.25;entryY=0;entryDx=0;entryDy=0;" edge="1" parent="NZxwoUpajLpHUKh-U7Hi-53" source="NZxwoUpajLpHUKh-U7Hi-47" target="NZxwoUpajLpHUKh-U7Hi-45">
          <mxGeometry relative="1" as="geometry" />
        </mxCell>
        <mxCell id="NZxwoUpajLpHUKh-U7Hi-47" value="校园网" style="ellipse;shape=cloud;whiteSpace=wrap;html=1;fillColor=#ffe6cc;strokeColor=#d79b00;" vertex="1" parent="NZxwoUpajLpHUKh-U7Hi-53">
          <mxGeometry x="397.22222222222223" width="136.19047619047618" height="102.35294117647058" as="geometry" />
        </mxCell>
        <mxCell id="NZxwoUpajLpHUKh-U7Hi-51" value="该集群目前包含：&lt;br&gt;54颗CPU，共计（1152核）&lt;br&gt;58块GPU" style="rounded=0;whiteSpace=wrap;html=1;fillColor=#f8cecc;strokeColor=#b85450;align=left;" vertex="1" parent="NZxwoUpajLpHUKh-U7Hi-53">
          <mxGeometry y="19.191176470588232" width="192.93650793650792" height="63.970588235294116" as="geometry" />
        </mxCell>
      </root>
    </mxGraphModel>
  </diagram>
</mxfile>
